<svg width="46" height="47" viewBox="0 0 46 47" fill="none" xmlns="http://www.w3.org/2000/svg">
<g filter="url(#filter0_d_108_218)">
<path d="M43.0001 21.1646C43.0001 32.8533 33.4983 42.3292 21.7775 42.3292C10.0567 42.3292 0.554932 32.8533 0.554932 21.1646C0.554932 9.47573 10.0567 0 21.7775 0C33.4983 0 43.0001 9.47573 43.0001 21.1646Z" fill="#DF4B38"/>
<g filter="url(#filter1_d_108_218)">
<path fill-rule="evenodd" clip-rule="evenodd" d="M32.4498 20.3653V18.2114H30.908V20.3653H28.687V21.9029H30.908V24.1178H32.4498V21.9029H34.6096V20.3653H32.4498ZM19.4132 20.195V23.1186C19.4132 23.1186 22.2975 23.1147 23.4722 23.1147C22.8365 25.0106 21.8474 26.0423 19.4132 26.0423C16.9504 26.0423 15.0286 24.0794 15.0286 21.6568C15.0286 19.2342 16.9504 17.2709 19.4132 17.2709C20.7162 17.2709 21.5572 17.721 22.3281 18.3484C22.9461 17.7411 22.8947 17.6545 24.4652 16.1955C23.1316 15.0016 21.3588 14.2738 19.4132 14.2738C15.2674 14.2738 11.9064 17.5792 11.9064 21.6568C11.9064 25.7342 15.2674 29.0398 19.4132 29.0398C25.6112 29.0398 27.1254 23.7329 26.624 20.195C25.1562 20.195 19.4132 20.195 19.4132 20.195Z" fill="white"/>
<mask id="mask0_108_218" style="mask-type:luminance" maskUnits="userSpaceOnUse" x="8" y="11" width="30" height="21">
<path d="M37.571 11.3206H8.94519V31.9929H37.571V11.3206Z" fill="white"/>
<path fill-rule="evenodd" clip-rule="evenodd" d="M32.4498 20.3653V18.2114H30.908V20.3653H28.687V21.9029H30.908V24.1178H32.4498V21.9029H34.6096V20.3653H32.4498ZM19.4132 20.195V23.1186C19.4132 23.1186 22.2975 23.1147 23.4722 23.1147C22.8365 25.0106 21.8474 26.0423 19.4132 26.0423C16.9504 26.0423 15.0286 24.0794 15.0286 21.6568C15.0286 19.2342 16.9504 17.2709 19.4132 17.2709C20.7162 17.2709 21.5572 17.721 22.3281 18.3484C22.9461 17.7411 22.8947 17.6545 24.4652 16.1955C23.1316 15.0016 21.3588 14.2738 19.4132 14.2738C15.2674 14.2738 11.9064 17.5792 11.9064 21.6568C11.9064 25.7342 15.2674 29.0398 19.4132 29.0398C25.6112 29.0398 27.1254 23.7329 26.624 20.195C25.1562 20.195 19.4132 20.195 19.4132 20.195Z" fill="#003169"/>
</mask>
<g mask="url(#mask0_108_218)">
<path d="M32.4499 18.2113H35.4112C35.4112 16.5803 34.0855 15.2582 32.4499 15.2582V18.2113ZM30.9081 18.2113V15.2582C29.2725 15.2582 27.9468 16.5803 27.9468 18.2113H30.9081ZM30.9081 20.3652V23.3184C32.5437 23.3184 33.8694 21.9954 33.8694 20.3652H30.9081ZM28.6871 20.3652V17.4115C27.0515 17.4115 25.7258 18.7337 25.7258 20.3652H28.6871ZM28.6871 21.9028H25.7258C25.7258 23.534 27.0515 24.856 28.6871 24.856V21.9028ZM30.9081 21.9028H33.8694C33.8694 20.2717 32.5437 18.9496 30.9081 18.9496V21.9028ZM30.9081 24.1177H27.9468C27.9468 25.7489 29.2725 27.0709 30.9081 27.0709V24.1177ZM32.4499 24.1177V27.0709C34.0855 27.0709 35.4112 25.7489 35.4112 24.1177H32.4499ZM32.4499 21.9028V18.9496C30.8153 18.9496 29.4886 20.2717 29.4886 21.9028H32.4499ZM34.6097 21.9028V24.856C36.2453 24.856 37.571 23.534 37.571 21.9028H34.6097ZM34.6097 20.3652H37.571C37.571 18.7337 36.2453 17.4115 34.6097 17.4115V20.3652ZM32.4499 17.4115C30.8153 17.4115 29.4886 18.7337 29.4886 20.3652C29.4886 21.9954 30.8153 23.3184 32.4499 23.3184V17.4115ZM19.4133 23.1186H16.4521C16.4521 23.9022 16.765 24.6542 17.3217 25.2085C17.8774 25.7627 18.6316 26.0728 19.4173 26.0718L19.4133 23.1186ZM23.4723 23.1146L26.2806 24.0518C26.5826 23.1511 26.4326 22.1608 25.8759 21.39C25.3191 20.6182 24.4248 20.1614 23.4723 20.1614V23.1146ZM22.3282 18.3484L20.4567 20.6369C21.6284 21.5898 23.3311 21.5101 24.408 20.4509L22.3282 18.3484ZM24.4653 16.1954L26.4839 18.3565C27.092 17.7915 27.4345 16.9974 27.4266 16.1683C27.4187 15.3392 27.0624 14.5514 26.4434 13.9976L24.4653 16.1954ZM26.6241 20.1949L29.5558 19.7805C29.3495 18.3243 28.0988 17.2416 26.6241 17.2416V20.1949ZM19.4133 17.2416C17.7787 17.2416 16.4521 18.5638 16.4521 20.1949C16.4521 21.8261 17.7787 23.1481 19.4133 23.1481V17.2416ZM35.4112 20.3652V18.2113H29.4886V20.3652H35.4112ZM32.4499 15.2582H30.9081V21.1645H32.4499V15.2582ZM27.9468 18.2113V20.3652H33.8694V18.2113H27.9468ZM30.9081 17.4115H28.6871V23.3184H30.9081V17.4115ZM25.7258 20.3652V21.9028H31.6484V20.3652H25.7258ZM28.6871 24.856H30.9081V18.9496H28.6871V24.856ZM27.9468 21.9028V24.1177H33.8694V21.9028H27.9468ZM30.9081 27.0709H32.4499V21.1645H30.9081V27.0709ZM35.4112 24.1177V21.9028H29.4886V24.1177H35.4112ZM32.4499 24.856H34.6097V18.9496H32.4499V24.856ZM37.571 21.9028V20.3652H31.6484V21.9028H37.571ZM34.6097 17.4115H32.4499V23.3184H34.6097V17.4115ZM16.4521 20.1949V23.1186H22.3746V20.1949H16.4521ZM19.4133 23.1186C19.4173 26.0718 19.4173 26.0718 19.4173 26.0718C19.4173 26.0718 19.4173 26.0718 19.4183 26.0718C19.4183 26.0718 19.4193 26.0718 19.4203 26.0718C19.4212 26.0718 19.4232 26.0718 19.4262 26.0718C19.4311 26.0718 19.44 26.0718 19.4499 26.0718C19.4716 26.0718 19.5032 26.0718 19.5436 26.0718C19.6246 26.0718 19.742 26.0718 19.8862 26.0718C20.1754 26.0708 20.5722 26.0708 21.0055 26.0698C21.8742 26.0688 22.8869 26.0678 23.4723 26.0678V20.1614C22.883 20.1614 21.8673 20.1624 20.9996 20.1634C20.5653 20.1644 20.1675 20.1644 19.8793 20.1654C19.7351 20.1654 19.6177 20.1654 19.5357 20.1654C19.4953 20.1654 19.4637 20.1654 19.443 20.1654C19.4321 20.1654 19.4232 20.1654 19.4183 20.1654C19.4153 20.1654 19.4133 20.1654 19.4124 20.1654C19.4114 20.1654 19.4104 20.1654 19.4104 20.1654C19.4094 20.1654 19.4094 20.1654 19.4133 23.1186ZM20.664 22.1775C20.5495 22.5191 20.4508 22.7238 20.3777 22.8449C20.3432 22.902 20.3175 22.9345 20.3037 22.9502C20.2968 22.9581 20.2919 22.963 20.2899 22.965C20.2889 22.967 20.2879 22.967 20.2869 22.968C20.2869 22.968 20.2869 22.9689 20.2859 22.9689C20.2849 22.9699 20.281 22.9719 20.2751 22.9749C20.2622 22.9808 20.2317 22.9955 20.1744 23.0113C20.054 23.0457 19.819 23.089 19.4133 23.089V28.9954C21.043 28.9954 22.6273 28.647 23.9481 27.6104C25.2333 26.6024 25.8818 25.2419 26.2806 24.0518L20.664 22.1775ZM19.4133 23.089C18.6118 23.089 17.9899 22.4738 17.9899 21.6567H12.0674C12.0674 25.6839 15.2893 28.9954 19.4133 28.9954V23.089ZM17.9899 21.6567C17.9899 20.8397 18.6118 20.2244 19.4133 20.2244V14.3177C15.2893 14.3177 12.0674 17.6295 12.0674 21.6567H17.9899ZM19.4133 20.2244C19.7045 20.2244 19.8575 20.2707 19.9523 20.3091C20.0609 20.3534 20.2099 20.4361 20.4567 20.6369L24.1998 16.0597C23.0557 15.1295 21.5751 14.3177 19.4133 14.3177V20.2244ZM24.408 20.4509C24.7743 20.0906 25.0556 19.7657 25.2096 19.6013C25.407 19.3887 25.7318 19.0547 26.4839 18.3565L22.4477 14.0342C21.6284 14.7953 21.1941 15.2337 20.8693 15.5817C20.5021 15.9766 20.5001 15.9985 20.2494 16.2456L24.408 20.4509ZM26.4434 13.9976C24.5838 12.333 22.1121 11.3206 19.4133 11.3206V17.2269C20.6058 17.2269 21.6797 17.6701 22.4872 18.3931L26.4434 13.9976ZM19.4133 11.3206C13.6714 11.3206 8.94519 15.9094 8.94519 21.6567H14.8678C14.8678 19.2489 16.8637 17.2269 19.4133 17.2269V11.3206ZM8.94519 21.6567C8.94519 27.4037 13.6714 31.9929 19.4133 31.9929V26.0865C16.8637 26.0865 14.8678 24.0646 14.8678 21.6567H8.94519ZM19.4133 31.9929C23.5137 31.9929 26.4099 30.157 28.0534 27.4903C29.5854 25.0067 29.8795 22.0643 29.5558 19.7805L23.6914 20.6084C23.8701 21.8635 23.6579 23.344 23.0083 24.3973C22.4704 25.2695 21.5109 26.0865 19.4133 26.0865V31.9929ZM26.6241 17.2416C26.6211 17.2416 26.6182 17.2416 26.6152 17.2416C26.6122 17.2416 26.6093 17.2416 26.6063 17.2416C26.6034 17.2416 26.6004 17.2416 26.5974 17.2416C26.5945 17.2416 26.5915 17.2416 26.5885 17.2416C26.5856 17.2416 26.5826 17.2416 26.5797 17.2416C26.5767 17.2416 26.5737 17.2416 26.5708 17.2416C26.5678 17.2416 26.5639 17.2416 26.5609 17.2416C26.5579 17.2416 26.555 17.2416 26.552 17.2416C26.5491 17.2416 26.5461 17.2416 26.5421 17.2416C26.5392 17.2416 26.5362 17.2416 26.5333 17.2416C26.5293 17.2416 26.5264 17.2416 26.5234 17.2416C26.5204 17.2416 26.5165 17.2416 26.5135 17.2416C26.5106 17.2416 26.5076 17.2416 26.5037 17.2416C26.5007 17.2416 26.4977 17.2416 26.4938 17.2416C26.4908 17.2416 26.4879 17.2416 26.4839 17.2416C26.481 17.2416 26.477 17.2416 26.474 17.2416C26.4711 17.2416 26.4671 17.2416 26.4642 17.2416C26.4602 17.2416 26.4573 17.2416 26.4533 17.2416C26.4504 17.2416 26.4464 17.2416 26.4434 17.2416C26.4395 17.2416 26.4365 17.2416 26.4326 17.2416C26.4296 17.2416 26.4257 17.2416 26.4227 17.2416C26.4188 17.2416 26.4148 17.2416 26.4119 17.2416C26.4079 17.2416 26.405 17.2416 26.401 17.2416C26.3971 17.2416 26.3941 17.2416 26.3901 17.2416C26.3862 17.2416 26.3832 17.2416 26.3793 17.2416C26.3753 17.2416 26.3724 17.2416 26.3684 17.2416C26.3645 17.2416 26.3615 17.2416 26.3576 17.2416C26.3536 17.2416 26.3497 17.2416 26.3467 17.2416C26.3428 17.2416 26.3388 17.2416 26.3349 17.2416C26.3309 17.2416 26.328 17.2416 26.324 17.2416C26.3201 17.2416 26.3161 17.2416 26.3122 17.2416C26.3082 17.2416 26.3052 17.2416 26.3013 17.2416C26.2973 17.2416 26.2934 17.2416 26.2895 17.2416C26.2855 17.2416 26.2816 17.2416 26.2776 17.2416C26.2737 17.2416 26.2697 17.2416 26.2658 17.2416C26.2618 17.2416 26.2579 17.2416 26.2539 17.2416C26.25 17.2416 26.246 17.2416 26.2421 17.2416C26.2381 17.2416 26.2342 17.2416 26.2302 17.2416C26.2263 17.2416 26.2223 17.2416 26.2184 17.2416C26.2144 17.2416 26.2105 17.2416 26.2065 17.2416C26.2026 17.2416 26.1986 17.2416 26.1937 17.2416C26.1898 17.2416 26.1858 17.2416 26.1819 17.2416C26.1779 17.2416 26.174 17.2416 26.17 17.2416C26.1651 17.2416 26.1611 17.2416 26.1572 17.2416C26.1532 17.2416 26.1493 17.2416 26.1443 17.2416C26.1404 17.2416 26.1365 17.2416 26.1325 17.2416C26.1276 17.2416 26.1236 17.2416 26.1197 17.2416C26.1147 17.2416 26.1108 17.2416 26.1068 17.2416C26.1019 17.2416 26.098 17.2416 26.094 17.2416C26.0891 17.2416 26.0851 17.2416 26.0812 17.2416C26.0762 17.2416 26.0723 17.2416 26.0683 17.2416C26.0634 17.2416 26.0595 17.2416 26.0545 17.2416C26.0506 17.2416 26.0466 17.2416 26.0417 17.2416C26.0378 17.2416 26.0328 17.2416 26.0289 17.2416C26.0239 17.2416 26.02 17.2416 26.015 17.2416C26.0111 17.2416 26.0062 17.2416 26.0022 17.2416C25.9973 17.2416 25.9933 17.2416 25.9884 17.2416C25.9845 17.2416 25.9795 17.2416 25.9756 17.2416C25.9706 17.2416 25.9657 17.2416 25.9617 17.2416C25.9568 17.2416 25.9529 17.2416 25.9479 17.2416C25.943 17.2416 25.939 17.2416 25.9341 17.2416C25.9292 17.2416 25.9252 17.2416 25.9203 17.2416C25.9163 17.2416 25.9114 17.2416 25.9065 17.2416C25.9015 17.2416 25.8976 17.2416 25.8927 17.2416C25.8877 17.2416 25.8838 17.2416 25.8788 17.2416C25.8739 17.2416 25.869 17.2416 25.865 17.2416C25.8601 17.2416 25.8551 17.2416 25.8502 17.2416C25.8463 17.2416 25.8413 17.2416 25.8364 17.2416C25.8314 17.2416 25.8265 17.2416 25.8226 17.2416C25.8176 17.2416 25.8127 17.2416 25.8077 17.2416C25.8028 17.2416 25.7979 17.2416 25.7939 17.2416C25.789 17.2416 25.7841 17.2416 25.7791 17.2416C25.7742 17.2416 25.7693 17.2416 25.7643 17.2416C25.7594 17.2416 25.7545 17.2416 25.7495 17.2416C25.7446 17.2416 25.7406 17.2416 25.7357 17.2416C25.7308 17.2416 25.7258 17.2416 25.7209 17.2416C25.7159 17.2416 25.711 17.2416 25.7061 17.2416C25.7011 17.2416 25.6962 17.2416 25.6913 17.2416C25.6863 17.2416 25.6814 17.2416 25.6765 17.2416C25.6715 17.2416 25.6656 17.2416 25.6607 17.2416C25.6557 17.2416 25.6508 17.2416 25.6459 17.2416C25.6409 17.2416 25.636 17.2416 25.6311 17.2416C25.6261 17.2416 25.6212 17.2416 25.6163 17.2416C25.6103 17.2416 25.6054 17.2416 25.6005 17.2416C25.5955 17.2416 25.5906 17.2416 25.5857 17.2416C25.5807 17.2416 25.5748 17.2416 25.5699 17.2416C25.5649 17.2416 25.56 17.2416 25.5551 17.2416C25.5491 17.2416 25.5442 17.2416 25.5393 17.2416C25.5343 17.2416 25.5284 17.2416 25.5235 17.2416C25.5185 17.2416 25.5136 17.2416 25.5077 17.2416C25.5027 17.2416 25.4978 17.2416 25.4929 17.2416C25.487 17.2416 25.482 17.2416 25.4771 17.2416C25.4712 17.2416 25.4662 17.2416 25.4613 17.2416C25.4563 17.2416 25.4504 17.2416 25.4455 17.2416C25.4396 17.2416 25.4346 17.2416 25.4297 17.2416C25.4238 17.2416 25.4188 17.2416 25.4139 17.2416C25.408 17.2416 25.403 17.2416 25.3981 17.2416C25.3922 17.2416 25.3873 17.2416 25.3813 17.2416C25.3764 17.2416 25.3705 17.2416 25.3655 17.2416C25.3606 17.2416 25.3547 17.2416 25.3497 17.2416C25.3438 17.2416 25.3389 17.2416 25.333 17.2416C25.328 17.2416 25.3221 17.2416 25.3172 17.2416C25.3112 17.2416 25.3063 17.2416 25.3004 17.2416C25.2955 17.2416 25.2895 17.2416 25.2846 17.2416C25.2787 17.2416 25.2737 17.2416 25.2678 17.2416C25.2629 17.2416 25.257 17.2416 25.252 17.2416C25.2461 17.2416 25.2402 17.2416 25.2352 17.2416C25.2293 17.2416 25.2244 17.2416 25.2184 17.2416C25.2135 17.2416 25.2076 17.2416 25.2017 17.2416C25.1967 17.2416 25.1908 17.2416 25.1859 17.2416C25.18 17.2416 25.174 17.2416 25.1691 17.2416C25.1632 17.2416 25.1573 17.2416 25.1523 17.2416C25.1464 17.2416 25.1405 17.2416 25.1355 17.2416C25.1296 17.2416 25.1237 17.2416 25.1188 17.2416C25.1128 17.2416 25.1069 17.2416 25.102 17.2416C25.0961 17.2416 25.0901 17.2416 25.0842 17.2416C25.0793 17.2416 25.0733 17.2416 25.0674 17.2416C25.0625 17.2416 25.0566 17.2416 25.0506 17.2416C25.0447 17.2416 25.0398 17.2416 25.0339 17.2416C25.0279 17.2416 25.022 17.2416 25.0161 17.2416C25.0112 17.2416 25.0053 17.2416 24.9993 17.2416C24.9934 17.2416 24.9875 17.2416 24.9825 17.2416C24.9766 17.2416 24.9707 17.2416 24.9648 17.2416C24.9589 17.2416 24.9539 17.2416 24.948 17.2416C24.9421 17.2416 24.9361 17.2416 24.9302 17.2416C24.9243 17.2416 24.9184 17.2416 24.9134 17.2416C24.9075 17.2416 24.9016 17.2416 24.8957 17.2416C24.8898 17.2416 24.8838 17.2416 24.8779 17.2416C24.872 17.2416 24.867 17.2416 24.8611 17.2416C24.8552 17.2416 24.8493 17.2416 24.8434 17.2416C24.8374 17.2416 24.8315 17.2416 24.8256 17.2416C24.8197 17.2416 24.8138 17.2416 24.8078 17.2416C24.8019 17.2416 24.796 17.2416 24.7901 17.2416C24.7841 17.2416 24.7782 17.2416 24.7733 17.2416C24.7674 17.2416 24.7614 17.2416 24.7555 17.2416C24.7496 17.2416 24.7437 17.2416 24.7377 17.2416C24.7318 17.2416 24.7259 17.2416 24.72 17.2416C24.7141 17.2416 24.7081 17.2416 24.7022 17.2416C24.6963 17.2416 24.6894 17.2416 24.6835 17.2416C24.6775 17.2416 24.6716 17.2416 24.6657 17.2416C24.6598 17.2416 24.6538 17.2416 24.6479 17.2416C24.642 17.2416 24.6361 17.2416 24.6301 17.2416C24.6242 17.2416 24.6183 17.2416 24.6124 17.2416C24.6065 17.2416 24.6005 17.2416 24.5936 17.2416C24.5877 17.2416 24.5818 17.2416 24.5759 17.2416C24.5699 17.2416 24.564 17.2416 24.5581 17.2416C24.5522 17.2416 24.5462 17.2416 24.5393 17.2416C24.5334 17.2416 24.5275 17.2416 24.5216 17.2416C24.5156 17.2416 24.5097 17.2416 24.5038 17.2416C24.4979 17.2416 24.491 17.2416 24.485 17.2416C24.4791 17.2416 24.4732 17.2416 24.4673 17.2416C24.4614 17.2416 24.4544 17.2416 24.4485 17.2416C24.4426 17.2416 24.4367 17.2416 24.4308 17.2416C24.4238 17.2416 24.4179 17.2416 24.412 17.2416C24.4061 17.2416 24.4001 17.2416 24.3932 17.2416C24.3873 17.2416 24.3814 17.2416 24.3755 17.2416C24.3696 17.2416 24.3627 17.2416 24.3567 17.2416C24.3508 17.2416 24.3449 17.2416 24.338 17.2416C24.332 17.2416 24.3261 17.2416 24.3202 17.2416C24.3133 17.2416 24.3074 17.2416 24.3015 17.2416C24.2955 17.2416 24.2886 17.2416 24.2827 17.2416C24.2768 17.2416 24.2708 17.2416 24.2639 17.2416C24.258 17.2416 24.2521 17.2416 24.2462 17.2416C24.2393 17.2416 24.2333 17.2416 24.2274 17.2416C24.2205 17.2416 24.2146 17.2416 24.2087 17.2416C24.2027 17.2416 24.1958 17.2416 24.1899 17.2416C24.184 17.2416 24.1771 17.2416 24.1712 17.2416C24.1652 17.2416 24.1583 17.2416 24.1524 17.2416C24.1465 17.2416 24.1396 17.2416 24.1336 17.2416C24.1277 17.2416 24.1208 17.2416 24.1149 17.2416C24.109 17.2416 24.1021 17.2416 24.0961 17.2416C24.0902 17.2416 24.0833 17.2416 24.0774 17.2416C24.0715 17.2416 24.0645 17.2416 24.0586 17.2416C24.0527 17.2416 24.0458 17.2416 24.0399 17.2416C24.0339 17.2416 24.027 17.2416 24.0211 17.2416C24.0142 17.2416 24.0083 17.2416 24.0024 17.2416C23.9954 17.2416 23.9895 17.2416 23.9836 17.2416C23.9767 17.2416 23.9708 17.2416 23.9639 17.2416C23.9579 17.2416 23.952 17.2416 23.9451 17.2416C23.9392 17.2416 23.9323 17.2416 23.9264 17.2416C23.9204 17.2416 23.9135 17.2416 23.9076 17.2416C23.9007 17.2416 23.8948 17.2416 23.8888 17.2416C23.8819 17.2416 23.876 17.2416 23.8691 17.2416C23.8632 17.2416 23.8563 17.2416 23.8503 17.2416C23.8444 17.2416 23.8375 17.2416 23.8316 17.2416C23.8247 17.2416 23.8188 17.2416 23.8118 17.2416C23.8059 17.2416 23.8 17.2416 23.7931 17.2416C23.7872 17.2416 23.7803 17.2416 23.7743 17.2416C23.7674 17.2416 23.7615 17.2416 23.7546 17.2416C23.7487 17.2416 23.7427 17.2416 23.7358 17.2416C23.7299 17.2416 23.723 17.2416 23.7171 17.2416C23.7102 17.2416 23.7043 17.2416 23.6973 17.2416C23.6914 17.2416 23.6845 17.2416 23.6786 17.2416C23.6727 17.2416 23.6658 17.2416 23.6598 17.2416C23.6529 17.2416 23.647 17.2416 23.6401 17.2416C23.6342 17.2416 23.6273 17.2416 23.6213 17.2416C23.6144 17.2416 23.6085 17.2416 23.6016 17.2416C23.5957 17.2416 23.5888 17.2416 23.5828 17.2416C23.5759 17.2416 23.57 17.2416 23.5631 17.2416C23.5572 17.2416 23.5503 17.2416 23.5443 17.2416C23.5384 17.2416 23.5315 17.2416 23.5256 17.2416C23.5187 17.2416 23.5128 17.2416 23.5059 17.2416C23.4999 17.2416 23.493 17.2416 23.4871 17.2416C23.4802 17.2416 23.4743 17.2416 23.4674 17.2416C23.4614 17.2416 23.4545 17.2416 23.4486 17.2416C23.4417 17.2416 23.4358 17.2416 23.4289 17.2416C23.4229 17.2416 23.416 17.2416 23.4101 17.2416C23.4032 17.2416 23.3973 17.2416 23.3904 17.2416C23.3844 17.2416 23.3775 17.2416 23.3716 17.2416C23.3647 17.2416 23.3588 17.2416 23.3519 17.2416C23.3459 17.2416 23.339 17.2416 23.3331 17.2416C23.3262 17.2416 23.3193 17.2416 23.3134 17.2416C23.3065 17.2416 23.3005 17.2416 23.2936 17.2416C23.2877 17.2416 23.2808 17.2416 23.2749 17.2416C23.268 17.2416 23.262 17.2416 23.2551 17.2416C23.2492 17.2416 23.2423 17.2416 23.2364 17.2416C23.2295 17.2416 23.2235 17.2416 23.2166 17.2416C23.2107 17.2416 23.2038 17.2416 23.1979 17.2416C23.191 17.2416 23.185 17.2416 23.1781 17.2416C23.1722 17.2416 23.1653 17.2416 23.1594 17.2416C23.1525 17.2416 23.1465 17.2416 23.1396 17.2416C23.1337 17.2416 23.1268 17.2416 23.1209 17.2416C23.114 17.2416 23.108 17.2416 23.1011 17.2416C23.0952 17.2416 23.0883 17.2416 23.0824 17.2416C23.0755 17.2416 23.0686 17.2416 23.0626 17.2416C23.0557 17.2416 23.0498 17.2416 23.0429 17.2416C23.037 17.2416 23.0301 17.2416 23.0241 17.2416C23.0172 17.2416 23.0113 17.2416 23.0044 17.2416C22.9985 17.2416 22.9916 17.2416 22.9856 17.2416C22.9787 17.2416 22.9728 17.2416 22.9659 17.2416C22.96 17.2416 22.9531 17.2416 22.9471 17.2416C22.9402 17.2416 22.9343 17.2416 22.9274 17.2416C22.9215 17.2416 22.9146 17.2416 22.9086 17.2416C22.9017 17.2416 22.8958 17.2416 22.8889 17.2416C22.883 17.2416 22.8761 17.2416 22.8702 17.2416C22.8632 17.2416 22.8573 17.2416 22.8504 17.2416C22.8445 17.2416 22.8376 17.2416 22.8317 17.2416C22.8247 17.2416 22.8188 17.2416 22.8119 17.2416C22.806 17.2416 22.8001 17.2416 22.7932 17.2416C22.7872 17.2416 22.7803 17.2416 22.7744 17.2416C22.7675 17.2416 22.7616 17.2416 22.7547 17.2416C22.7487 17.2416 22.7418 17.2416 22.7359 17.2416C22.729 17.2416 22.7231 17.2416 22.7162 17.2416C22.7102 17.2416 22.7033 17.2416 22.6974 17.2416C22.6905 17.2416 22.6846 17.2416 22.6787 17.2416C22.6717 17.2416 22.6658 17.2416 22.6589 17.2416C22.653 17.2416 22.6461 17.2416 22.6402 17.2416C22.6332 17.2416 22.6273 17.2416 22.6204 17.2416C22.6145 17.2416 22.6086 17.2416 22.6017 17.2416C22.5957 17.2416 22.5888 17.2416 22.5829 17.2416C22.576 17.2416 22.5701 17.2416 22.5632 17.2416C22.5573 17.2416 22.5513 17.2416 22.5444 17.2416C22.5385 17.2416 22.5316 17.2416 22.5257 17.2416C22.5197 17.2416 22.5128 17.2416 22.5069 17.2416C22.5 17.2416 22.4941 17.2416 22.4872 17.2416C22.4812 17.2416 22.4753 17.2416 22.4684 17.2416C22.4625 17.2416 22.4556 17.2416 22.4497 17.2416C22.4437 17.2416 22.4368 17.2416 22.4309 17.2416C22.424 17.2416 22.4181 17.2416 22.4121 17.2416C22.4052 17.2416 22.3993 17.2416 22.3924 17.2416C22.3865 17.2416 22.3806 17.2416 22.3737 17.2416C22.3677 17.2416 22.3618 17.2416 22.3549 17.2416C22.349 17.2416 22.3421 17.2416 22.3361 17.2416C22.3302 17.2416 22.3233 17.2416 22.3174 17.2416C22.3115 17.2416 22.3045 17.2416 22.2986 17.2416C22.2927 17.2416 22.2858 17.2416 22.2799 17.2416C22.274 17.2416 22.267 17.2416 22.2611 17.2416C22.2552 17.2416 22.2483 17.2416 22.2424 17.2416C22.2364 17.2416 22.2295 17.2416 22.2236 17.2416C22.2177 17.2416 22.2108 17.2416 22.2049 17.2416C22.1989 17.2416 22.192 17.2416 22.1861 17.2416C22.1802 17.2416 22.1733 17.2416 22.1673 17.2416C22.1614 17.2416 22.1555 17.2416 22.1486 17.2416C22.1427 17.2416 22.1367 17.2416 22.1298 17.2416C22.1239 17.2416 22.118 17.2416 22.1121 17.2416C22.1052 17.2416 22.0992 17.2416 22.0933 17.2416C22.0864 17.2416 22.0805 17.2416 22.0746 17.2416C22.0686 17.2416 22.0617 17.2416 22.0558 17.2416C22.0499 17.2416 22.044 17.2416 22.037 17.2416C22.0311 17.2416 22.0252 17.2416 22.0193 17.2416C22.0134 17.2416 22.0064 17.2416 22.0005 17.2416C21.9946 17.2416 21.9887 17.2416 21.9818 17.2416C21.9758 17.2416 21.9699 17.2416 21.964 17.2416C21.9581 17.2416 21.9512 17.2416 21.9452 17.2416C21.9393 17.2416 21.9334 17.2416 21.9275 17.2416C21.9215 17.2416 21.9146 17.2416 21.9087 17.2416C21.9028 17.2416 21.8969 17.2416 21.891 17.2416C21.885 17.2416 21.8781 17.2416 21.8722 17.2416C21.8663 17.2416 21.8604 17.2416 21.8544 17.2416C21.8485 17.2416 21.8426 17.2416 21.8357 17.2416C21.8298 17.2416 21.8238 17.2416 21.8179 17.2416C21.812 17.2416 21.8061 17.2416 21.8001 17.2416C21.7942 17.2416 21.7883 17.2416 21.7814 17.2416C21.7755 17.2416 21.7695 17.2416 21.7636 17.2416C21.7577 17.2416 21.7518 17.2416 21.7459 17.2416C21.7399 17.2416 21.734 17.2416 21.7281 17.2416C21.7222 17.2416 21.7162 17.2416 21.7103 17.2416C21.7044 17.2416 21.6985 17.2416 21.6916 17.2416C21.6856 17.2416 21.6797 17.2416 21.6738 17.2416C21.6679 17.2416 21.6619 17.2416 21.656 17.2416C21.6501 17.2416 21.6442 17.2416 21.6383 17.2416C21.6323 17.2416 21.6264 17.2416 21.6205 17.2416C21.6146 17.2416 21.6086 17.2416 21.6027 17.2416C21.5968 17.2416 21.5909 17.2416 21.5849 17.2416C21.58 17.2416 21.5741 17.2416 21.5682 17.2416C21.5622 17.2416 21.5563 17.2416 21.5504 17.2416C21.5445 17.2416 21.5386 17.2416 21.5326 17.2416C21.5267 17.2416 21.5208 17.2416 21.5149 17.2416C21.5089 17.2416 21.503 17.2416 21.4981 17.2416C21.4922 17.2416 21.4863 17.2416 21.4803 17.2416C21.4744 17.2416 21.4685 17.2416 21.4626 17.2416C21.4566 17.2416 21.4517 17.2416 21.4458 17.2416C21.4399 17.2416 21.4339 17.2416 21.428 17.2416C21.4221 17.2416 21.4171 17.2416 21.4112 17.2416C21.4053 17.2416 21.3994 17.2416 21.3935 17.2416C21.3875 17.2416 21.3826 17.2416 21.3767 17.2416C21.3708 17.2416 21.3648 17.2416 21.3589 17.2416C21.354 17.2416 21.3481 17.2416 21.3421 17.2416C21.3362 17.2416 21.3313 17.2416 21.3254 17.2416C21.3194 17.2416 21.3135 17.2416 21.3086 17.2416C21.3026 17.2416 21.2967 17.2416 21.2908 17.2416C21.2859 17.2416 21.2799 17.2416 21.274 17.2416C21.2691 17.2416 21.2632 17.2416 21.2572 17.2416C21.2523 17.2416 21.2464 17.2416 21.2405 17.2416C21.2355 17.2416 21.2296 17.2416 21.2237 17.2416C21.2187 17.2416 21.2128 17.2416 21.2069 17.2416C21.202 17.2416 21.196 17.2416 21.1901 17.2416C21.1852 17.2416 21.1793 17.2416 21.1743 17.2416C21.1684 17.2416 21.1625 17.2416 21.1575 17.2416C21.1516 17.2416 21.1467 17.2416 21.1408 17.2416C21.1348 17.2416 21.1299 17.2416 21.124 17.2416C21.119 17.2416 21.1131 17.2416 21.1082 17.2416C21.1023 17.2416 21.0973 17.2416 21.0914 17.2416C21.0865 17.2416 21.0806 17.2416 21.0756 17.2416C21.0697 17.2416 21.0648 17.2416 21.0588 17.2416C21.0539 17.2416 21.048 17.2416 21.043 17.2416C21.0371 17.2416 21.0322 17.2416 21.0263 17.2416C21.0213 17.2416 21.0154 17.2416 21.0105 17.2416C21.0046 17.2416 20.9996 17.2416 20.9947 17.2416C20.9888 17.2416 20.9838 17.2416 20.9779 17.2416C20.973 17.2416 20.968 17.2416 20.9621 17.2416C20.9572 17.2416 20.9512 17.2416 20.9463 17.2416C20.9414 17.2416 20.9354 17.2416 20.9305 17.2416C20.9256 17.2416 20.9197 17.2416 20.9147 17.2416C20.9098 17.2416 20.9039 17.2416 20.8989 17.2416C20.894 17.2416 20.889 17.2416 20.8831 17.2416C20.8782 17.2416 20.8733 17.2416 20.8673 17.2416C20.8624 17.2416 20.8575 17.2416 20.8525 17.2416C20.8466 17.2416 20.8417 17.2416 20.8367 17.2416C20.8318 17.2416 20.8259 17.2416 20.8209 17.2416C20.816 17.2416 20.8111 17.2416 20.8061 17.2416C20.8012 17.2416 20.7953 17.2416 20.7903 17.2416C20.7854 17.2416 20.7805 17.2416 20.7755 17.2416C20.7706 17.2416 20.7647 17.2416 20.7597 17.2416C20.7548 17.2416 20.7499 17.2416 20.7449 17.2416C20.74 17.2416 20.7351 17.2416 20.7301 17.2416C20.7252 17.2416 20.7203 17.2416 20.7143 17.2416C20.7094 17.2416 20.7045 17.2416 20.6995 17.2416C20.6946 17.2416 20.6897 17.2416 20.6847 17.2416C20.6798 17.2416 20.6749 17.2416 20.6699 17.2416C20.665 17.2416 20.6601 17.2416 20.6551 17.2416C20.6502 17.2416 20.6452 17.2416 20.6403 17.2416C20.6354 17.2416 20.6304 17.2416 20.6255 17.2416C20.6215 17.2416 20.6166 17.2416 20.6117 17.2416C20.6067 17.2416 20.6018 17.2416 20.5969 17.2416C20.5919 17.2416 20.587 17.2416 20.5821 17.2416C20.5771 17.2416 20.5732 17.2416 20.5682 17.2416C20.5633 17.2416 20.5584 17.2416 20.5534 17.2416C20.5485 17.2416 20.5446 17.2416 20.5396 17.2416C20.5347 17.2416 20.5298 17.2416 20.5248 17.2416C20.5209 17.2416 20.5159 17.2416 20.511 17.2416C20.5061 17.2416 20.5021 17.2416 20.4972 17.2416C20.4922 17.2416 20.4873 17.2416 20.4834 17.2416C20.4784 17.2416 20.4735 17.2416 20.4695 17.2416C20.4646 17.2416 20.4597 17.2416 20.4557 17.2416C20.4508 17.2416 20.4459 17.2416 20.4419 17.2416C20.437 17.2416 20.432 17.2416 20.4281 17.2416C20.4231 17.2416 20.4192 17.2416 20.4143 17.2416C20.4093 17.2416 20.4054 17.2416 20.4004 17.2416C20.3965 17.2416 20.3916 17.2416 20.3876 17.2416C20.3827 17.2416 20.3787 17.2416 20.3738 17.2416C20.3698 17.2416 20.3649 17.2416 20.361 17.2416C20.356 17.2416 20.3521 17.2416 20.3471 17.2416C20.3432 17.2416 20.3382 17.2416 20.3343 17.2416C20.3294 17.2416 20.3254 17.2416 20.3205 17.2416C20.3165 17.2416 20.3126 17.2416 20.3077 17.2416C20.3037 17.2416 20.2988 17.2416 20.2948 17.2416C20.2909 17.2416 20.2859 17.2416 20.282 17.2416C20.278 17.2416 20.2731 17.2416 20.2692 17.2416C20.2652 17.2416 20.2603 17.2416 20.2563 17.2416C20.2524 17.2416 20.2484 17.2416 20.2435 17.2416C20.2395 17.2416 20.2356 17.2416 20.2317 17.2416C20.2267 17.2416 20.2228 17.2416 20.2188 17.2416C20.2149 17.2416 20.2099 17.2416 20.206 17.2416C20.202 17.2416 20.1981 17.2416 20.1941 17.2416C20.1902 17.2416 20.1852 17.2416 20.1813 17.2416C20.1774 17.2416 20.1734 17.2416 20.1695 17.2416C20.1655 17.2416 20.1616 17.2416 20.1576 17.2416C20.1537 17.2416 20.1497 17.2416 20.1448 17.2416C20.1408 17.2416 20.1369 17.2416 20.1329 17.2416C20.129 17.2416 20.125 17.2416 20.1211 17.2416C20.1172 17.2416 20.1132 17.2416 20.1092 17.2416C20.1053 17.2416 20.1013 17.2416 20.0984 17.2416C20.0944 17.2416 20.0905 17.2416 20.0865 17.2416C20.0826 17.2416 20.0786 17.2416 20.0747 17.2416C20.0707 17.2416 20.0668 17.2416 20.0629 17.2416C20.0599 17.2416 20.0559 17.2416 20.052 17.2416C20.048 17.2416 20.0441 17.2416 20.0411 17.2416C20.0372 17.2416 20.0332 17.2416 20.0293 17.2416C20.0253 17.2416 20.0224 17.2416 20.0184 17.2416C20.0145 17.2416 20.0105 17.2416 20.0076 17.2416C20.0036 17.2416 19.9997 17.2416 19.9967 17.2416C19.9928 17.2416 19.9888 17.2416 19.9859 17.2416C19.9819 17.2416 19.978 17.2416 19.975 17.2416C19.9711 17.2416 19.9671 17.2416 19.9641 17.2416C19.9602 17.2416 19.9572 17.2416 19.9533 17.2416C19.9503 17.2416 19.9464 17.2416 19.9424 17.2416C19.9395 17.2416 19.9355 17.2416 19.9326 17.2416C19.9286 17.2416 19.9256 17.2416 19.9217 17.2416C19.9187 17.2416 19.9158 17.2416 19.9118 17.2416C19.9089 17.2416 19.9049 17.2416 19.902 17.2416C19.898 17.2416 19.895 17.2416 19.8921 17.2416C19.8881 17.2416 19.8852 17.2416 19.8822 17.2416C19.8783 17.2416 19.8753 17.2416 19.8724 17.2416C19.8684 17.2416 19.8654 17.2416 19.8625 17.2416C19.8585 17.2416 19.8556 17.2416 19.8526 17.2416C19.8496 17.2416 19.8457 17.2416 19.8427 17.2416C19.8398 17.2416 19.8368 17.2416 19.8329 17.2416C19.8299 17.2416 19.8269 17.2416 19.824 17.2416C19.821 17.2416 19.8181 17.2416 19.8141 17.2416C19.8111 17.2416 19.8082 17.2416 19.8052 17.2416C19.8023 17.2416 19.7993 17.2416 19.7963 17.2416C19.7934 17.2416 19.7904 17.2416 19.7874 17.2416C19.7845 17.2416 19.7815 17.2416 19.7786 17.2416C19.7756 17.2416 19.7727 17.2416 19.7697 17.2416C19.7667 17.2416 19.7638 17.2416 19.7608 17.2416C19.7578 17.2416 19.7549 17.2416 19.7519 17.2416C19.749 17.2416 19.746 17.2416 19.743 17.2416C19.7411 17.2416 19.7381 17.2416 19.7351 17.2416C19.7322 17.2416 19.7292 17.2416 19.7263 17.2416C19.7243 17.2416 19.7213 17.2416 19.7184 17.2416C19.7154 17.2416 19.7124 17.2416 19.7105 17.2416C19.7075 17.2416 19.7045 17.2416 19.7026 17.2416C19.6996 17.2416 19.6966 17.2416 19.6947 17.2416C19.6917 17.2416 19.6887 17.2416 19.6868 17.2416C19.6838 17.2416 19.6808 17.2416 19.6789 17.2416C19.6759 17.2416 19.6739 17.2416 19.671 17.2416C19.668 17.2416 19.666 17.2416 19.6631 17.2416C19.6611 17.2416 19.6581 17.2416 19.6562 17.2416C19.6532 17.2416 19.6512 17.2416 19.6483 17.2416C19.6463 17.2416 19.6433 17.2416 19.6414 17.2416C19.6394 17.2416 19.6364 17.2416 19.6344 17.2416C19.6315 17.2416 19.6295 17.2416 19.6276 17.2416C19.6246 17.2416 19.6226 17.2416 19.6206 17.2416C19.6177 17.2416 19.6157 17.2416 19.6137 17.2416C19.6108 17.2416 19.6088 17.2416 19.6068 17.2416C19.6048 17.2416 19.6019 17.2416 19.5999 17.2416C19.5979 17.2416 19.596 17.2416 19.594 17.2416C19.591 17.2416 19.5891 17.2416 19.5871 17.2416C19.5851 17.2416 19.5831 17.2416 19.5811 17.2416C19.5792 17.2416 19.5772 17.2416 19.5752 17.2416C19.5733 17.2416 19.5703 17.2416 19.5683 17.2416C19.5663 17.2416 19.5644 17.2416 19.5624 17.2416C19.5604 17.2416 19.5584 17.2416 19.5565 17.2416C19.5555 17.2416 19.5535 17.2416 19.5515 17.2416C19.5496 17.2416 19.5476 17.2416 19.5456 17.2416C19.5436 17.2416 19.5417 17.2416 19.5397 17.2416C19.5387 17.2416 19.5367 17.2416 19.5348 17.2416C19.5328 17.2416 19.5308 17.2416 19.5298 17.2416C19.5279 17.2416 19.5259 17.2416 19.5239 17.2416C19.5229 17.2416 19.5209 17.2416 19.519 17.2416C19.517 17.2416 19.516 17.2416 19.514 17.2416C19.5121 17.2416 19.5111 17.2416 19.5091 17.2416C19.5081 17.2416 19.5061 17.2416 19.5042 17.2416C19.5032 17.2416 19.5012 17.2416 19.5002 17.2416C19.4982 17.2416 19.4973 17.2416 19.4953 17.2416C19.4943 17.2416 19.4923 17.2416 19.4913 17.2416C19.4894 17.2416 19.4884 17.2416 19.4864 17.2416C19.4854 17.2416 19.4844 17.2416 19.4824 17.2416C19.4815 17.2416 19.4795 17.2416 19.4785 17.2416C19.4775 17.2416 19.4755 17.2416 19.4746 17.2416C19.4736 17.2416 19.4726 17.2416 19.4706 17.2416C19.4696 17.2416 19.4686 17.2416 19.4676 17.2416C19.4657 17.2416 19.4647 17.2416 19.4637 17.2416C19.4627 17.2416 19.4617 17.2416 19.4597 17.2416C19.4587 17.2416 19.4578 17.2416 19.4568 17.2416C19.4558 17.2416 19.4548 17.2416 19.4538 17.2416C19.4528 17.2416 19.4518 17.2416 19.4509 17.2416C19.4499 17.2416 19.4489 17.2416 19.4479 17.2416C19.4469 17.2416 19.4459 17.2416 19.4449 17.2416C19.4439 17.2416 19.443 17.2416 19.442 17.2416C19.441 17.2416 19.44 17.2416 19.439 17.2416C19.439 17.2416 19.438 17.2416 19.437 17.2416C19.436 17.2416 19.4351 17.2416 19.4351 17.2416C19.4341 17.2416 19.4331 17.2416 19.4321 17.2416C19.4321 17.2416 19.4311 17.2416 19.4301 17.2416C19.4291 17.2416 19.4291 17.2416 19.4281 17.2416C19.4281 17.2416 19.4272 17.2416 19.4262 17.2416C19.4252 17.2416 19.4232 17.2416 19.4232 17.2416C19.4222 17.2416 19.4222 17.2416 19.4212 17.2416H19.4203H19.4193C19.4183 17.2416 19.4173 17.2416 19.4173 17.2416H19.4153C19.4153 17.2416 19.4143 17.2416 19.4133 17.2416C19.4133 17.2416 19.4133 17.2416 19.4133 20.1949C19.4133 23.1481 19.4133 23.1481 19.4133 23.1481C19.4143 23.1481 19.4143 23.1481 19.4143 23.1481H19.4163C19.4163 23.1481 19.4173 23.1481 19.4183 23.1481H19.4203H19.4212C19.4222 23.1481 19.4222 23.1481 19.4232 23.1481C19.4232 23.1481 19.4242 23.1481 19.4252 23.1481C19.4262 23.1481 19.4281 23.1481 19.4281 23.1481C19.4291 23.1481 19.4291 23.1481 19.4301 23.1481C19.4311 23.1481 19.4321 23.1481 19.4321 23.1481C19.4331 23.1481 19.4341 23.1481 19.4351 23.1481C19.4351 23.1481 19.436 23.1481 19.437 23.1481C19.438 23.1481 19.439 23.1481 19.439 23.1481C19.44 23.1481 19.441 23.1481 19.442 23.1481C19.443 23.1481 19.4439 23.1481 19.4449 23.1481C19.4459 23.1481 19.4469 23.1481 19.4479 23.1481C19.4489 23.1481 19.4499 23.1481 19.4509 23.1481C19.4518 23.1481 19.4528 23.1481 19.4538 23.1481C19.4548 23.1481 19.4558 23.1481 19.4568 23.1481C19.4578 23.1481 19.4587 23.1481 19.4597 23.1481C19.4617 23.1481 19.4627 23.1481 19.4637 23.1481C19.4647 23.1481 19.4657 23.1481 19.4676 23.1481C19.4686 23.1481 19.4696 23.1481 19.4706 23.1481C19.4726 23.1481 19.4736 23.1481 19.4746 23.1481C19.4755 23.1481 19.4775 23.1481 19.4785 23.1481C19.4795 23.1481 19.4815 23.1481 19.4824 23.1481C19.4844 23.1481 19.4854 23.1481 19.4864 23.1481C19.4884 23.1481 19.4894 23.1481 19.4913 23.1481C19.4923 23.1481 19.4943 23.1481 19.4953 23.1481C19.4973 23.1481 19.4982 23.1481 19.5002 23.1481C19.5012 23.1481 19.5032 23.1481 19.5042 23.1481C19.5061 23.1481 19.5081 23.1481 19.5091 23.1481C19.5111 23.1481 19.5121 23.1481 19.514 23.1481C19.516 23.1481 19.517 23.1481 19.519 23.1481C19.5209 23.1481 19.5229 23.1481 19.5239 23.1481C19.5259 23.1481 19.5279 23.1481 19.5298 23.1481C19.5308 23.1481 19.5328 23.1481 19.5348 23.1481C19.5367 23.1481 19.5387 23.1481 19.5397 23.1481C19.5417 23.1481 19.5436 23.1481 19.5456 23.1481C19.5476 23.1481 19.5496 23.1481 19.5515 23.1481C19.5535 23.1481 19.5555 23.1481 19.5565 23.1481C19.5584 23.1481 19.5604 23.1481 19.5624 23.1481C19.5644 23.1481 19.5663 23.1481 19.5683 23.1481C19.5703 23.1481 19.5733 23.1481 19.5752 23.1481C19.5772 23.1481 19.5792 23.1481 19.5811 23.1481C19.5831 23.1481 19.5851 23.1481 19.5871 23.1481C19.5891 23.1481 19.591 23.1481 19.594 23.1481C19.596 23.1481 19.5979 23.1481 19.5999 23.1481C19.6019 23.1481 19.6048 23.1481 19.6068 23.1481C19.6088 23.1481 19.6108 23.1481 19.6137 23.1481C19.6157 23.1481 19.6177 23.1481 19.6206 23.1481C19.6226 23.1481 19.6246 23.1481 19.6276 23.1481C19.6295 23.1481 19.6315 23.1481 19.6344 23.1481C19.6364 23.1481 19.6394 23.1481 19.6414 23.1481C19.6433 23.1481 19.6463 23.1481 19.6483 23.1481C19.6512 23.1481 19.6532 23.1481 19.6562 23.1481C19.6581 23.1481 19.6611 23.1481 19.6631 23.1481C19.666 23.1481 19.668 23.1481 19.671 23.1481C19.6739 23.1481 19.6759 23.1481 19.6789 23.1481C19.6808 23.1481 19.6838 23.1481 19.6868 23.1481C19.6887 23.1481 19.6917 23.1481 19.6947 23.1481C19.6966 23.1481 19.6996 23.1481 19.7026 23.1481C19.7045 23.1481 19.7075 23.1481 19.7105 23.1481C19.7124 23.1481 19.7154 23.1481 19.7184 23.1481C19.7213 23.1481 19.7243 23.1481 19.7263 23.1481C19.7292 23.1481 19.7322 23.1481 19.7351 23.1481C19.7381 23.1481 19.7411 23.1481 19.743 23.1481C19.746 23.1481 19.749 23.1481 19.7519 23.1481C19.7549 23.1481 19.7578 23.1481 19.7608 23.1481C19.7638 23.1481 19.7667 23.1481 19.7697 23.1481C19.7727 23.1481 19.7756 23.1481 19.7786 23.1481C19.7815 23.1481 19.7845 23.1481 19.7874 23.1481C19.7904 23.1481 19.7934 23.1481 19.7963 23.1481C19.7993 23.1481 19.8023 23.1481 19.8052 23.1481C19.8082 23.1481 19.8111 23.1481 19.8141 23.1481C19.8181 23.1481 19.821 23.1481 19.824 23.1481C19.8269 23.1481 19.8299 23.1481 19.8329 23.1481C19.8368 23.1481 19.8398 23.1481 19.8427 23.1481C19.8457 23.1481 19.8496 23.1481 19.8526 23.1481C19.8556 23.1481 19.8585 23.1481 19.8625 23.1481C19.8654 23.1481 19.8684 23.1481 19.8724 23.1481C19.8753 23.1481 19.8783 23.1481 19.8822 23.1481C19.8852 23.1481 19.8881 23.1481 19.8921 23.1481C19.895 23.1481 19.898 23.1481 19.902 23.1481C19.9049 23.1481 19.9089 23.1481 19.9118 23.1481C19.9158 23.1481 19.9187 23.1481 19.9217 23.1481C19.9256 23.1481 19.9286 23.1481 19.9326 23.1481C19.9355 23.1481 19.9395 23.1481 19.9424 23.1481C19.9464 23.1481 19.9503 23.1481 19.9533 23.1481C19.9572 23.1481 19.9602 23.1481 19.9641 23.1481C19.9671 23.1481 19.9711 23.1481 19.975 23.1481C19.978 23.1481 19.9819 23.1481 19.9859 23.1481C19.9888 23.1481 19.9928 23.1481 19.9967 23.1481C19.9997 23.1481 20.0036 23.1481 20.0076 23.1481C20.0105 23.1481 20.0145 23.1481 20.0184 23.1481C20.0224 23.1481 20.0253 23.1481 20.0293 23.1481C20.0332 23.1481 20.0372 23.1481 20.0411 23.1481C20.0441 23.1481 20.048 23.1481 20.052 23.1481C20.0559 23.1481 20.0599 23.1481 20.0629 23.1481C20.0668 23.1481 20.0707 23.1481 20.0747 23.1481C20.0786 23.1481 20.0826 23.1481 20.0865 23.1481C20.0905 23.1481 20.0944 23.1481 20.0984 23.1481C20.1013 23.1481 20.1053 23.1481 20.1092 23.1481C20.1132 23.1481 20.1172 23.1481 20.1211 23.1481C20.125 23.1481 20.129 23.1481 20.1329 23.1481C20.1369 23.1481 20.1408 23.1481 20.1448 23.1481C20.1497 23.1481 20.1537 23.1481 20.1576 23.1481C20.1616 23.1481 20.1655 23.1481 20.1695 23.1481C20.1734 23.1481 20.1774 23.1481 20.1813 23.1481C20.1852 23.1481 20.1902 23.1481 20.1941 23.1481C20.1981 23.1481 20.202 23.1481 20.206 23.1481C20.2099 23.1481 20.2149 23.1481 20.2188 23.1481C20.2228 23.1481 20.2267 23.1481 20.2317 23.1481C20.2356 23.1481 20.2395 23.1481 20.2435 23.1481C20.2484 23.1481 20.2524 23.1481 20.2563 23.1481C20.2603 23.1481 20.2652 23.1481 20.2692 23.1481C20.2731 23.1481 20.278 23.1481 20.282 23.1481C20.2859 23.1481 20.2909 23.1481 20.2948 23.1481C20.2988 23.1481 20.3037 23.1481 20.3077 23.1481C20.3126 23.1481 20.3165 23.1481 20.3205 23.1481C20.3254 23.1481 20.3294 23.1481 20.3343 23.1481C20.3382 23.1481 20.3432 23.1481 20.3471 23.1481C20.3521 23.1481 20.356 23.1481 20.361 23.1481C20.3649 23.1481 20.3698 23.1481 20.3738 23.1481C20.3787 23.1481 20.3827 23.1481 20.3876 23.1481C20.3916 23.1481 20.3965 23.1481 20.4004 23.1481C20.4054 23.1481 20.4093 23.1481 20.4143 23.1481C20.4192 23.1481 20.4231 23.1481 20.4281 23.1481C20.432 23.1481 20.437 23.1481 20.4419 23.1481C20.4459 23.1481 20.4508 23.1481 20.4557 23.1481C20.4597 23.1481 20.4646 23.1481 20.4695 23.1481C20.4735 23.1481 20.4784 23.1481 20.4834 23.1481C20.4873 23.1481 20.4922 23.1481 20.4972 23.1481C20.5021 23.1481 20.5061 23.1481 20.511 23.1481C20.5159 23.1481 20.5209 23.1481 20.5248 23.1481C20.5298 23.1481 20.5347 23.1481 20.5396 23.1481C20.5446 23.1481 20.5485 23.1481 20.5534 23.1481C20.5584 23.1481 20.5633 23.1481 20.5682 23.1481C20.5732 23.1481 20.5771 23.1481 20.5821 23.1481C20.587 23.1481 20.5919 23.1481 20.5969 23.1481C20.6018 23.1481 20.6067 23.1481 20.6117 23.1481C20.6166 23.1481 20.6215 23.1481 20.6255 23.1481C20.6304 23.1481 20.6354 23.1481 20.6403 23.1481C20.6452 23.1481 20.6502 23.1481 20.6551 23.1481C20.6601 23.1481 20.665 23.1481 20.6699 23.1481C20.6749 23.1481 20.6798 23.1481 20.6847 23.1481C20.6897 23.1481 20.6946 23.1481 20.6995 23.1481C20.7045 23.1481 20.7094 23.1481 20.7143 23.1481C20.7203 23.1481 20.7252 23.1481 20.7301 23.1481C20.7351 23.1481 20.74 23.1481 20.7449 23.1481C20.7499 23.1481 20.7548 23.1481 20.7597 23.1481C20.7647 23.1481 20.7706 23.1481 20.7755 23.1481C20.7805 23.1481 20.7854 23.1481 20.7903 23.1481C20.7953 23.1481 20.8012 23.1481 20.8061 23.1481C20.8111 23.1481 20.816 23.1481 20.8209 23.1481C20.8259 23.1481 20.8318 23.1481 20.8367 23.1481C20.8417 23.1481 20.8466 23.1481 20.8525 23.1481C20.8575 23.1481 20.8624 23.1481 20.8673 23.1481C20.8733 23.1481 20.8782 23.1481 20.8831 23.1481C20.889 23.1481 20.894 23.1481 20.8989 23.1481C20.9039 23.1481 20.9098 23.1481 20.9147 23.1481C20.9197 23.1481 20.9256 23.1481 20.9305 23.1481C20.9354 23.1481 20.9414 23.1481 20.9463 23.1481C20.9512 23.1481 20.9572 23.1481 20.9621 23.1481C20.968 23.1481 20.973 23.1481 20.9779 23.1481C20.9838 23.1481 20.9888 23.1481 20.9947 23.1481C20.9996 23.1481 21.0046 23.1481 21.0105 23.1481C21.0154 23.1481 21.0213 23.1481 21.0263 23.1481C21.0322 23.1481 21.0371 23.1481 21.043 23.1481C21.048 23.1481 21.0539 23.1481 21.0588 23.1481C21.0648 23.1481 21.0697 23.1481 21.0756 23.1481C21.0806 23.1481 21.0865 23.1481 21.0914 23.1481C21.0973 23.1481 21.1023 23.1481 21.1082 23.1481C21.1131 23.1481 21.119 23.1481 21.124 23.1481C21.1299 23.1481 21.1348 23.1481 21.1408 23.1481C21.1467 23.1481 21.1516 23.1481 21.1575 23.1481C21.1625 23.1481 21.1684 23.1481 21.1743 23.1481C21.1793 23.1481 21.1852 23.1481 21.1901 23.1481C21.196 23.1481 21.202 23.1481 21.2069 23.1481C21.2128 23.1481 21.2187 23.1481 21.2237 23.1481C21.2296 23.1481 21.2355 23.1481 21.2405 23.1481C21.2464 23.1481 21.2523 23.1481 21.2572 23.1481C21.2632 23.1481 21.2691 23.1481 21.274 23.1481C21.2799 23.1481 21.2859 23.1481 21.2908 23.1481C21.2967 23.1481 21.3026 23.1481 21.3086 23.1481C21.3135 23.1481 21.3194 23.1481 21.3254 23.1481C21.3313 23.1481 21.3362 23.1481 21.3421 23.1481C21.3481 23.1481 21.354 23.1481 21.3589 23.1481C21.3648 23.1481 21.3708 23.1481 21.3767 23.1481C21.3826 23.1481 21.3875 23.1481 21.3935 23.1481C21.3994 23.1481 21.4053 23.1481 21.4112 23.1481C21.4171 23.1481 21.4221 23.1481 21.428 23.1481C21.4339 23.1481 21.4399 23.1481 21.4458 23.1481C21.4517 23.1481 21.4566 23.1481 21.4626 23.1481C21.4685 23.1481 21.4744 23.1481 21.4803 23.1481C21.4863 23.1481 21.4922 23.1481 21.4981 23.1481C21.503 23.1481 21.5089 23.1481 21.5149 23.1481C21.5208 23.1481 21.5267 23.1481 21.5326 23.1481C21.5386 23.1481 21.5445 23.1481 21.5504 23.1481C21.5563 23.1481 21.5622 23.1481 21.5682 23.1481C21.5741 23.1481 21.58 23.1481 21.5849 23.1481C21.5909 23.1481 21.5968 23.1481 21.6027 23.1481C21.6086 23.1481 21.6146 23.1481 21.6205 23.1481C21.6264 23.1481 21.6323 23.1481 21.6383 23.1481C21.6442 23.1481 21.6501 23.1481 21.656 23.1481C21.6619 23.1481 21.6679 23.1481 21.6738 23.1481C21.6797 23.1481 21.6856 23.1481 21.6916 23.1481C21.6985 23.1481 21.7044 23.1481 21.7103 23.1481C21.7162 23.1481 21.7222 23.1481 21.7281 23.1481C21.734 23.1481 21.7399 23.1481 21.7459 23.1481C21.7518 23.1481 21.7577 23.1481 21.7636 23.1481C21.7695 23.1481 21.7755 23.1481 21.7814 23.1481C21.7883 23.1481 21.7942 23.1481 21.8001 23.1481C21.8061 23.1481 21.812 23.1481 21.8179 23.1481C21.8238 23.1481 21.8298 23.1481 21.8357 23.1481C21.8426 23.1481 21.8485 23.1481 21.8544 23.1481C21.8604 23.1481 21.8663 23.1481 21.8722 23.1481C21.8781 23.1481 21.885 23.1481 21.891 23.1481C21.8969 23.1481 21.9028 23.1481 21.9087 23.1481C21.9146 23.1481 21.9215 23.1481 21.9275 23.1481C21.9334 23.1481 21.9393 23.1481 21.9452 23.1481C21.9512 23.1481 21.9581 23.1481 21.964 23.1481C21.9699 23.1481 21.9758 23.1481 21.9818 23.1481C21.9887 23.1481 21.9946 23.1481 22.0005 23.1481C22.0064 23.1481 22.0134 23.1481 22.0193 23.1481C22.0252 23.1481 22.0311 23.1481 22.037 23.1481C22.044 23.1481 22.0499 23.1481 22.0558 23.1481C22.0617 23.1481 22.0686 23.1481 22.0746 23.1481C22.0805 23.1481 22.0864 23.1481 22.0933 23.1481C22.0992 23.1481 22.1052 23.1481 22.1121 23.1481C22.118 23.1481 22.1239 23.1481 22.1298 23.1481C22.1367 23.1481 22.1427 23.1481 22.1486 23.1481C22.1555 23.1481 22.1614 23.1481 22.1673 23.1481C22.1733 23.1481 22.1802 23.1481 22.1861 23.1481C22.192 23.1481 22.1989 23.1481 22.2049 23.1481C22.2108 23.1481 22.2177 23.1481 22.2236 23.1481C22.2295 23.1481 22.2364 23.1481 22.2424 23.1481C22.2483 23.1481 22.2552 23.1481 22.2611 23.1481C22.267 23.1481 22.274 23.1481 22.2799 23.1481C22.2858 23.1481 22.2927 23.1481 22.2986 23.1481C22.3045 23.1481 22.3115 23.1481 22.3174 23.1481C22.3233 23.1481 22.3302 23.1481 22.3361 23.1481C22.3421 23.1481 22.349 23.1481 22.3549 23.1481C22.3618 23.1481 22.3677 23.1481 22.3737 23.1481C22.3806 23.1481 22.3865 23.1481 22.3924 23.1481C22.3993 23.1481 22.4052 23.1481 22.4121 23.1481C22.4181 23.1481 22.424 23.1481 22.4309 23.1481C22.4368 23.1481 22.4437 23.1481 22.4497 23.1481C22.4556 23.1481 22.4625 23.1481 22.4684 23.1481C22.4753 23.1481 22.4812 23.1481 22.4872 23.1481C22.4941 23.1481 22.5 23.1481 22.5069 23.1481C22.5128 23.1481 22.5197 23.1481 22.5257 23.1481C22.5316 23.1481 22.5385 23.1481 22.5444 23.1481C22.5513 23.1481 22.5573 23.1481 22.5632 23.1481C22.5701 23.1481 22.576 23.1481 22.5829 23.1481C22.5888 23.1481 22.5957 23.1481 22.6017 23.1481C22.6086 23.1481 22.6145 23.1481 22.6204 23.1481C22.6273 23.1481 22.6332 23.1481 22.6402 23.1481C22.6461 23.1481 22.653 23.1481 22.6589 23.1481C22.6658 23.1481 22.6717 23.1481 22.6787 23.1481C22.6846 23.1481 22.6905 23.1481 22.6974 23.1481C22.7033 23.1481 22.7102 23.1481 22.7162 23.1481C22.7231 23.1481 22.729 23.1481 22.7359 23.1481C22.7418 23.1481 22.7487 23.1481 22.7547 23.1481C22.7616 23.1481 22.7675 23.1481 22.7744 23.1481C22.7803 23.1481 22.7872 23.1481 22.7932 23.1481C22.8001 23.1481 22.806 23.1481 22.8119 23.1481C22.8188 23.1481 22.8247 23.1481 22.8317 23.1481C22.8376 23.1481 22.8445 23.1481 22.8504 23.1481C22.8573 23.1481 22.8632 23.1481 22.8702 23.1481C22.8761 23.1481 22.883 23.1481 22.8889 23.1481C22.8958 23.1481 22.9017 23.1481 22.9086 23.1481C22.9146 23.1481 22.9215 23.1481 22.9274 23.1481C22.9343 23.1481 22.9402 23.1481 22.9471 23.1481C22.9531 23.1481 22.96 23.1481 22.9659 23.1481C22.9728 23.1481 22.9787 23.1481 22.9856 23.1481C22.9916 23.1481 22.9985 23.1481 23.0044 23.1481C23.0113 23.1481 23.0172 23.1481 23.0241 23.1481C23.0301 23.1481 23.037 23.1481 23.0429 23.1481C23.0498 23.1481 23.0557 23.1481 23.0626 23.1481C23.0686 23.1481 23.0755 23.1481 23.0824 23.1481C23.0883 23.1481 23.0952 23.1481 23.1011 23.1481C23.108 23.1481 23.114 23.1481 23.1209 23.1481C23.1268 23.1481 23.1337 23.1481 23.1396 23.1481C23.1465 23.1481 23.1525 23.1481 23.1594 23.1481C23.1653 23.1481 23.1722 23.1481 23.1781 23.1481C23.185 23.1481 23.191 23.1481 23.1979 23.1481C23.2038 23.1481 23.2107 23.1481 23.2166 23.1481C23.2235 23.1481 23.2295 23.1481 23.2364 23.1481C23.2423 23.1481 23.2492 23.1481 23.2551 23.1481C23.262 23.1481 23.268 23.1481 23.2749 23.1481C23.2808 23.1481 23.2877 23.1481 23.2936 23.1481C23.3005 23.1481 23.3065 23.1481 23.3134 23.1481C23.3193 23.1481 23.3262 23.1481 23.3331 23.1481C23.339 23.1481 23.3459 23.1481 23.3519 23.1481C23.3588 23.1481 23.3647 23.1481 23.3716 23.1481C23.3775 23.1481 23.3844 23.1481 23.3904 23.1481C23.3973 23.1481 23.4032 23.1481 23.4101 23.1481C23.416 23.1481 23.4229 23.1481 23.4289 23.1481C23.4358 23.1481 23.4417 23.1481 23.4486 23.1481C23.4545 23.1481 23.4614 23.1481 23.4674 23.1481C23.4743 23.1481 23.4802 23.1481 23.4871 23.1481C23.493 23.1481 23.4999 23.1481 23.5059 23.1481C23.5128 23.1481 23.5187 23.1481 23.5256 23.1481C23.5315 23.1481 23.5384 23.1481 23.5443 23.1481C23.5503 23.1481 23.5572 23.1481 23.5631 23.1481C23.57 23.1481 23.5759 23.1481 23.5828 23.1481C23.5888 23.1481 23.5957 23.1481 23.6016 23.1481C23.6085 23.1481 23.6144 23.1481 23.6213 23.1481C23.6273 23.1481 23.6342 23.1481 23.6401 23.1481C23.647 23.1481 23.6529 23.1481 23.6598 23.1481C23.6658 23.1481 23.6727 23.1481 23.6786 23.1481C23.6845 23.1481 23.6914 23.1481 23.6973 23.1481C23.7043 23.1481 23.7102 23.1481 23.7171 23.1481C23.723 23.1481 23.7299 23.1481 23.7358 23.1481C23.7427 23.1481 23.7487 23.1481 23.7546 23.1481C23.7615 23.1481 23.7674 23.1481 23.7743 23.1481C23.7803 23.1481 23.7872 23.1481 23.7931 23.1481C23.8 23.1481 23.8059 23.1481 23.8118 23.1481C23.8188 23.1481 23.8247 23.1481 23.8316 23.1481C23.8375 23.1481 23.8444 23.1481 23.8503 23.1481C23.8563 23.1481 23.8632 23.1481 23.8691 23.1481C23.876 23.1481 23.8819 23.1481 23.8888 23.1481C23.8948 23.1481 23.9007 23.1481 23.9076 23.1481C23.9135 23.1481 23.9204 23.1481 23.9264 23.1481C23.9323 23.1481 23.9392 23.1481 23.9451 23.1481C23.952 23.1481 23.9579 23.1481 23.9639 23.1481C23.9708 23.1481 23.9767 23.1481 23.9836 23.1481C23.9895 23.1481 23.9954 23.1481 24.0024 23.1481C24.0083 23.1481 24.0142 23.1481 24.0211 23.1481C24.027 23.1481 24.0339 23.1481 24.0399 23.1481C24.0458 23.1481 24.0527 23.1481 24.0586 23.1481C24.0645 23.1481 24.0715 23.1481 24.0774 23.1481C24.0833 23.1481 24.0902 23.1481 24.0961 23.1481C24.1021 23.1481 24.109 23.1481 24.1149 23.1481C24.1208 23.1481 24.1277 23.1481 24.1336 23.1481C24.1396 23.1481 24.1465 23.1481 24.1524 23.1481C24.1583 23.1481 24.1652 23.1481 24.1712 23.1481C24.1771 23.1481 24.184 23.1481 24.1899 23.1481C24.1958 23.1481 24.2027 23.1481 24.2087 23.1481C24.2146 23.1481 24.2205 23.1481 24.2274 23.1481C24.2333 23.1481 24.2393 23.1481 24.2462 23.1481C24.2521 23.1481 24.258 23.1481 24.2639 23.1481C24.2708 23.1481 24.2768 23.1481 24.2827 23.1481C24.2886 23.1481 24.2955 23.1481 24.3015 23.1481C24.3074 23.1481 24.3133 23.1481 24.3202 23.1481C24.3261 23.1481 24.332 23.1481 24.338 23.1481C24.3449 23.1481 24.3508 23.1481 24.3567 23.1481C24.3627 23.1481 24.3696 23.1481 24.3755 23.1481C24.3814 23.1481 24.3873 23.1481 24.3932 23.1481C24.4001 23.1481 24.4061 23.1481 24.412 23.1481C24.4179 23.1481 24.4238 23.1481 24.4308 23.1481C24.4367 23.1481 24.4426 23.1481 24.4485 23.1481C24.4544 23.1481 24.4614 23.1481 24.4673 23.1481C24.4732 23.1481 24.4791 23.1481 24.485 23.1481C24.491 23.1481 24.4979 23.1481 24.5038 23.1481C24.5097 23.1481 24.5156 23.1481 24.5216 23.1481C24.5275 23.1481 24.5334 23.1481 24.5393 23.1481C24.5462 23.1481 24.5522 23.1481 24.5581 23.1481C24.564 23.1481 24.5699 23.1481 24.5759 23.1481C24.5818 23.1481 24.5877 23.1481 24.5936 23.1481C24.6005 23.1481 24.6065 23.1481 24.6124 23.1481C24.6183 23.1481 24.6242 23.1481 24.6301 23.1481C24.6361 23.1481 24.642 23.1481 24.6479 23.1481C24.6538 23.1481 24.6598 23.1481 24.6657 23.1481C24.6716 23.1481 24.6775 23.1481 24.6835 23.1481C24.6894 23.1481 24.6963 23.1481 24.7022 23.1481C24.7081 23.1481 24.7141 23.1481 24.72 23.1481C24.7259 23.1481 24.7318 23.1481 24.7377 23.1481C24.7437 23.1481 24.7496 23.1481 24.7555 23.1481C24.7614 23.1481 24.7674 23.1481 24.7733 23.1481C24.7782 23.1481 24.7841 23.1481 24.7901 23.1481C24.796 23.1481 24.8019 23.1481 24.8078 23.1481C24.8138 23.1481 24.8197 23.1481 24.8256 23.1481C24.8315 23.1481 24.8374 23.1481 24.8434 23.1481C24.8493 23.1481 24.8552 23.1481 24.8611 23.1481C24.867 23.1481 24.872 23.1481 24.8779 23.1481C24.8838 23.1481 24.8898 23.1481 24.8957 23.1481C24.9016 23.1481 24.9075 23.1481 24.9134 23.1481C24.9184 23.1481 24.9243 23.1481 24.9302 23.1481C24.9361 23.1481 24.9421 23.1481 24.948 23.1481C24.9539 23.1481 24.9589 23.1481 24.9648 23.1481C24.9707 23.1481 24.9766 23.1481 24.9825 23.1481C24.9875 23.1481 24.9934 23.1481 24.9993 23.1481C25.0053 23.1481 25.0112 23.1481 25.0161 23.1481C25.022 23.1481 25.0279 23.1481 25.0339 23.1481C25.0398 23.1481 25.0447 23.1481 25.0506 23.1481C25.0566 23.1481 25.0625 23.1481 25.0674 23.1481C25.0733 23.1481 25.0793 23.1481 25.0842 23.1481C25.0901 23.1481 25.0961 23.1481 25.102 23.1481C25.1069 23.1481 25.1128 23.1481 25.1188 23.1481C25.1237 23.1481 25.1296 23.1481 25.1355 23.1481C25.1405 23.1481 25.1464 23.1481 25.1523 23.1481C25.1573 23.1481 25.1632 23.1481 25.1691 23.1481C25.174 23.1481 25.18 23.1481 25.1859 23.1481C25.1908 23.1481 25.1967 23.1481 25.2017 23.1481C25.2076 23.1481 25.2135 23.1481 25.2184 23.1481C25.2244 23.1481 25.2293 23.1481 25.2352 23.1481C25.2402 23.1481 25.2461 23.1481 25.252 23.1481C25.257 23.1481 25.2629 23.1481 25.2678 23.1481C25.2737 23.1481 25.2787 23.1481 25.2846 23.1481C25.2895 23.1481 25.2955 23.1481 25.3004 23.1481C25.3063 23.1481 25.3112 23.1481 25.3172 23.1481C25.3221 23.1481 25.328 23.1481 25.333 23.1481C25.3389 23.1481 25.3438 23.1481 25.3497 23.1481C25.3547 23.1481 25.3606 23.1481 25.3655 23.1481C25.3705 23.1481 25.3764 23.1481 25.3813 23.1481C25.3873 23.1481 25.3922 23.1481 25.3981 23.1481C25.403 23.1481 25.408 23.1481 25.4139 23.1481C25.4188 23.1481 25.4238 23.1481 25.4297 23.1481C25.4346 23.1481 25.4396 23.1481 25.4455 23.1481C25.4504 23.1481 25.4563 23.1481 25.4613 23.1481C25.4662 23.1481 25.4712 23.1481 25.4771 23.1481C25.482 23.1481 25.487 23.1481 25.4929 23.1481C25.4978 23.1481 25.5027 23.1481 25.5077 23.1481C25.5136 23.1481 25.5185 23.1481 25.5235 23.1481C25.5284 23.1481 25.5343 23.1481 25.5393 23.1481C25.5442 23.1481 25.5491 23.1481 25.5551 23.1481C25.56 23.1481 25.5649 23.1481 25.5699 23.1481C25.5748 23.1481 25.5807 23.1481 25.5857 23.1481C25.5906 23.1481 25.5955 23.1481 25.6005 23.1481C25.6054 23.1481 25.6103 23.1481 25.6163 23.1481C25.6212 23.1481 25.6261 23.1481 25.6311 23.1481C25.636 23.1481 25.6409 23.1481 25.6459 23.1481C25.6508 23.1481 25.6557 23.1481 25.6607 23.1481C25.6656 23.1481 25.6715 23.1481 25.6765 23.1481C25.6814 23.1481 25.6863 23.1481 25.6913 23.1481C25.6962 23.1481 25.7011 23.1481 25.7061 23.1481C25.711 23.1481 25.7159 23.1481 25.7209 23.1481C25.7258 23.1481 25.7308 23.1481 25.7357 23.1481C25.7406 23.1481 25.7446 23.1481 25.7495 23.1481C25.7545 23.1481 25.7594 23.1481 25.7643 23.1481C25.7693 23.1481 25.7742 23.1481 25.7791 23.1481C25.7841 23.1481 25.789 23.1481 25.7939 23.1481C25.7979 23.1481 25.8028 23.1481 25.8077 23.1481C25.8127 23.1481 25.8176 23.1481 25.8226 23.1481C25.8265 23.1481 25.8314 23.1481 25.8364 23.1481C25.8413 23.1481 25.8463 23.1481 25.8502 23.1481C25.8551 23.1481 25.8601 23.1481 25.865 23.1481C25.869 23.1481 25.8739 23.1481 25.8788 23.1481C25.8838 23.1481 25.8877 23.1481 25.8927 23.1481C25.8976 23.1481 25.9015 23.1481 25.9065 23.1481C25.9114 23.1481 25.9163 23.1481 25.9203 23.1481C25.9252 23.1481 25.9292 23.1481 25.9341 23.1481C25.939 23.1481 25.943 23.1481 25.9479 23.1481C25.9529 23.1481 25.9568 23.1481 25.9617 23.1481C25.9657 23.1481 25.9706 23.1481 25.9756 23.1481C25.9795 23.1481 25.9845 23.1481 25.9884 23.1481C25.9933 23.1481 25.9973 23.1481 26.0022 23.1481C26.0062 23.1481 26.0111 23.1481 26.015 23.1481C26.02 23.1481 26.0239 23.1481 26.0289 23.1481C26.0328 23.1481 26.0378 23.1481 26.0417 23.1481C26.0466 23.1481 26.0506 23.1481 26.0545 23.1481C26.0595 23.1481 26.0634 23.1481 26.0683 23.1481C26.0723 23.1481 26.0762 23.1481 26.0812 23.1481C26.0851 23.1481 26.0891 23.1481 26.094 23.1481C26.098 23.1481 26.1019 23.1481 26.1068 23.1481C26.1108 23.1481 26.1147 23.1481 26.1197 23.1481C26.1236 23.1481 26.1276 23.1481 26.1325 23.1481C26.1365 23.1481 26.1404 23.1481 26.1443 23.1481C26.1493 23.1481 26.1532 23.1481 26.1572 23.1481C26.1611 23.1481 26.1651 23.1481 26.17 23.1481C26.174 23.1481 26.1779 23.1481 26.1819 23.1481C26.1858 23.1481 26.1898 23.1481 26.1937 23.1481C26.1986 23.1481 26.2026 23.1481 26.2065 23.1481C26.2105 23.1481 26.2144 23.1481 26.2184 23.1481C26.2223 23.1481 26.2263 23.1481 26.2302 23.1481C26.2342 23.1481 26.2381 23.1481 26.2421 23.1481C26.246 23.1481 26.25 23.1481 26.2539 23.1481C26.2579 23.1481 26.2618 23.1481 26.2658 23.1481C26.2697 23.1481 26.2737 23.1481 26.2776 23.1481C26.2816 23.1481 26.2855 23.1481 26.2895 23.1481C26.2934 23.1481 26.2973 23.1481 26.3013 23.1481C26.3052 23.1481 26.3082 23.1481 26.3122 23.1481C26.3161 23.1481 26.3201 23.1481 26.324 23.1481C26.328 23.1481 26.3309 23.1481 26.3349 23.1481C26.3388 23.1481 26.3428 23.1481 26.3467 23.1481C26.3497 23.1481 26.3536 23.1481 26.3576 23.1481C26.3615 23.1481 26.3645 23.1481 26.3684 23.1481C26.3724 23.1481 26.3753 23.1481 26.3793 23.1481C26.3832 23.1481 26.3862 23.1481 26.3901 23.1481C26.3941 23.1481 26.3971 23.1481 26.401 23.1481C26.405 23.1481 26.4079 23.1481 26.4119 23.1481C26.4148 23.1481 26.4188 23.1481 26.4227 23.1481C26.4257 23.1481 26.4296 23.1481 26.4326 23.1481C26.4365 23.1481 26.4395 23.1481 26.4434 23.1481C26.4464 23.1481 26.4504 23.1481 26.4533 23.1481C26.4573 23.1481 26.4602 23.1481 26.4642 23.1481C26.4671 23.1481 26.4711 23.1481 26.474 23.1481C26.477 23.1481 26.481 23.1481 26.4839 23.1481C26.4879 23.1481 26.4908 23.1481 26.4938 23.1481C26.4977 23.1481 26.5007 23.1481 26.5037 23.1481C26.5076 23.1481 26.5106 23.1481 26.5135 23.1481C26.5165 23.1481 26.5204 23.1481 26.5234 23.1481C26.5264 23.1481 26.5293 23.1481 26.5333 23.1481C26.5362 23.1481 26.5392 23.1481 26.5421 23.1481C26.5461 23.1481 26.5491 23.1481 26.552 23.1481C26.555 23.1481 26.5579 23.1481 26.5609 23.1481C26.5639 23.1481 26.5678 23.1481 26.5708 23.1481C26.5737 23.1481 26.5767 23.1481 26.5797 23.1481C26.5826 23.1481 26.5856 23.1481 26.5885 23.1481C26.5915 23.1481 26.5945 23.1481 26.5974 23.1481C26.6004 23.1481 26.6034 23.1481 26.6063 23.1481C26.6093 23.1481 26.6122 23.1481 26.6152 23.1481C26.6182 23.1481 26.6211 23.1481 26.6241 23.1481V17.2416Z" fill="#003169"/>
</g>
</g>
</g>
<defs>
<filter id="filter0_d_108_218" x="0.554932" y="0" width="45.4452" height="46.3291" filterUnits="userSpaceOnUse" color-interpolation-filters="sRGB">
<feFlood flood-opacity="0" result="BackgroundImageFix"/>
<feColorMatrix in="SourceAlpha" type="matrix" values="0 0 0 0 0 0 0 0 0 0 0 0 0 0 0 0 0 0 127 0" result="hardAlpha"/>
<feOffset dx="3" dy="4"/>
<feComposite in2="hardAlpha" operator="out"/>
<feColorMatrix type="matrix" values="0 0 0 0 0 0 0 0 0 0 0 0 0 0 0 0 0 0 0.2 0"/>
<feBlend mode="normal" in2="BackgroundImageFix" result="effect1_dropShadow_108_218"/>
<feBlend mode="normal" in="SourceGraphic" in2="effect1_dropShadow_108_218" result="shape"/>
</filter>
<filter id="filter1_d_108_218" x="8.94519" y="11.3206" width="31.6257" height="24.6724" filterUnits="userSpaceOnUse" color-interpolation-filters="sRGB">
<feFlood flood-opacity="0" result="BackgroundImageFix"/>
<feColorMatrix in="SourceAlpha" type="matrix" values="0 0 0 0 0 0 0 0 0 0 0 0 0 0 0 0 0 0 127 0" result="hardAlpha"/>
<feOffset dx="3" dy="4"/>
<feColorMatrix type="matrix" values="0 0 0 0 0 0 0 0 0 0 0 0 0 0 0 0 0 0 0.2 0"/>
<feBlend mode="normal" in2="BackgroundImageFix" result="effect1_dropShadow_108_218"/>
<feBlend mode="normal" in="SourceGraphic" in2="effect1_dropShadow_108_218" result="shape"/>
</filter>
</defs>
</svg>
