<svg width="524" height="305" viewBox="0 0 524 305" fill="none" xmlns="http://www.w3.org/2000/svg">
<path d="M276.079 111.319H1V121.952H276.079V111.319Z" fill="#523F37"/>
<path opacity="0.5" d="M276.079 116.636H1V121.954H276.079V116.636Z" fill="black"/>
<path opacity="0.1" d="M276.079 121.954H1V127.271H276.079V121.954Z" fill="black"/>
<mask id="mask0_177_837" style="mask-type:luminance" maskUnits="userSpaceOnUse" x="39" y="56" width="42" height="55">
<path d="M80.0337 110.354H39.4337L42.2134 56.2194H77.2555L80.0337 110.354Z" fill="white"/>
</mask>
<g mask="url(#mask0_177_837)">
<path d="M80.0337 110.354H39.4337L42.2134 56.2194H77.2555L80.0337 110.354Z" fill="#A88B60"/>
</g>
<mask id="mask1_177_837" style="mask-type:luminance" maskUnits="userSpaceOnUse" x="39" y="56" width="42" height="55">
<path d="M80.0337 110.354H39.4337L42.2134 56.2194H77.2555L80.0337 110.354Z" fill="white"/>
</mask>
<g mask="url(#mask1_177_837)">
<path opacity="0.1" d="M77.7863 58.0319H41.5972V61.6569H77.7863V58.0319Z" fill="black"/>
</g>
<mask id="mask2_177_837" style="mask-type:luminance" maskUnits="userSpaceOnUse" x="39" y="56" width="42" height="55">
<path d="M80.0337 110.354H39.4337L42.2134 56.2194H77.2555L80.0337 110.354Z" fill="white"/>
</mask>
<g mask="url(#mask2_177_837)">
<path d="M59.7352 94.0107C65.658 94.0107 70.4594 89.2093 70.4594 83.2865C70.4594 77.3637 65.658 72.5623 59.7352 72.5623C53.8124 72.5623 49.011 77.3637 49.011 83.2865C49.011 89.2093 53.8124 94.0107 59.7352 94.0107Z" fill="#1A1208"/>
</g>
<mask id="mask3_177_837" style="mask-type:luminance" maskUnits="userSpaceOnUse" x="39" y="56" width="42" height="55">
<path d="M80.0337 110.354H39.4337L42.2134 56.2194H77.2555L80.0337 110.354Z" fill="white"/>
</mask>
<g mask="url(#mask3_177_837)">
<path opacity="0.1" d="M89.6284 55.0115H59.7338V114.341H89.6284V55.0115Z" fill="black"/>
</g>
<path d="M78.8259 60.449H40.6431L40.8388 57.0256C40.8649 56.5732 41.239 56.2194 41.6929 56.2194H77.7776C78.2314 56.2194 78.6055 56.5732 78.6316 57.0256L78.8259 60.449Z" fill="#BA996A"/>
<path d="M61.5172 58.6974H57.9531C57.811 58.6974 57.6964 58.5828 57.6964 58.4407C57.6964 58.2986 57.811 58.1841 57.9531 58.1841H61.5172C61.6593 58.1841 61.7738 58.2986 61.7738 58.4407C61.7738 58.5814 61.6593 58.6974 61.5172 58.6974Z" fill="#1A1208"/>
<mask id="mask4_177_837" style="mask-type:luminance" maskUnits="userSpaceOnUse" x="146" y="56" width="42" height="55">
<path d="M187.334 110.354H146.734L149.513 56.2194H184.555L187.334 110.354Z" fill="white"/>
</mask>
<g mask="url(#mask4_177_837)">
<path d="M187.334 110.354H146.734L149.513 56.2194H184.555L187.334 110.354Z" fill="#A88B60"/>
</g>
<mask id="mask5_177_837" style="mask-type:luminance" maskUnits="userSpaceOnUse" x="146" y="56" width="42" height="55">
<path d="M187.334 110.354H146.734L149.513 56.2194H184.555L187.334 110.354Z" fill="white"/>
</mask>
<g mask="url(#mask5_177_837)">
<path opacity="0.1" d="M185.086 58.0319H148.897V61.6569H185.086V58.0319Z" fill="black"/>
</g>
<mask id="mask6_177_837" style="mask-type:luminance" maskUnits="userSpaceOnUse" x="146" y="56" width="42" height="55">
<path d="M187.334 110.354H146.734L149.513 56.2194H184.555L187.334 110.354Z" fill="white"/>
</mask>
<g mask="url(#mask6_177_837)">
<path d="M167.035 94.0107C172.958 94.0107 177.759 89.2093 177.759 83.2865C177.759 77.3637 172.958 72.5623 167.035 72.5623C161.112 72.5623 156.311 77.3637 156.311 83.2865C156.311 89.2093 161.112 94.0107 167.035 94.0107Z" fill="#1A1208"/>
</g>
<mask id="mask7_177_837" style="mask-type:luminance" maskUnits="userSpaceOnUse" x="146" y="56" width="42" height="55">
<path d="M187.334 110.354H146.734L149.513 56.2194H184.555L187.334 110.354Z" fill="white"/>
</mask>
<g mask="url(#mask7_177_837)">
<path opacity="0.1" d="M196.928 55.0115H167.034V114.341H196.928V55.0115Z" fill="black"/>
</g>
<path d="M186.126 60.449H147.943L148.139 57.0256C148.165 56.5732 148.539 56.2194 148.993 56.2194H185.077C185.531 56.2194 185.905 56.5732 185.932 57.0256L186.126 60.449Z" fill="#BA996A"/>
<path d="M168.817 58.6974H165.253C165.111 58.6974 164.996 58.5828 164.996 58.4407C164.996 58.2986 165.111 58.1841 165.253 58.1841H168.817C168.959 58.1841 169.074 58.2986 169.074 58.4407C169.074 58.5814 168.958 58.6974 168.817 58.6974Z" fill="#1A1208"/>
<mask id="mask8_177_837" style="mask-type:luminance" maskUnits="userSpaceOnUse" x="194" y="56" width="42" height="55">
<path d="M235.184 110.354H194.584L197.363 56.2194H232.406L235.184 110.354Z" fill="white"/>
</mask>
<g mask="url(#mask8_177_837)">
<path d="M235.184 110.354H194.584L197.363 56.2194H232.406L235.184 110.354Z" fill="#A88B60"/>
</g>
<mask id="mask9_177_837" style="mask-type:luminance" maskUnits="userSpaceOnUse" x="194" y="56" width="42" height="55">
<path d="M235.184 110.354H194.584L197.363 56.2194H232.406L235.184 110.354Z" fill="white"/>
</mask>
<g mask="url(#mask9_177_837)">
<path opacity="0.1" d="M232.936 58.0319H196.747V61.6569H232.936V58.0319Z" fill="black"/>
</g>
<mask id="mask10_177_837" style="mask-type:luminance" maskUnits="userSpaceOnUse" x="194" y="56" width="42" height="55">
<path d="M235.184 110.354H194.584L197.363 56.2194H232.406L235.184 110.354Z" fill="white"/>
</mask>
<g mask="url(#mask10_177_837)">
<path d="M214.885 94.0107C220.808 94.0107 225.609 89.2093 225.609 83.2865C225.609 77.3637 220.808 72.5623 214.885 72.5623C208.962 72.5623 204.161 77.3637 204.161 83.2865C204.161 89.2093 208.962 94.0107 214.885 94.0107Z" fill="#1A1208"/>
</g>
<mask id="mask11_177_837" style="mask-type:luminance" maskUnits="userSpaceOnUse" x="194" y="56" width="42" height="55">
<path d="M235.184 110.354H194.584L197.363 56.2194H232.406L235.184 110.354Z" fill="white"/>
</mask>
<g mask="url(#mask11_177_837)">
<path opacity="0.1" d="M244.778 55.0115H214.884V114.341H244.778V55.0115Z" fill="black"/>
</g>
<path d="M233.976 60.449H195.793L195.989 57.0256C196.015 56.5732 196.389 56.2194 196.843 56.2194H232.928C233.381 56.2194 233.756 56.5732 233.782 57.0256L233.976 60.449Z" fill="#BA996A"/>
<path d="M216.667 58.6974H213.103C212.961 58.6974 212.846 58.5828 212.846 58.4407C212.846 58.2986 212.961 58.1841 213.103 58.1841H216.667C216.809 58.1841 216.924 58.2986 216.924 58.4407C216.924 58.5814 216.808 58.6974 216.667 58.6974Z" fill="#1A1208"/>
<mask id="mask12_177_837" style="mask-type:luminance" maskUnits="userSpaceOnUse" x="88" y="43" width="52" height="68">
<path d="M139.213 110.353H88.7338L92.1891 43.0488H135.757L139.213 110.353Z" fill="white"/>
</mask>
<g mask="url(#mask12_177_837)">
<path d="M139.213 110.353H88.7338L92.1891 43.0488H135.757L139.213 110.353Z" fill="#A88B60"/>
</g>
<mask id="mask13_177_837" style="mask-type:luminance" maskUnits="userSpaceOnUse" x="88" y="43" width="52" height="68">
<path d="M139.213 110.353H88.7338L92.1891 43.0488H135.757L139.213 110.353Z" fill="white"/>
</mask>
<g mask="url(#mask13_177_837)">
<path opacity="0.1" d="M136.418 45.3021H91.4235V49.8087H136.418V45.3021Z" fill="black"/>
</g>
<mask id="mask14_177_837" style="mask-type:luminance" maskUnits="userSpaceOnUse" x="74" y="37" width="82" height="82">
<path d="M155.546 83.0897L119.478 118.404L74.8611 67.8967L105.991 37.4171L155.546 83.0897Z" fill="white"/>
</mask>
<g mask="url(#mask14_177_837)">
<path d="M123.296 86.2273C128.558 81.0759 128.647 72.6348 123.495 67.3735C118.344 62.1122 109.903 62.023 104.642 67.1744C99.3802 72.3258 99.2911 80.767 104.443 86.0283C109.594 91.2896 118.035 91.3787 123.296 86.2273Z" fill="#1A1208"/>
</g>
<mask id="mask15_177_837" style="mask-type:luminance" maskUnits="userSpaceOnUse" x="88" y="43" width="52" height="68">
<path d="M139.213 110.353H88.7338L92.1891 43.0488H135.757L139.213 110.353Z" fill="white"/>
</mask>
<g mask="url(#mask15_177_837)">
<path opacity="0.1" d="M151.14 41.5466H113.974V115.311H151.14V41.5466Z" fill="black"/>
</g>
<path d="M137.71 48.3065H90.2374L90.481 44.0507C90.5129 43.4881 90.9784 43.0488 91.5424 43.0488H136.407C136.971 43.0488 137.436 43.4881 137.468 44.0507L137.71 48.3065Z" fill="#BA996A"/>
<path d="M116.252 46.1286H111.695C111.552 46.1286 111.438 46.0141 111.438 45.872V45.7473C111.438 45.6052 111.552 45.4906 111.695 45.4906H116.252C116.394 45.4906 116.509 45.6052 116.509 45.7473V45.872C116.509 46.0141 116.394 46.1286 116.252 46.1286Z" fill="#1A1208"/>
<path d="M523.45 0H348V300.079H523.45V0Z" fill="#FDB859"/>
<path d="M431.358 9.63086H358.273V142.271H431.358V9.63086Z" fill="#F0F4FF"/>
<path d="M431.358 155.115H358.273V287.755H431.358V155.115Z" fill="#F0F4FF"/>
<path opacity="0.15" d="M431.358 155.115H358.273V160.396H431.358V155.115Z" fill="black"/>
<path d="M514.008 9.63086H440.923V142.271H514.008V9.63086Z" fill="#F0F4FF"/>
<path d="M514.008 155.115H440.923V287.755H514.008V155.115Z" fill="#F0F4FF"/>
<g opacity="0.75">
<path d="M422.262 58.4334L367.369 74.2022V67.4147L422.262 51.646V58.4334Z" fill="white"/>
<path d="M422.262 70.8092L367.369 86.5779V79.789L422.262 64.0203V70.8092Z" fill="white"/>
</g>
<g opacity="0.75">
<path d="M504.912 58.4334L450.019 74.2022V67.4147L504.912 51.646V58.4334Z" fill="white"/>
<path d="M504.912 70.8092L450.019 86.5779V79.789L504.912 64.0203V70.8092Z" fill="white"/>
</g>
<g opacity="0.75">
<path d="M422.262 196.566L367.369 212.335V205.548L422.262 189.779V196.566Z" fill="white"/>
<path d="M422.262 208.942L367.369 224.711V217.923L422.262 202.155V208.942Z" fill="white"/>
</g>
<g opacity="0.75">
<path d="M504.912 196.566L450.019 212.335V205.548L504.912 189.779V196.566Z" fill="white"/>
<path d="M504.912 208.942L450.019 224.711V217.923L504.912 202.155V208.942Z" fill="white"/>
</g>
<path opacity="0.15" d="M514.008 155.115H440.923V160.396H514.008V155.115Z" fill="black"/>
<path opacity="0.15" d="M431.358 285.64H358.273V287.754H431.358V285.64Z" fill="black"/>
<path opacity="0.15" d="M514.008 285.64H440.923V287.754H514.008V285.64Z" fill="black"/>
<path opacity="0.15" d="M523.45 300.263H348V304.745H523.45V300.263Z" fill="black"/>
<path opacity="0.15" d="M431.358 9.63086H358.273V14.9118H431.358V9.63086Z" fill="black"/>
<path opacity="0.15" d="M514.008 9.63086H440.923V14.9118H514.008V9.63086Z" fill="black"/>
<path opacity="0.03" d="M56.5414 243.872L51.8477 236.973C50.4717 234.95 47.7065 234.424 45.6838 235.8L42.8592 237.723L42.4387 237.105L42.5547 237.027C42.9157 236.782 43.0085 236.29 42.7635 235.93L42.7243 235.872C42.4793 235.511 41.9877 235.419 41.6281 235.664L25.1025 246.907C24.7414 247.152 24.6486 247.643 24.8937 248.003L24.9328 248.061C25.1779 248.422 25.6694 248.515 26.029 248.27L26.145 248.192L36.8953 263.994C37.5319 264.93 38.8079 265.173 39.7446 264.536L52.6467 255.759C53.5834 255.123 53.8255 253.847 53.189 252.91L52.5437 251.962L55.3698 250.039C57.3911 248.66 57.9174 245.895 56.5414 243.872ZM54.0749 248.134L51.2489 250.056L44.1526 239.625L46.9786 237.702C47.953 237.04 49.2841 237.293 49.9468 238.268L54.6404 245.167C55.3016 246.14 55.0493 247.471 54.0749 248.134Z" fill="black"/>
<path opacity="0.03" d="M101.325 243.872L96.6324 236.973C95.2563 234.95 92.4912 234.424 90.4684 235.8L87.6438 237.723L87.2233 237.105L87.3393 237.027C87.6989 236.782 87.7932 236.29 87.5481 235.93L87.509 235.872C87.2639 235.511 86.7724 235.419 86.4128 235.664L69.8871 246.907C69.5261 247.152 69.4333 247.643 69.6783 248.003L69.7175 248.061C69.9625 248.422 70.4526 248.515 70.8137 248.27L70.9297 248.192L81.68 263.994C82.3165 264.93 83.5925 265.173 84.5292 264.536L97.4313 255.759C98.368 255.123 98.6102 253.847 97.9736 252.91L97.3284 251.962L100.154 250.039C102.174 248.66 102.701 245.895 101.325 243.872ZM98.8581 248.134L96.0321 250.056L88.9358 239.625L91.7618 237.702C92.7362 237.04 94.0673 237.293 94.73 238.268L99.4236 245.167C100.086 246.14 99.8325 247.471 98.8581 248.134Z" fill="black"/>
<path opacity="0.03" d="M146.109 243.872L141.416 236.973C140.04 234.95 137.274 234.424 135.252 235.8L132.426 237.723L132.005 237.105L132.121 237.027C132.482 236.782 132.575 236.29 132.33 235.93L132.291 235.872C132.046 235.511 131.556 235.419 131.195 235.664L114.669 246.907C114.308 247.152 114.215 247.643 114.46 248.003L114.499 248.061C114.744 248.422 115.236 248.515 115.595 248.27L115.711 248.192L126.462 263.994C127.098 264.93 128.374 265.173 129.311 264.536L142.213 255.759C143.15 255.123 143.392 253.847 142.755 252.91L142.11 251.962L144.936 250.039C146.959 248.66 147.485 245.895 146.109 243.872ZM143.643 248.134L140.817 250.056L133.72 239.625L136.546 237.702C137.521 237.04 138.852 237.293 139.515 238.268L144.207 245.167C144.869 246.14 144.617 247.471 143.643 248.134Z" fill="black"/>
<path opacity="0.03" d="M190.892 243.872L186.199 236.973C184.823 234.95 182.058 234.424 180.035 235.8L177.21 237.723L176.79 237.105L176.906 237.027C177.265 236.782 177.36 236.29 177.115 235.93L177.075 235.872C176.83 235.511 176.339 235.419 175.979 235.664L159.454 246.907C159.092 247.152 159 247.643 159.245 248.003L159.284 248.061C159.529 248.422 160.02 248.515 160.38 248.27L160.496 248.192L171.246 263.994C171.883 264.93 173.159 265.173 174.096 264.536L186.998 255.759C187.934 255.123 188.177 253.847 187.54 252.91L186.895 251.962L189.721 250.039C191.742 248.66 192.268 245.895 190.892 243.872ZM188.426 248.134L185.6 250.056L178.504 239.625L181.33 237.702C182.304 237.04 183.635 237.293 184.298 238.268L188.991 245.167C189.653 246.14 189.4 247.471 188.426 248.134Z" fill="black"/>
<path opacity="0.03" d="M235.676 243.872L230.982 236.973C229.606 234.95 226.841 234.424 224.818 235.8L221.992 237.723L221.572 237.105L221.688 237.027C222.049 236.782 222.141 236.29 221.896 235.93L221.857 235.872C221.612 235.511 221.121 235.419 220.761 235.664L204.235 246.907C203.876 247.152 203.782 247.643 204.027 248.003L204.066 248.061C204.311 248.422 204.802 248.515 205.162 248.27L205.278 248.192L216.028 263.994C216.665 264.93 217.941 265.173 218.877 264.536L231.78 255.759C232.716 255.123 232.958 253.847 232.322 252.91L231.677 251.962L234.503 250.039C236.525 248.66 237.052 245.895 235.676 243.872ZM233.209 248.134L230.383 250.056L223.287 239.625L226.112 237.702C227.086 237.04 228.417 237.293 229.08 238.268L233.773 245.167C234.436 246.14 234.184 247.471 233.209 248.134Z" fill="black"/>
<path opacity="0.03" d="M275.079 219.64H0V224.957H275.079V219.64Z" fill="black"/>
<path d="M275.079 208.97H0V219.603H275.079V208.97Z" fill="#523F37"/>
<path opacity="0.5" d="M275.079 215.253H0V219.603H275.079V215.253Z" fill="black"/>
<mask id="mask16_177_837" style="mask-type:luminance" maskUnits="userSpaceOnUse" x="55" y="160" width="27" height="48">
<path d="M81.3871 160.743H55.2827V207.889H81.3871V160.743Z" fill="white"/>
</mask>
<g mask="url(#mask16_177_837)">
<path d="M81.3871 160.743H55.2827V207.889H81.3871V160.743Z" fill="#F0F2EE"/>
</g>
<mask id="mask17_177_837" style="mask-type:luminance" maskUnits="userSpaceOnUse" x="55" y="160" width="27" height="48">
<path d="M81.3871 160.743H55.2827V207.889H81.3871V160.743Z" fill="white"/>
</mask>
<g mask="url(#mask17_177_837)">
<path d="M68.3357 192.442C73.1294 192.442 77.0154 188.556 77.0154 183.762C77.0154 178.969 73.1294 175.083 68.3357 175.083C63.542 175.083 59.656 178.969 59.656 183.762C59.656 188.556 63.542 192.442 68.3357 192.442Z" fill="#1A1208"/>
<path d="M85.234 179.454H51.4359V188.07H85.234V179.454Z" fill="#1A1208"/>
</g>
<mask id="mask18_177_837" style="mask-type:luminance" maskUnits="userSpaceOnUse" x="55" y="160" width="27" height="48">
<path d="M81.3871 160.743H55.2827V207.889H81.3871V160.743Z" fill="white"/>
</mask>
<g mask="url(#mask18_177_837)">
<path opacity="0.1" d="M93.989 147.627H68.3022V212.439H93.989V147.627Z" fill="black"/>
</g>
<mask id="mask19_177_837" style="mask-type:luminance" maskUnits="userSpaceOnUse" x="55" y="160" width="27" height="48">
<path d="M81.3871 160.743H55.2827V207.889H81.3871V160.743Z" fill="white"/>
</mask>
<g mask="url(#mask19_177_837)">
<path opacity="0.1" d="M55.6685 165.47H83.9159V175.146C83.9159 175.146 81.0667 166.92 55.6685 165.47Z" fill="black"/>
</g>
<mask id="mask20_177_837" style="mask-type:luminance" maskUnits="userSpaceOnUse" x="54" y="158" width="29" height="9">
<path d="M80.2488 166.03H56.421C55.1537 166.03 54.1256 165.002 54.1256 163.735V160.532C54.1256 159.265 55.1537 158.236 56.421 158.236H80.2488C81.5161 158.236 82.5442 159.265 82.5442 160.532V163.735C82.5442 165.002 81.5176 166.03 80.2488 166.03Z" fill="white"/>
</mask>
<g mask="url(#mask20_177_837)">
<path d="M80.2488 166.03H56.421C55.1537 166.03 54.1256 165.002 54.1256 163.735V160.532C54.1256 159.265 55.1537 158.236 56.421 158.236H80.2488C81.5161 158.236 82.5442 159.265 82.5442 160.532V163.735C82.5442 165.002 81.5176 166.03 80.2488 166.03Z" fill="#F0F2EE"/>
</g>
<mask id="mask21_177_837" style="mask-type:luminance" maskUnits="userSpaceOnUse" x="54" y="158" width="29" height="9">
<path d="M80.2488 166.03H56.421C55.1537 166.03 54.1256 165.002 54.1256 163.735V160.532C54.1256 159.265 55.1537 158.236 56.421 158.236H80.2488C81.5161 158.236 82.5442 159.265 82.5442 160.532V163.735C82.5442 165.002 81.5176 166.03 80.2488 166.03Z" fill="white"/>
</mask>
<g mask="url(#mask21_177_837)">
<path d="M83.5736 159.65H53.2251V160.744H83.5736V159.65Z" fill="#1A1208"/>
</g>
<mask id="mask22_177_837" style="mask-type:luminance" maskUnits="userSpaceOnUse" x="54" y="158" width="29" height="9">
<path d="M80.2488 166.03H56.421C55.1537 166.03 54.1256 165.002 54.1256 163.735V160.532C54.1256 159.265 55.1537 158.236 56.421 158.236H80.2488C81.5161 158.236 82.5442 159.265 82.5442 160.532V163.735C82.5442 165.002 81.5176 166.03 80.2488 166.03Z" fill="white"/>
</mask>
<g mask="url(#mask22_177_837)">
<path d="M83.5736 162.93H53.2251V164.023H83.5736V162.93Z" fill="#1A1208"/>
</g>
<mask id="mask23_177_837" style="mask-type:luminance" maskUnits="userSpaceOnUse" x="54" y="158" width="29" height="9">
<path d="M80.2488 166.03H56.421C55.1537 166.03 54.1256 165.002 54.1256 163.735V160.532C54.1256 159.265 55.1537 158.236 56.421 158.236H80.2488C81.5161 158.236 82.5442 159.265 82.5442 160.532V163.735C82.5442 165.002 81.5176 166.03 80.2488 166.03Z" fill="white"/>
</mask>
<g mask="url(#mask23_177_837)">
<path opacity="0.1" d="M93.989 147.627H68.3022V212.439H93.989V147.627Z" fill="black"/>
</g>
<mask id="mask24_177_837" style="mask-type:luminance" maskUnits="userSpaceOnUse" x="54" y="201" width="29" height="9">
<path d="M80.2488 209.239H56.421C55.1537 209.239 54.1256 208.211 54.1256 206.943V203.742C54.1256 202.475 55.1537 201.446 56.421 201.446H80.2488C81.5161 201.446 82.5442 202.475 82.5442 203.742V206.943C82.5442 208.211 81.5176 209.239 80.2488 209.239Z" fill="white"/>
</mask>
<g mask="url(#mask24_177_837)">
<path d="M80.2488 209.239H56.421C55.1537 209.239 54.1256 208.211 54.1256 206.943V203.742C54.1256 202.475 55.1537 201.446 56.421 201.446H80.2488C81.5161 201.446 82.5442 202.475 82.5442 203.742V206.943C82.5442 208.211 81.5176 209.239 80.2488 209.239Z" fill="#F0F2EE"/>
</g>
<mask id="mask25_177_837" style="mask-type:luminance" maskUnits="userSpaceOnUse" x="54" y="201" width="29" height="9">
<path d="M80.2488 209.239H56.421C55.1537 209.239 54.1256 208.211 54.1256 206.943V203.742C54.1256 202.475 55.1537 201.446 56.421 201.446H80.2488C81.5161 201.446 82.5442 202.475 82.5442 203.742V206.943C82.5442 208.211 81.5176 209.239 80.2488 209.239Z" fill="white"/>
</mask>
<g mask="url(#mask25_177_837)">
<path d="M83.5736 203.156H53.2251V204.249H83.5736V203.156Z" fill="#1A1208"/>
</g>
<mask id="mask26_177_837" style="mask-type:luminance" maskUnits="userSpaceOnUse" x="54" y="201" width="29" height="9">
<path d="M80.2488 209.239H56.421C55.1537 209.239 54.1256 208.211 54.1256 206.943V203.742C54.1256 202.475 55.1537 201.446 56.421 201.446H80.2488C81.5161 201.446 82.5442 202.475 82.5442 203.742V206.943C82.5442 208.211 81.5176 209.239 80.2488 209.239Z" fill="white"/>
</mask>
<g mask="url(#mask26_177_837)">
<path d="M83.5736 206.434H53.2251V207.528H83.5736V206.434Z" fill="#1A1208"/>
</g>
<mask id="mask27_177_837" style="mask-type:luminance" maskUnits="userSpaceOnUse" x="54" y="201" width="29" height="9">
<path d="M80.2488 209.239H56.421C55.1537 209.239 54.1256 208.211 54.1256 206.943V203.742C54.1256 202.475 55.1537 201.446 56.421 201.446H80.2488C81.5161 201.446 82.5442 202.475 82.5442 203.742V206.943C82.5442 208.211 81.5176 209.239 80.2488 209.239Z" fill="white"/>
</mask>
<g mask="url(#mask27_177_837)">
<path opacity="0.1" d="M93.989 147.627H68.3022V212.439H93.989V147.627Z" fill="black"/>
</g>
<path opacity="0.1" d="M81.3233 200.608H55.2827V201.444H81.3233V200.608Z" fill="black"/>
<mask id="mask28_177_837" style="mask-type:luminance" maskUnits="userSpaceOnUse" x="55" y="152" width="27" height="7">
<path d="M78.4595 158.236H58.2103C56.5935 158.236 55.2827 156.926 55.2827 155.309V154.928C55.2827 153.311 56.5935 152 58.2103 152H78.4595C80.0763 152 81.3871 153.311 81.3871 154.928V155.309C81.3871 156.926 80.0763 158.236 78.4595 158.236Z" fill="white"/>
</mask>
<g mask="url(#mask28_177_837)">
<path d="M78.4595 158.236H58.2103C56.5935 158.236 55.2827 156.926 55.2827 155.309V154.928C55.2827 153.311 56.5935 152 58.2103 152H78.4595C80.0763 152 81.3871 153.311 81.3871 154.928V155.309C81.3871 156.926 80.0763 158.236 78.4595 158.236Z" fill="#141414"/>
</g>
<mask id="mask29_177_837" style="mask-type:luminance" maskUnits="userSpaceOnUse" x="55" y="152" width="27" height="7">
<path d="M78.4595 158.236H58.2103C56.5935 158.236 55.2827 156.926 55.2827 155.309V154.928C55.2827 153.311 56.5935 152 58.2103 152H78.4595C80.0763 152 81.3871 153.311 81.3871 154.928V155.309C81.3871 156.926 80.0763 158.236 78.4595 158.236Z" fill="white"/>
</mask>
<g mask="url(#mask29_177_837)">
<path opacity="0.4" d="M93.9905 155.117H49.2391V160.101H93.9905V155.117Z" fill="black"/>
</g>
<mask id="mask30_177_837" style="mask-type:luminance" maskUnits="userSpaceOnUse" x="94" y="160" width="27" height="48">
<path d="M120.588 160.743H94.4835V207.889H120.588V160.743Z" fill="white"/>
</mask>
<g mask="url(#mask30_177_837)">
<path d="M120.588 160.743H94.4835V207.889H120.588V160.743Z" fill="#F0F2EE"/>
</g>
<mask id="mask31_177_837" style="mask-type:luminance" maskUnits="userSpaceOnUse" x="94" y="160" width="27" height="48">
<path d="M120.588 160.743H94.4835V207.889H120.588V160.743Z" fill="white"/>
</mask>
<g mask="url(#mask31_177_837)">
<path d="M107.537 192.442C112.33 192.442 116.216 188.556 116.216 183.762C116.216 178.969 112.33 175.083 107.537 175.083C102.743 175.083 98.8568 178.969 98.8568 183.762C98.8568 188.556 102.743 192.442 107.537 192.442Z" fill="#1A1208"/>
<path d="M124.435 179.454H90.6367V188.07H124.435V179.454Z" fill="#1A1208"/>
</g>
<mask id="mask32_177_837" style="mask-type:luminance" maskUnits="userSpaceOnUse" x="94" y="160" width="27" height="48">
<path d="M120.588 160.743H94.4835V207.889H120.588V160.743Z" fill="white"/>
</mask>
<g mask="url(#mask32_177_837)">
<path opacity="0.1" d="M133.191 147.627H107.505V212.439H133.191V147.627Z" fill="black"/>
</g>
<mask id="mask33_177_837" style="mask-type:luminance" maskUnits="userSpaceOnUse" x="94" y="160" width="27" height="48">
<path d="M120.588 160.743H94.4835V207.889H120.588V160.743Z" fill="white"/>
</mask>
<g mask="url(#mask33_177_837)">
<path opacity="0.1" d="M94.8693 165.47H123.066V175.146C123.066 175.146 120.267 166.92 94.8693 165.47Z" fill="black"/>
</g>
<mask id="mask34_177_837" style="mask-type:luminance" maskUnits="userSpaceOnUse" x="93" y="158" width="29" height="9">
<path d="M119.45 166.03H95.6218C94.3545 166.03 93.3264 165.002 93.3264 163.735V160.532C93.3264 159.265 94.3545 158.236 95.6218 158.236H119.45C120.717 158.236 121.745 159.265 121.745 160.532V163.735C121.746 165.002 120.718 166.03 119.45 166.03Z" fill="white"/>
</mask>
<g mask="url(#mask34_177_837)">
<path d="M119.45 166.03H95.6218C94.3545 166.03 93.3264 165.002 93.3264 163.735V160.532C93.3264 159.265 94.3545 158.236 95.6218 158.236H119.45C120.717 158.236 121.745 159.265 121.745 160.532V163.735C121.746 165.002 120.718 166.03 119.45 166.03Z" fill="#F0F2EE"/>
</g>
<mask id="mask35_177_837" style="mask-type:luminance" maskUnits="userSpaceOnUse" x="93" y="158" width="29" height="9">
<path d="M119.45 166.03H95.6218C94.3545 166.03 93.3264 165.002 93.3264 163.735V160.532C93.3264 159.265 94.3545 158.236 95.6218 158.236H119.45C120.717 158.236 121.745 159.265 121.745 160.532V163.735C121.746 165.002 120.718 166.03 119.45 166.03Z" fill="white"/>
</mask>
<g mask="url(#mask35_177_837)">
<path d="M122.775 159.65H92.426V160.744H122.775V159.65Z" fill="#1A1208"/>
</g>
<mask id="mask36_177_837" style="mask-type:luminance" maskUnits="userSpaceOnUse" x="93" y="158" width="29" height="9">
<path d="M119.45 166.03H95.6218C94.3545 166.03 93.3264 165.002 93.3264 163.735V160.532C93.3264 159.265 94.3545 158.236 95.6218 158.236H119.45C120.717 158.236 121.745 159.265 121.745 160.532V163.735C121.746 165.002 120.718 166.03 119.45 166.03Z" fill="white"/>
</mask>
<g mask="url(#mask36_177_837)">
<path d="M122.775 162.93H92.426V164.023H122.775V162.93Z" fill="#1A1208"/>
</g>
<mask id="mask37_177_837" style="mask-type:luminance" maskUnits="userSpaceOnUse" x="93" y="158" width="29" height="9">
<path d="M119.45 166.03H95.6218C94.3545 166.03 93.3264 165.002 93.3264 163.735V160.532C93.3264 159.265 94.3545 158.236 95.6218 158.236H119.45C120.717 158.236 121.745 159.265 121.745 160.532V163.735C121.746 165.002 120.718 166.03 119.45 166.03Z" fill="white"/>
</mask>
<g mask="url(#mask37_177_837)">
<path opacity="0.1" d="M133.191 147.627H107.505V212.439H133.191V147.627Z" fill="black"/>
</g>
<mask id="mask38_177_837" style="mask-type:luminance" maskUnits="userSpaceOnUse" x="93" y="201" width="29" height="9">
<path d="M119.45 209.239H95.6218C94.3545 209.239 93.3264 208.211 93.3264 206.943V203.742C93.3264 202.475 94.3545 201.446 95.6218 201.446H119.45C120.717 201.446 121.745 202.475 121.745 203.742V206.943C121.746 208.211 120.718 209.239 119.45 209.239Z" fill="white"/>
</mask>
<g mask="url(#mask38_177_837)">
<path d="M119.45 209.239H95.6218C94.3545 209.239 93.3264 208.211 93.3264 206.943V203.742C93.3264 202.475 94.3545 201.446 95.6218 201.446H119.45C120.717 201.446 121.745 202.475 121.745 203.742V206.943C121.746 208.211 120.718 209.239 119.45 209.239Z" fill="#F0F2EE"/>
</g>
<mask id="mask39_177_837" style="mask-type:luminance" maskUnits="userSpaceOnUse" x="93" y="201" width="29" height="9">
<path d="M119.45 209.239H95.6218C94.3545 209.239 93.3264 208.211 93.3264 206.943V203.742C93.3264 202.475 94.3545 201.446 95.6218 201.446H119.45C120.717 201.446 121.745 202.475 121.745 203.742V206.943C121.746 208.211 120.718 209.239 119.45 209.239Z" fill="white"/>
</mask>
<g mask="url(#mask39_177_837)">
<path d="M122.775 203.156H92.426V204.249H122.775V203.156Z" fill="#1A1208"/>
</g>
<mask id="mask40_177_837" style="mask-type:luminance" maskUnits="userSpaceOnUse" x="93" y="201" width="29" height="9">
<path d="M119.45 209.239H95.6218C94.3545 209.239 93.3264 208.211 93.3264 206.943V203.742C93.3264 202.475 94.3545 201.446 95.6218 201.446H119.45C120.717 201.446 121.745 202.475 121.745 203.742V206.943C121.746 208.211 120.718 209.239 119.45 209.239Z" fill="white"/>
</mask>
<g mask="url(#mask40_177_837)">
<path d="M122.775 206.434H92.426V207.528H122.775V206.434Z" fill="#1A1208"/>
</g>
<mask id="mask41_177_837" style="mask-type:luminance" maskUnits="userSpaceOnUse" x="93" y="201" width="29" height="9">
<path d="M119.45 209.239H95.6218C94.3545 209.239 93.3264 208.211 93.3264 206.943V203.742C93.3264 202.475 94.3545 201.446 95.6218 201.446H119.45C120.717 201.446 121.745 202.475 121.745 203.742V206.943C121.746 208.211 120.718 209.239 119.45 209.239Z" fill="white"/>
</mask>
<g mask="url(#mask41_177_837)">
<path opacity="0.1" d="M133.191 147.627H107.505V212.439H133.191V147.627Z" fill="black"/>
</g>
<path opacity="0.1" d="M120.524 200.608H94.4835V201.444H120.524V200.608Z" fill="black"/>
<mask id="mask42_177_837" style="mask-type:luminance" maskUnits="userSpaceOnUse" x="94" y="152" width="27" height="7">
<path d="M117.66 158.236H97.4111C95.7943 158.236 94.4835 156.926 94.4835 155.309V154.928C94.4835 153.311 95.7943 152 97.4111 152H117.66C119.277 152 120.588 153.311 120.588 154.928V155.309C120.588 156.926 119.279 158.236 117.66 158.236Z" fill="white"/>
</mask>
<g mask="url(#mask42_177_837)">
<path d="M117.66 158.236H97.4111C95.7943 158.236 94.4835 156.926 94.4835 155.309V154.928C94.4835 153.311 95.7943 152 97.4111 152H117.66C119.277 152 120.588 153.311 120.588 154.928V155.309C120.588 156.926 119.279 158.236 117.66 158.236Z" fill="#141414"/>
</g>
<mask id="mask43_177_837" style="mask-type:luminance" maskUnits="userSpaceOnUse" x="94" y="152" width="27" height="7">
<path d="M117.66 158.236H97.4111C95.7943 158.236 94.4835 156.926 94.4835 155.309V154.928C94.4835 153.311 95.7943 152 97.4111 152H117.66C119.277 152 120.588 153.311 120.588 154.928V155.309C120.588 156.926 119.279 158.236 117.66 158.236Z" fill="white"/>
</mask>
<g mask="url(#mask43_177_837)">
<path opacity="0.4" d="M133.191 155.117H88.4399V160.101H133.191V155.117Z" fill="black"/>
</g>
<mask id="mask44_177_837" style="mask-type:luminance" maskUnits="userSpaceOnUse" x="133" y="160" width="27" height="48">
<path d="M159.789 160.743H133.684V207.889H159.789V160.743Z" fill="white"/>
</mask>
<g mask="url(#mask44_177_837)">
<path d="M159.789 160.743H133.684V207.889H159.789V160.743Z" fill="#F0F2EE"/>
</g>
<mask id="mask45_177_837" style="mask-type:luminance" maskUnits="userSpaceOnUse" x="133" y="160" width="27" height="48">
<path d="M159.789 160.743H133.684V207.889H159.789V160.743Z" fill="white"/>
</mask>
<g mask="url(#mask45_177_837)">
<path d="M155.417 183.762C155.417 188.556 151.531 192.442 146.737 192.442C141.943 192.442 138.057 188.556 138.057 183.762C138.057 178.969 141.943 175.083 146.737 175.083C151.531 175.083 155.417 178.969 155.417 183.762Z" fill="#1A1208"/>
<path d="M163.637 179.454H129.839V188.07H163.637V179.454Z" fill="#1A1208"/>
</g>
<mask id="mask46_177_837" style="mask-type:luminance" maskUnits="userSpaceOnUse" x="133" y="160" width="27" height="48">
<path d="M159.789 160.743H133.684V207.889H159.789V160.743Z" fill="white"/>
</mask>
<g mask="url(#mask46_177_837)">
<path opacity="0.1" d="M172.392 147.627H146.705V212.439H172.392V147.627Z" fill="black"/>
</g>
<mask id="mask47_177_837" style="mask-type:luminance" maskUnits="userSpaceOnUse" x="133" y="160" width="27" height="48">
<path d="M159.789 160.743H133.684V207.889H159.789V160.743Z" fill="white"/>
</mask>
<g mask="url(#mask47_177_837)">
<path opacity="0.1" d="M134.07 165.47H163.666V175.146C163.666 175.146 159.468 166.92 134.07 165.47Z" fill="black"/>
</g>
<mask id="mask48_177_837" style="mask-type:luminance" maskUnits="userSpaceOnUse" x="132" y="158" width="29" height="9">
<path d="M158.652 166.03H134.824C133.557 166.03 132.529 165.002 132.529 163.735V160.532C132.529 159.265 133.557 158.236 134.824 158.236H158.652C159.919 158.236 160.947 159.265 160.947 160.532V163.735C160.947 165.002 159.919 166.03 158.652 166.03Z" fill="white"/>
</mask>
<g mask="url(#mask48_177_837)">
<path d="M158.652 166.03H134.824C133.557 166.03 132.529 165.002 132.529 163.735V160.532C132.529 159.265 133.557 158.236 134.824 158.236H158.652C159.919 158.236 160.947 159.265 160.947 160.532V163.735C160.947 165.002 159.919 166.03 158.652 166.03Z" fill="#F0F2EE"/>
</g>
<mask id="mask49_177_837" style="mask-type:luminance" maskUnits="userSpaceOnUse" x="132" y="158" width="29" height="9">
<path d="M158.652 166.03H134.824C133.557 166.03 132.529 165.002 132.529 163.735V160.532C132.529 159.265 133.557 158.236 134.824 158.236H158.652C159.919 158.236 160.947 159.265 160.947 160.532V163.735C160.947 165.002 159.919 166.03 158.652 166.03Z" fill="white"/>
</mask>
<g mask="url(#mask49_177_837)">
<path d="M161.975 159.65H131.627V160.744H161.975V159.65Z" fill="#1A1208"/>
</g>
<mask id="mask50_177_837" style="mask-type:luminance" maskUnits="userSpaceOnUse" x="132" y="158" width="29" height="9">
<path d="M158.652 166.03H134.824C133.557 166.03 132.529 165.002 132.529 163.735V160.532C132.529 159.265 133.557 158.236 134.824 158.236H158.652C159.919 158.236 160.947 159.265 160.947 160.532V163.735C160.947 165.002 159.919 166.03 158.652 166.03Z" fill="white"/>
</mask>
<g mask="url(#mask50_177_837)">
<path d="M161.975 162.93H131.627V164.023H161.975V162.93Z" fill="#1A1208"/>
</g>
<mask id="mask51_177_837" style="mask-type:luminance" maskUnits="userSpaceOnUse" x="132" y="158" width="29" height="9">
<path d="M158.652 166.03H134.824C133.557 166.03 132.529 165.002 132.529 163.735V160.532C132.529 159.265 133.557 158.236 134.824 158.236H158.652C159.919 158.236 160.947 159.265 160.947 160.532V163.735C160.947 165.002 159.919 166.03 158.652 166.03Z" fill="white"/>
</mask>
<g mask="url(#mask51_177_837)">
<path opacity="0.1" d="M172.392 147.627H146.705V212.439H172.392V147.627Z" fill="black"/>
</g>
<mask id="mask52_177_837" style="mask-type:luminance" maskUnits="userSpaceOnUse" x="132" y="201" width="29" height="9">
<path d="M158.652 209.239H134.824C133.557 209.239 132.529 208.211 132.529 206.943V203.742C132.529 202.475 133.557 201.446 134.824 201.446H158.652C159.919 201.446 160.947 202.475 160.947 203.742V206.943C160.947 208.211 159.919 209.239 158.652 209.239Z" fill="white"/>
</mask>
<g mask="url(#mask52_177_837)">
<path d="M158.652 209.239H134.824C133.557 209.239 132.529 208.211 132.529 206.943V203.742C132.529 202.475 133.557 201.446 134.824 201.446H158.652C159.919 201.446 160.947 202.475 160.947 203.742V206.943C160.947 208.211 159.919 209.239 158.652 209.239Z" fill="#F0F2EE"/>
</g>
<mask id="mask53_177_837" style="mask-type:luminance" maskUnits="userSpaceOnUse" x="132" y="201" width="29" height="9">
<path d="M158.652 209.239H134.824C133.557 209.239 132.529 208.211 132.529 206.943V203.742C132.529 202.475 133.557 201.446 134.824 201.446H158.652C159.919 201.446 160.947 202.475 160.947 203.742V206.943C160.947 208.211 159.919 209.239 158.652 209.239Z" fill="white"/>
</mask>
<g mask="url(#mask53_177_837)">
<path d="M161.975 203.156H131.627V204.249H161.975V203.156Z" fill="#1A1208"/>
</g>
<mask id="mask54_177_837" style="mask-type:luminance" maskUnits="userSpaceOnUse" x="132" y="201" width="29" height="9">
<path d="M158.652 209.239H134.824C133.557 209.239 132.529 208.211 132.529 206.943V203.742C132.529 202.475 133.557 201.446 134.824 201.446H158.652C159.919 201.446 160.947 202.475 160.947 203.742V206.943C160.947 208.211 159.919 209.239 158.652 209.239Z" fill="white"/>
</mask>
<g mask="url(#mask54_177_837)">
<path d="M161.975 206.434H131.627V207.528H161.975V206.434Z" fill="#1A1208"/>
</g>
<mask id="mask55_177_837" style="mask-type:luminance" maskUnits="userSpaceOnUse" x="132" y="201" width="29" height="9">
<path d="M158.652 209.239H134.824C133.557 209.239 132.529 208.211 132.529 206.943V203.742C132.529 202.475 133.557 201.446 134.824 201.446H158.652C159.919 201.446 160.947 202.475 160.947 203.742V206.943C160.947 208.211 159.919 209.239 158.652 209.239Z" fill="white"/>
</mask>
<g mask="url(#mask55_177_837)">
<path opacity="0.1" d="M172.392 147.627H146.705V212.439H172.392V147.627Z" fill="black"/>
</g>
<path opacity="0.1" d="M159.725 200.608H133.684V201.444H159.725V200.608Z" fill="black"/>
<mask id="mask56_177_837" style="mask-type:luminance" maskUnits="userSpaceOnUse" x="133" y="152" width="27" height="7">
<path d="M156.862 158.236H136.613C134.996 158.236 133.686 156.926 133.686 155.309V154.928C133.686 153.311 134.996 152 136.613 152H156.862C158.479 152 159.79 153.311 159.79 154.928V155.309C159.79 156.926 158.479 158.236 156.862 158.236Z" fill="white"/>
</mask>
<g mask="url(#mask56_177_837)">
<path d="M156.862 158.236H136.613C134.996 158.236 133.686 156.926 133.686 155.309V154.928C133.686 153.311 134.996 152 136.613 152H156.862C158.479 152 159.79 153.311 159.79 154.928V155.309C159.79 156.926 158.479 158.236 156.862 158.236Z" fill="#141414"/>
</g>
<mask id="mask57_177_837" style="mask-type:luminance" maskUnits="userSpaceOnUse" x="133" y="152" width="27" height="7">
<path d="M156.862 158.236H136.613C134.996 158.236 133.686 156.926 133.686 155.309V154.928C133.686 153.311 134.996 152 136.613 152H156.862C158.479 152 159.79 153.311 159.79 154.928V155.309C159.79 156.926 158.479 158.236 156.862 158.236Z" fill="white"/>
</mask>
<g mask="url(#mask57_177_837)">
<path opacity="0.4" d="M172.392 155.117H127.641V160.101H172.392V155.117Z" fill="black"/>
</g>
<mask id="mask58_177_837" style="mask-type:luminance" maskUnits="userSpaceOnUse" x="173" y="182" width="20" height="27">
<path d="M192.64 208.366H173.479L176.155 182.628H189.965L192.64 208.366Z" fill="white"/>
</mask>
<g mask="url(#mask58_177_837)">
<path d="M192.64 208.366H173.479L176.155 182.628H189.965L192.64 208.366Z" fill="#FDE2BE"/>
</g>
<mask id="mask59_177_837" style="mask-type:luminance" maskUnits="userSpaceOnUse" x="173" y="182" width="20" height="27">
<path d="M192.64 208.366H173.479L176.155 182.628H189.965L192.64 208.366Z" fill="white"/>
</mask>
<g mask="url(#mask59_177_837)">
<path d="M194.175 206.735H171.943V208.667H194.175V206.735Z" fill="#DD4528"/>
<path d="M194.175 182.145H171.943V184.078H194.175V182.145Z" fill="#DD4528"/>
<path d="M187.833 195.497C187.833 198.133 185.696 200.27 183.06 200.27C180.424 200.27 178.286 198.133 178.286 195.497C178.286 192.861 180.424 190.724 183.06 190.724C185.696 190.724 187.833 192.861 187.833 195.497Z" fill="#1A1208"/>
<path d="M192.939 193.345H173.182V197.65H192.939V193.345Z" fill="#1A1208"/>
<path opacity="0.15" d="M202.635 179.608H183.06V210.964H202.635V179.608Z" fill="black"/>
</g>
<mask id="mask60_177_837" style="mask-type:luminance" maskUnits="userSpaceOnUse" x="173" y="175" width="20" height="27">
<path d="M192.64 201.116H173.479L176.155 175.378H189.965L192.64 201.116Z" fill="white"/>
</mask>
<g mask="url(#mask60_177_837)">
<path d="M192.64 201.116H173.479L176.155 175.378H189.965L192.64 201.116Z" fill="#FDE2BE"/>
</g>
<mask id="mask61_177_837" style="mask-type:luminance" maskUnits="userSpaceOnUse" x="173" y="175" width="20" height="27">
<path d="M192.64 201.116H173.479L176.155 175.378H189.965L192.64 201.116Z" fill="white"/>
</mask>
<g mask="url(#mask61_177_837)">
<path d="M194.175 199.485H171.943V201.417H194.175V199.485Z" fill="#DD4528"/>
<path d="M194.175 174.895H171.943V176.828H194.175V174.895Z" fill="#DD4528"/>
<path d="M187.833 188.247C187.833 190.883 185.696 193.02 183.06 193.02C180.424 193.02 178.286 190.883 178.286 188.247C178.286 185.611 180.424 183.474 183.06 183.474C185.696 183.474 187.833 185.611 187.833 188.247Z" fill="#1A1208"/>
<path d="M192.939 186.095H173.182V190.4H192.939V186.095Z" fill="#1A1208"/>
<path opacity="0.15" d="M202.635 172.358H183.06V203.714H202.635V172.358Z" fill="black"/>
</g>
<mask id="mask62_177_837" style="mask-type:luminance" maskUnits="userSpaceOnUse" x="173" y="168" width="20" height="26">
<path d="M192.64 193.866H173.479L176.155 168.128H189.965L192.64 193.866Z" fill="white"/>
</mask>
<g mask="url(#mask62_177_837)">
<path d="M192.64 193.866H173.479L176.155 168.128H189.965L192.64 193.866Z" fill="#FDE2BE"/>
</g>
<mask id="mask63_177_837" style="mask-type:luminance" maskUnits="userSpaceOnUse" x="173" y="168" width="20" height="26">
<path d="M192.64 193.866H173.479L176.155 168.128H189.965L192.64 193.866Z" fill="white"/>
</mask>
<g mask="url(#mask63_177_837)">
<path d="M194.175 192.235H171.943V194.167H194.175V192.235Z" fill="#DD4528"/>
<path d="M194.175 167.645H171.943V169.578H194.175V167.645Z" fill="#DD4528"/>
<path d="M187.833 180.997C187.833 183.633 185.696 185.77 183.06 185.77C180.424 185.77 178.286 183.633 178.286 180.997C178.286 178.361 180.424 176.224 183.06 176.224C185.696 176.224 187.833 178.361 187.833 180.997Z" fill="#1A1208"/>
<path d="M192.939 178.845H173.182V183.15H192.939V178.845Z" fill="#1A1208"/>
<path opacity="0.15" d="M202.635 165.108H183.06V196.464H202.635V165.108Z" fill="black"/>
</g>
<mask id="mask64_177_837" style="mask-type:luminance" maskUnits="userSpaceOnUse" x="199" y="182" width="20" height="27">
<path d="M218.74 208.366H199.579L202.255 182.628H216.064L218.74 208.366Z" fill="white"/>
</mask>
<g mask="url(#mask64_177_837)">
<path d="M218.74 208.366H199.579L202.255 182.628H216.064L218.74 208.366Z" fill="#FDE2BE"/>
</g>
<mask id="mask65_177_837" style="mask-type:luminance" maskUnits="userSpaceOnUse" x="199" y="182" width="20" height="27">
<path d="M218.74 208.366H199.579L202.255 182.628H216.064L218.74 208.366Z" fill="white"/>
</mask>
<g mask="url(#mask65_177_837)">
<path d="M220.275 206.735H198.042V208.667H220.275V206.735Z" fill="#DD4528"/>
<path d="M220.275 182.145H198.042V184.078H220.275V182.145Z" fill="#DD4528"/>
<path d="M213.933 195.497C213.933 198.133 211.796 200.27 209.16 200.27C206.524 200.27 204.386 198.133 204.386 195.497C204.386 192.861 206.524 190.724 209.16 190.724C211.796 190.724 213.933 192.861 213.933 195.497Z" fill="#1A1208"/>
<path d="M219.038 193.345H199.282V197.65H219.038V193.345Z" fill="#1A1208"/>
<path opacity="0.15" d="M228.735 179.608H209.16V210.964H228.735V179.608Z" fill="black"/>
</g>
<mask id="mask66_177_837" style="mask-type:luminance" maskUnits="userSpaceOnUse" x="199" y="175" width="20" height="27">
<path d="M218.74 201.116H199.579L202.255 175.378H216.064L218.74 201.116Z" fill="white"/>
</mask>
<g mask="url(#mask66_177_837)">
<path d="M218.74 201.116H199.579L202.255 175.378H216.064L218.74 201.116Z" fill="#FDE2BE"/>
</g>
<mask id="mask67_177_837" style="mask-type:luminance" maskUnits="userSpaceOnUse" x="199" y="175" width="20" height="27">
<path d="M218.74 201.116H199.579L202.255 175.378H216.064L218.74 201.116Z" fill="white"/>
</mask>
<g mask="url(#mask67_177_837)">
<path d="M220.275 199.485H198.042V201.417H220.275V199.485Z" fill="#DD4528"/>
<path d="M220.275 174.895H198.042V176.828H220.275V174.895Z" fill="#DD4528"/>
<path d="M213.933 188.247C213.933 190.883 211.796 193.02 209.16 193.02C206.524 193.02 204.386 190.883 204.386 188.247C204.386 185.611 206.524 183.474 209.16 183.474C211.796 183.474 213.933 185.611 213.933 188.247Z" fill="#1A1208"/>
<path d="M219.038 186.095H199.282V190.4H219.038V186.095Z" fill="#1A1208"/>
<path opacity="0.15" d="M228.735 172.358H209.16V203.714H228.735V172.358Z" fill="black"/>
</g>
<mask id="mask68_177_837" style="mask-type:luminance" maskUnits="userSpaceOnUse" x="199" y="168" width="20" height="26">
<path d="M218.74 193.866H199.579L202.255 168.128H216.064L218.74 193.866Z" fill="white"/>
</mask>
<g mask="url(#mask68_177_837)">
<path d="M218.74 193.866H199.579L202.255 168.128H216.064L218.74 193.866Z" fill="#FDE2BE"/>
</g>
<mask id="mask69_177_837" style="mask-type:luminance" maskUnits="userSpaceOnUse" x="199" y="168" width="20" height="26">
<path d="M218.74 193.866H199.579L202.255 168.128H216.064L218.74 193.866Z" fill="white"/>
</mask>
<g mask="url(#mask69_177_837)">
<path d="M220.275 192.235H198.042V194.167H220.275V192.235Z" fill="#DD4528"/>
<path d="M220.275 167.645H198.042V169.578H220.275V167.645Z" fill="#DD4528"/>
<path d="M213.933 180.997C213.933 183.633 211.796 185.77 209.16 185.77C206.524 185.77 204.386 183.633 204.386 180.997C204.386 178.361 206.524 176.224 209.16 176.224C211.796 176.224 213.933 178.361 213.933 180.997Z" fill="#1A1208"/>
<path d="M219.038 178.845H199.282V183.15H219.038V178.845Z" fill="#1A1208"/>
<path opacity="0.15" d="M228.735 165.108H209.16V196.464H228.735V165.108Z" fill="black"/>
</g>
<path d="M263.54 235.706H11.5377V237.972H263.54V235.706Z" fill="#523F37"/>
<path d="M56.0556 248.408L48.2734 253.702L38.5889 239.467L46.371 234.173C48.3938 232.797 51.1589 233.323 52.535 235.346L57.2272 242.244C58.6047 244.266 58.0783 247.032 56.0556 248.408ZM48.8824 250.506L54.7622 246.505C55.7366 245.843 55.9889 244.511 55.3262 243.537L50.6326 236.639C49.9699 235.665 48.6388 235.411 47.6644 236.074L41.7847 240.074L48.8824 250.506Z" fill="#E6E8E4"/>
<path d="M53.3339 254.128L40.4318 262.905C39.4951 263.541 38.2191 263.299 37.5826 262.362L25.9043 245.197L42.1979 234.112L53.8762 251.277C54.5128 252.215 54.2706 253.491 53.3339 254.128Z" fill="#E6E8E4"/>
<mask id="mask70_177_837" style="mask-type:luminance" maskUnits="userSpaceOnUse" x="25" y="234" width="29" height="29">
<path d="M52.3566 254.792L41.4077 262.241C39.9316 263.245 37.9219 262.863 36.917 261.387L25.9043 245.199L42.1979 234.113L53.2107 250.303C54.2155 251.777 53.8327 253.789 52.3566 254.792Z" fill="white"/>
</mask>
<g mask="url(#mask70_177_837)">
<g opacity="0.03">
<path d="M27.6617 241.987C27.6617 241.987 38.9485 257.248 56.205 250.1L58.2901 255.108L36.8547 267.666L22.6694 245.383L27.6617 241.987Z" fill="black"/>
</g>
</g>
<mask id="mask71_177_837" style="mask-type:luminance" maskUnits="userSpaceOnUse" x="25" y="233" width="19" height="14">
<path d="M43.2419 235.397L26.7163 246.64C26.3567 246.885 25.8651 246.792 25.6201 246.431L25.5809 246.373C25.3359 246.012 25.4287 245.522 25.7897 245.277L42.3154 234.034C42.6764 233.789 43.1665 233.881 43.4116 234.243L43.4507 234.301C43.6958 234.662 43.6015 235.152 43.2419 235.397Z" fill="white"/>
</mask>
<g mask="url(#mask71_177_837)">
<path d="M43.2419 235.397L26.7163 246.64C26.3567 246.885 25.8651 246.792 25.6201 246.431L25.5809 246.373C25.3359 246.012 25.4287 245.522 25.7897 245.277L42.3154 234.034C42.6764 233.789 43.1665 233.881 43.4116 234.243L43.4507 234.301C43.6958 234.662 43.6015 235.152 43.2419 235.397Z" fill="#F0F2EE"/>
</g>
<mask id="mask72_177_837" style="mask-type:luminance" maskUnits="userSpaceOnUse" x="25" y="233" width="19" height="14">
<path d="M43.2419 235.397L26.7163 246.64C26.3567 246.885 25.8651 246.792 25.6201 246.431L25.5809 246.373C25.3359 246.012 25.4287 245.522 25.7897 245.277L42.3154 234.034C42.6764 233.789 43.1665 233.881 43.4116 234.243L43.4507 234.301C43.6958 234.662 43.6015 235.152 43.2419 235.397Z" fill="white"/>
</mask>
<g mask="url(#mask72_177_837)">
<g opacity="0.1">
<path d="M27.6617 241.987C27.6617 241.987 38.9485 257.248 56.2049 250.1L58.29 255.108L36.8547 267.666L22.6693 245.383L27.6617 241.987Z" fill="black"/>
</g>
</g>
<path d="M100.086 248.408L92.3042 253.702L82.6196 239.467L90.4018 234.173C92.4245 232.797 95.1897 233.323 96.5657 235.346L101.259 242.244C102.635 244.266 102.109 247.032 100.086 248.408ZM92.9132 250.506L98.7929 246.505C99.7673 245.843 100.02 244.511 99.357 243.537L94.6633 236.639C94.0007 235.665 92.6696 235.411 91.6952 236.074L85.8154 240.074L92.9132 250.506Z" fill="#E6E8E4"/>
<path d="M97.3647 254.128L84.4626 262.905C83.5259 263.541 82.2499 263.299 81.6134 262.362L69.9351 245.197L86.2287 234.112L97.907 251.277C98.5436 252.215 98.3014 253.491 97.3647 254.128Z" fill="#E6E8E4"/>
<mask id="mask73_177_837" style="mask-type:luminance" maskUnits="userSpaceOnUse" x="69" y="234" width="29" height="29">
<path d="M96.3874 254.792L85.4385 262.241C83.9624 263.245 81.9527 262.863 80.9478 261.387L69.9351 245.199L86.2287 234.113L97.2415 250.303C98.2463 251.777 97.8635 253.789 96.3874 254.792Z" fill="white"/>
</mask>
<g mask="url(#mask73_177_837)">
<g opacity="0.03">
<path d="M71.6924 241.987C71.6924 241.987 82.9792 257.248 100.236 250.1L102.321 255.108L80.8854 267.666L66.7001 245.383L71.6924 241.987Z" fill="black"/>
</g>
</g>
<mask id="mask74_177_837" style="mask-type:luminance" maskUnits="userSpaceOnUse" x="69" y="233" width="19" height="14">
<path d="M87.2727 235.397L70.747 246.64C70.386 246.885 69.8959 246.792 69.6508 246.431L69.6117 246.373C69.3666 246.012 69.4594 245.522 69.8205 245.277L86.3461 234.034C86.7057 233.789 87.1973 233.881 87.4423 234.243L87.4815 234.301C87.7265 234.662 87.6323 235.152 87.2727 235.397Z" fill="white"/>
</mask>
<g mask="url(#mask74_177_837)">
<path d="M87.2727 235.397L70.747 246.64C70.386 246.885 69.8959 246.792 69.6508 246.431L69.6117 246.373C69.3666 246.012 69.4594 245.522 69.8205 245.277L86.3461 234.034C86.7057 233.789 87.1973 233.881 87.4423 234.243L87.4815 234.301C87.7265 234.662 87.6323 235.152 87.2727 235.397Z" fill="#F0F2EE"/>
</g>
<mask id="mask75_177_837" style="mask-type:luminance" maskUnits="userSpaceOnUse" x="69" y="233" width="19" height="14">
<path d="M87.2727 235.397L70.747 246.64C70.386 246.885 69.8959 246.792 69.6508 246.431L69.6117 246.373C69.3666 246.012 69.4594 245.522 69.8205 245.277L86.3461 234.034C86.7057 233.789 87.1973 233.881 87.4423 234.243L87.4815 234.301C87.7265 234.662 87.6323 235.152 87.2727 235.397Z" fill="white"/>
</mask>
<g mask="url(#mask75_177_837)">
<g opacity="0.1">
<path d="M71.6924 241.987C71.6924 241.987 82.9792 257.248 100.236 250.1L102.321 255.108L80.8854 267.666L66.7001 245.383L71.6924 241.987Z" fill="black"/>
</g>
</g>
<path d="M144.117 248.408L136.335 253.702L126.65 239.467L134.432 234.173C136.455 232.797 139.22 233.323 140.596 235.346L145.29 242.244C146.665 244.266 146.14 247.032 144.117 248.408ZM136.944 250.506L142.824 246.505C143.798 245.843 144.05 244.511 143.388 243.537L138.694 236.639C138.031 235.665 136.7 235.411 135.726 236.074L129.846 240.074L136.944 250.506Z" fill="#E6E8E4"/>
<path d="M141.395 254.128L128.493 262.905C127.557 263.541 126.281 263.299 125.644 262.362L113.966 245.197L130.259 234.112L141.938 251.277C142.574 252.215 142.332 253.491 141.395 254.128Z" fill="#E6E8E4"/>
<mask id="mask76_177_837" style="mask-type:luminance" maskUnits="userSpaceOnUse" x="113" y="234" width="29" height="29">
<path d="M140.418 254.792L129.469 262.241C127.993 263.245 125.983 262.863 124.978 261.387L113.966 245.199L130.259 234.113L141.272 250.303C142.277 251.777 141.894 253.789 140.418 254.792Z" fill="white"/>
</mask>
<g mask="url(#mask76_177_837)">
<g opacity="0.03">
<path d="M115.723 241.987C115.723 241.987 127.01 257.248 144.266 250.1L146.353 255.108L124.918 267.666L110.732 245.383L115.723 241.987Z" fill="black"/>
</g>
</g>
<mask id="mask77_177_837" style="mask-type:luminance" maskUnits="userSpaceOnUse" x="113" y="233" width="19" height="14">
<path d="M131.303 235.397L114.778 246.64C114.417 246.885 113.927 246.792 113.681 246.431L113.642 246.373C113.397 246.012 113.49 245.522 113.851 245.277L130.377 234.034C130.736 233.789 131.228 233.881 131.473 234.243L131.512 234.301C131.757 234.662 131.663 235.152 131.303 235.397Z" fill="white"/>
</mask>
<g mask="url(#mask77_177_837)">
<path d="M131.303 235.397L114.778 246.64C114.417 246.885 113.927 246.792 113.681 246.431L113.642 246.373C113.397 246.012 113.49 245.522 113.851 245.277L130.377 234.034C130.736 233.789 131.228 233.881 131.473 234.243L131.512 234.301C131.757 234.662 131.663 235.152 131.303 235.397Z" fill="#F0F2EE"/>
</g>
<mask id="mask78_177_837" style="mask-type:luminance" maskUnits="userSpaceOnUse" x="113" y="233" width="19" height="14">
<path d="M131.303 235.397L114.778 246.64C114.417 246.885 113.927 246.792 113.681 246.431L113.642 246.373C113.397 246.012 113.49 245.522 113.851 245.277L130.377 234.034C130.736 233.789 131.228 233.881 131.473 234.243L131.512 234.301C131.757 234.662 131.663 235.152 131.303 235.397Z" fill="white"/>
</mask>
<g mask="url(#mask78_177_837)">
<g opacity="0.1">
<path d="M115.723 241.987C115.723 241.987 127.01 257.248 144.266 250.1L146.353 255.108L124.918 267.666L110.732 245.383L115.723 241.987Z" fill="black"/>
</g>
</g>
<path d="M188.148 248.408L180.365 253.702L170.681 239.467L178.463 234.173C180.486 232.797 183.251 233.323 184.627 235.346L189.319 242.244C190.695 244.266 190.17 247.032 188.148 248.408ZM180.974 250.506L186.854 246.505C187.829 245.843 188.081 244.511 187.418 243.537L182.726 236.639C182.063 235.665 180.732 235.411 179.758 236.074L173.878 240.074L180.974 250.506Z" fill="#E6E8E4"/>
<path d="M185.426 254.128L172.524 262.905C171.587 263.541 170.311 263.299 169.675 262.362L157.996 245.197L174.29 234.112L185.968 251.277C186.605 252.215 186.363 253.491 185.426 254.128Z" fill="#E6E8E4"/>
<mask id="mask79_177_837" style="mask-type:luminance" maskUnits="userSpaceOnUse" x="157" y="234" width="29" height="29">
<path d="M184.449 254.792L173.5 262.241C172.024 263.245 170.014 262.863 169.009 261.387L157.996 245.199L174.29 234.113L185.303 250.303C186.308 251.777 185.925 253.789 184.449 254.792Z" fill="white"/>
</mask>
<g mask="url(#mask79_177_837)">
<g opacity="0.03">
<path d="M159.754 241.987C159.754 241.987 171.041 257.248 188.297 250.1L190.384 255.108L168.948 267.666L154.763 245.383L159.754 241.987Z" fill="black"/>
</g>
</g>
<mask id="mask80_177_837" style="mask-type:luminance" maskUnits="userSpaceOnUse" x="157" y="233" width="19" height="14">
<path d="M175.334 235.397L158.808 246.64C158.447 246.885 157.957 246.792 157.712 246.431L157.673 246.373C157.428 246.012 157.521 245.522 157.882 245.277L174.407 234.034C174.767 233.789 175.259 233.881 175.504 234.243L175.543 234.301C175.788 234.662 175.694 235.152 175.334 235.397Z" fill="white"/>
</mask>
<g mask="url(#mask80_177_837)">
<path d="M175.334 235.397L158.808 246.64C158.447 246.885 157.957 246.792 157.712 246.431L157.673 246.373C157.428 246.012 157.521 245.522 157.882 245.277L174.407 234.034C174.767 233.789 175.259 233.881 175.504 234.243L175.543 234.301C175.788 234.662 175.694 235.152 175.334 235.397Z" fill="#F0F2EE"/>
</g>
<mask id="mask81_177_837" style="mask-type:luminance" maskUnits="userSpaceOnUse" x="157" y="233" width="19" height="14">
<path d="M175.334 235.397L158.808 246.64C158.447 246.885 157.957 246.792 157.712 246.431L157.673 246.373C157.428 246.012 157.521 245.522 157.882 245.277L174.407 234.034C174.767 233.789 175.259 233.881 175.504 234.243L175.543 234.301C175.788 234.662 175.694 235.152 175.334 235.397Z" fill="white"/>
</mask>
<g mask="url(#mask81_177_837)">
<g opacity="0.1">
<path d="M159.754 241.987C159.754 241.987 171.041 257.248 188.297 250.1L190.384 255.108L168.948 267.666L154.763 245.383L159.754 241.987Z" fill="black"/>
</g>
</g>
<path d="M232.178 248.408L224.396 253.702L214.712 239.467L222.494 234.173C224.517 232.797 227.282 233.323 228.658 235.346L233.351 242.244C234.727 244.266 234.201 247.032 232.178 248.408ZM225.005 250.506L230.885 246.505C231.859 245.843 232.112 244.511 231.449 243.537L226.755 236.639C226.093 235.665 224.762 235.411 223.787 236.074L217.907 240.074L225.005 250.506Z" fill="#E6E8E4"/>
<path d="M229.457 254.128L216.555 262.905C215.618 263.541 214.342 263.299 213.705 262.362L202.027 245.197L218.321 234.112L229.999 251.277C230.636 252.215 230.393 253.491 229.457 254.128Z" fill="#E6E8E4"/>
<mask id="mask82_177_837" style="mask-type:luminance" maskUnits="userSpaceOnUse" x="202" y="234" width="28" height="29">
<path d="M228.479 254.792L217.531 262.241C216.054 263.245 214.045 262.863 213.04 261.387L202.027 245.199L218.321 234.113L229.334 250.303C230.338 251.777 229.956 253.789 228.479 254.792Z" fill="white"/>
</mask>
<g mask="url(#mask82_177_837)">
<g opacity="0.03">
<path d="M203.784 241.987C203.784 241.987 215.071 257.248 232.326 250.1L234.413 255.108L212.977 267.666L198.792 245.383L203.784 241.987Z" fill="black"/>
</g>
</g>
<mask id="mask83_177_837" style="mask-type:luminance" maskUnits="userSpaceOnUse" x="201" y="233" width="19" height="14">
<path d="M219.365 235.397L202.839 246.64C202.478 246.885 201.988 246.792 201.743 246.431L201.704 246.373C201.459 246.012 201.551 245.522 201.913 245.277L218.438 234.034C218.798 233.789 219.289 233.881 219.534 234.243L219.574 234.301C219.819 234.662 219.724 235.152 219.365 235.397Z" fill="white"/>
</mask>
<g mask="url(#mask83_177_837)">
<path d="M219.365 235.397L202.839 246.64C202.478 246.885 201.988 246.792 201.743 246.431L201.704 246.373C201.459 246.012 201.551 245.522 201.913 245.277L218.438 234.034C218.798 233.789 219.289 233.881 219.534 234.243L219.574 234.301C219.819 234.662 219.724 235.152 219.365 235.397Z" fill="#F0F2EE"/>
</g>
<mask id="mask84_177_837" style="mask-type:luminance" maskUnits="userSpaceOnUse" x="201" y="233" width="19" height="14">
<path d="M219.365 235.397L202.839 246.64C202.478 246.885 201.988 246.792 201.743 246.431L201.704 246.373C201.459 246.012 201.551 245.522 201.913 245.277L218.438 234.034C218.798 233.789 219.289 233.881 219.534 234.243L219.574 234.301C219.819 234.662 219.724 235.152 219.365 235.397Z" fill="white"/>
</mask>
<g mask="url(#mask84_177_837)">
<g opacity="0.1">
<path d="M203.784 241.987C203.784 241.987 215.071 257.248 232.326 250.1L234.413 255.108L212.977 267.666L198.792 245.383L203.784 241.987Z" fill="black"/>
</g>
</g>
<path d="M266.526 236.838C266.526 238.487 265.19 239.822 263.542 239.822C261.893 239.822 260.558 238.487 260.558 236.838C260.558 235.189 261.893 233.854 263.542 233.854C265.189 233.854 266.526 235.189 266.526 236.838Z" fill="#523F37"/>
<path d="M14.226 236.838C14.226 238.487 12.8905 239.822 11.2419 239.822C9.59321 239.822 8.25775 238.487 8.25775 236.838C8.25775 235.189 9.59321 233.854 11.2419 233.854C12.8891 233.854 14.226 235.189 14.226 236.838Z" fill="#523F37"/>
</svg>
