<svg width="570" height="141" viewBox="0 0 570 141" fill="none" xmlns="http://www.w3.org/2000/svg">
<mask id="mask0_140_4347" style="mask-type:luminance" maskUnits="userSpaceOnUse" x="-1" y="125" width="571" height="16">
<path d="M8.76019 140.588H570V125.12H8.76019C3.92255 125.12 -0.00012207 128.583 -0.00012207 132.853C-0.00177002 137.125 3.9209 140.588 8.76019 140.588Z" fill="white"/>
</mask>
<g mask="url(#mask0_140_4347)">
<path d="M8.76019 140.588H570V125.12H8.76019C3.92255 125.12 -0.00012207 128.583 -0.00012207 132.853C-0.00177002 137.125 3.9209 140.588 8.76019 140.588Z" fill="#523F37"/>
</g>
<mask id="mask1_140_4347" style="mask-type:luminance" maskUnits="userSpaceOnUse" x="-1" y="125" width="571" height="16">
<path d="M8.76019 140.588H570V125.12H8.76019C3.92255 125.12 -0.00012207 128.583 -0.00012207 132.853C-0.00177002 137.125 3.9209 140.588 8.76019 140.588Z" fill="white"/>
</mask>
<g mask="url(#mask1_140_4347)">
<path opacity="0.2" d="M-28.1287 132.853H596.355V184.57H-28.1287V132.853Z" fill="black"/>
</g>
<path d="M287.107 104.462H227.641V122.664H287.107V104.462Z" fill="#D7D9D5"/>
<path d="M287.107 113.787H227.641V122.664H287.107V113.787Z" fill="#63483D"/>
<path d="M287.107 120.614H227.641V122.664H287.107V120.614Z" fill="#4F3931"/>
<path d="M287.107 114.604H227.641V115.439H287.107V114.604Z" fill="#3D2C26"/>
<path d="M229.144 125.12C228.314 125.12 227.641 124.448 227.641 123.618V122.664H230.646V123.618C230.646 124.448 229.973 125.12 229.144 125.12Z" fill="#63483D"/>
<path d="M285.605 125.12C284.776 125.12 284.103 124.448 284.103 123.618V122.664H287.107V123.618C287.107 124.448 286.434 125.12 285.605 125.12Z" fill="#63483D"/>
<mask id="mask2_140_4347" style="mask-type:luminance" maskUnits="userSpaceOnUse" x="234" y="46" width="47" height="59">
<path d="M267.109 46.1621H247.64C242.001 46.1621 237.332 50.5411 236.969 56.1686L234.007 102.212C233.929 103.431 234.896 104.462 236.118 104.462H278.631C279.852 104.462 280.82 103.43 280.742 102.212L277.779 56.1686C277.417 50.5411 272.748 46.1621 267.109 46.1621Z" fill="white"/>
</mask>
<g mask="url(#mask2_140_4347)">
<path d="M267.109 46.1621H247.64C242.001 46.1621 237.332 50.5411 236.969 56.1686L234.007 102.212C233.929 103.431 234.896 104.462 236.118 104.462H278.631C279.852 104.462 280.82 103.43 280.742 102.212L277.779 56.1686C277.417 50.5411 272.748 46.1621 267.109 46.1621Z" fill="#F0F2EE"/>
</g>
<mask id="mask3_140_4347" style="mask-type:luminance" maskUnits="userSpaceOnUse" x="234" y="46" width="47" height="59">
<path d="M267.109 46.1621H247.64C242.001 46.1621 237.332 50.5411 236.969 56.1686L234.007 102.212C233.929 103.431 234.896 104.462 236.118 104.462H278.631C279.852 104.462 280.82 103.43 280.742 102.212L277.779 56.1686C277.417 50.5411 272.748 46.1621 267.109 46.1621Z" fill="white"/>
</mask>
<g mask="url(#mask3_140_4347)">
<path d="M284.103 99.4133H230.436V105.255H284.103V99.4133Z" fill="#DD4528"/>
<path d="M284.103 45.5778H230.436V51.4198H284.103V45.5778Z" fill="#DD4528"/>
</g>
<mask id="mask4_140_4347" style="mask-type:luminance" maskUnits="userSpaceOnUse" x="234" y="46" width="47" height="59">
<path d="M267.109 46.1621H247.64C242.001 46.1621 237.332 50.5411 236.969 56.1686L234.007 102.212C233.929 103.431 234.896 104.462 236.118 104.462H278.631C279.852 104.462 280.82 103.43 280.742 102.212L277.779 56.1686C277.417 50.5411 272.748 46.1621 267.109 46.1621Z" fill="white"/>
</mask>
<g mask="url(#mask4_140_4347)">
<path opacity="0.1" d="M291.7 30.8052H257.375V106.591H291.7V30.8052Z" fill="black"/>
</g>
<path opacity="0.15" d="M263.759 60.0589H250.989C250.712 60.0589 250.489 59.8342 250.489 59.5587C250.489 59.2817 250.714 59.0584 250.989 59.0584H263.759C264.036 59.0584 264.26 59.2832 264.26 59.5587C264.26 59.8356 264.036 60.0589 263.759 60.0589Z" fill="black"/>
<path opacity="0.15" d="M263.759 62.3543H250.989C250.712 62.3543 250.489 62.1296 250.489 61.8541C250.489 61.5771 250.714 61.3538 250.989 61.3538H263.759C264.036 61.3538 264.26 61.5786 264.26 61.8541C264.26 62.131 264.036 62.3543 263.759 62.3543Z" fill="black"/>
<path opacity="0.15" d="M263.759 64.6496H250.989C250.712 64.6496 250.489 64.4249 250.489 64.1494C250.489 63.8724 250.714 63.6491 250.989 63.6491H263.759C264.036 63.6491 264.26 63.8739 264.26 64.1494C264.26 64.4263 264.036 64.6496 263.759 64.6496Z" fill="black"/>
<path opacity="0.15" d="M263.759 66.945H250.989C250.712 66.945 250.489 66.7202 250.489 66.4447C250.489 66.1678 250.714 65.9445 250.989 65.9445H263.759C264.036 65.9445 264.26 66.1692 264.26 66.4447C264.26 66.7217 264.036 66.945 263.759 66.945Z" fill="black"/>
<path opacity="0.15" d="M263.759 69.2404H250.989C250.712 69.2404 250.489 69.0156 250.489 68.7401C250.489 68.4632 250.714 68.2399 250.989 68.2399H263.759C264.036 68.2399 264.26 68.4646 264.26 68.7401C264.26 69.0171 264.036 69.2404 263.759 69.2404Z" fill="black"/>
<path opacity="0.15" d="M263.759 71.5357H250.989C250.712 71.5357 250.489 71.311 250.489 71.0355C250.489 70.7585 250.714 70.5352 250.989 70.5352H263.759C264.036 70.5352 264.26 70.76 264.26 71.0355C264.26 71.3124 264.036 71.5357 263.759 71.5357Z" fill="black"/>
<path opacity="0.15" d="M263.759 73.831H250.989C250.712 73.831 250.489 73.6063 250.489 73.3308C250.489 73.0538 250.714 72.8305 250.989 72.8305H263.759C264.036 72.8305 264.26 73.0553 264.26 73.3308C264.26 73.6077 264.036 73.831 263.759 73.831Z" fill="black"/>
<mask id="mask5_140_4347" style="mask-type:luminance" maskUnits="userSpaceOnUse" x="240" y="6" width="34" height="37">
<path d="M262.234 42.9069H252.515C247.173 42.9069 242.753 38.7512 242.424 33.4195L241.005 10.3877C240.861 8.06192 242.708 6.09863 245.037 6.09863H269.71C272.04 6.09863 273.886 8.06337 273.743 10.3877L272.323 33.4195C271.995 38.7526 267.576 42.9069 262.234 42.9069Z" fill="white"/>
</mask>
<g mask="url(#mask5_140_4347)">
<path d="M262.234 42.9069H252.515C247.173 42.9069 242.753 38.7512 242.424 33.4195L241.005 10.3877C240.861 8.06192 242.708 6.09863 245.037 6.09863H269.71C272.04 6.09863 273.886 8.06337 273.743 10.3877L272.323 33.4195C271.995 38.7526 267.576 42.9069 262.234 42.9069Z" fill="#F0F2EE"/>
</g>
<mask id="mask6_140_4347" style="mask-type:luminance" maskUnits="userSpaceOnUse" x="240" y="6" width="34" height="37">
<path d="M262.234 42.9069H252.515C247.173 42.9069 242.753 38.7512 242.424 33.4195L241.005 10.3877C240.861 8.06192 242.708 6.09863 245.037 6.09863H269.71C272.04 6.09863 273.886 8.06337 273.743 10.3877L272.323 33.4195C271.995 38.7526 267.576 42.9069 262.234 42.9069Z" fill="white"/>
</mask>
<g mask="url(#mask6_140_4347)">
<path d="M277.426 3.67859H234.691V10.7734H277.426V3.67859Z" fill="#333333"/>
</g>
<mask id="mask7_140_4347" style="mask-type:luminance" maskUnits="userSpaceOnUse" x="240" y="6" width="34" height="37">
<path d="M262.234 42.9069H252.515C247.173 42.9069 242.753 38.7512 242.424 33.4195L241.005 10.3877C240.861 8.06192 242.708 6.09863 245.037 6.09863H269.71C272.04 6.09863 273.886 8.06337 273.743 10.3877L272.323 33.4195C271.995 38.7526 267.576 42.9069 262.234 42.9069Z" fill="white"/>
</mask>
<g mask="url(#mask7_140_4347)">
<path opacity="0.1" d="M282.058 -0.0769043H257.375V46.7465H282.058V-0.0769043Z" fill="black"/>
</g>
<path d="M260.548 42.9069H253.447C251.962 42.9069 250.759 44.1104 250.759 45.5952V46.1621H263.236V45.5952C263.237 44.1118 262.034 42.9069 260.548 42.9069Z" fill="#333333"/>
<path d="M251.719 44.5352H240.284V45.0775H251.719V44.5352Z" fill="#333333"/>
<path d="M242.057 45.1776L235.328 45.3066V44.3062L242.057 44.4352V45.1776Z" fill="#333333"/>
<mask id="mask8_140_4347" style="mask-type:luminance" maskUnits="userSpaceOnUse" x="227" y="104" width="61" height="19">
<path d="M287.107 104.462H227.641V122.664H287.107V104.462Z" fill="white"/>
</mask>
<g mask="url(#mask8_140_4347)">
<path opacity="0.1" d="M293.202 96.451H257.375V128H293.202V96.451Z" fill="black"/>
</g>
<path d="M482.061 66.3012H303.775V124.217H482.061V66.3012Z" fill="#D7D9D5"/>
<mask id="mask9_140_4347" style="mask-type:luminance" maskUnits="userSpaceOnUse" x="303" y="57" width="180" height="30">
<path d="M472.651 57.4142H313.184C307.987 57.4142 303.774 61.6264 303.774 66.8247V86.3721H482.061V66.8247C482.061 61.6264 477.848 57.4142 472.651 57.4142Z" fill="white"/>
</mask>
<g mask="url(#mask9_140_4347)">
<path d="M472.651 57.4142H313.184C307.987 57.4142 303.774 61.6264 303.774 66.8247V86.3721H482.061V66.8247C482.061 61.6264 477.848 57.4142 472.651 57.4142Z" fill="#F0F2EE"/>
</g>
<mask id="mask10_140_4347" style="mask-type:luminance" maskUnits="userSpaceOnUse" x="303" y="57" width="180" height="30">
<path d="M472.651 57.4142H313.184C307.987 57.4142 303.774 61.6264 303.774 66.8247V86.3721H482.061V66.8247C482.061 61.6264 477.848 57.4142 472.651 57.4142Z" fill="white"/>
</mask>
<g mask="url(#mask10_140_4347)">
<path d="M490.277 55.0318H297.669V67.3032H490.277V55.0318Z" fill="#333333"/>
</g>
<path d="M482.061 117.256H303.775V124.216H482.061V117.256Z" fill="#333333"/>
<path d="M482.061 87.7119H303.775V88.4384H482.061V87.7119Z" fill="#333333"/>
<mask id="mask11_140_4347" style="mask-type:luminance" maskUnits="userSpaceOnUse" x="319" y="30" width="20" height="27">
<path d="M338.485 56.3658H319.325L322 30.6283H335.81L338.485 56.3658Z" fill="white"/>
</mask>
<g mask="url(#mask11_140_4347)">
<path d="M338.485 56.3658H319.325L322 30.6283H335.81L338.485 56.3658Z" fill="#FDE2BE"/>
</g>
<mask id="mask12_140_4347" style="mask-type:luminance" maskUnits="userSpaceOnUse" x="319" y="30" width="20" height="27">
<path d="M338.485 56.3658H319.325L322 30.6283H335.81L338.485 56.3658Z" fill="white"/>
</mask>
<g mask="url(#mask12_140_4347)">
<path d="M340.021 54.7346H317.788V56.6674H340.021V54.7346Z" fill="#DD4528"/>
<path d="M340.021 30.1454H317.788V32.0783H340.021V30.1454Z" fill="#DD4528"/>
<path d="M333.678 43.4971C333.678 46.1332 331.541 48.2705 328.905 48.2705C326.269 48.2705 324.132 46.1332 324.132 43.4971C324.132 40.861 326.269 38.7237 328.905 38.7237C331.541 38.7237 333.678 40.861 333.678 43.4971Z" fill="#1A1208"/>
<path d="M338.784 41.3453H319.028V45.6503H338.784V41.3453Z" fill="#1A1208"/>
<path opacity="0.15" d="M348.48 27.608H328.905V58.9642H348.48V27.608Z" fill="black"/>
</g>
<mask id="mask13_140_4347" style="mask-type:luminance" maskUnits="userSpaceOnUse" x="319" y="23" width="20" height="27">
<path d="M338.485 49.1158H319.325L322 23.3783H335.81L338.485 49.1158Z" fill="white"/>
</mask>
<g mask="url(#mask13_140_4347)">
<path d="M338.485 49.1158H319.325L322 23.3783H335.81L338.485 49.1158Z" fill="#FDE2BE"/>
</g>
<mask id="mask14_140_4347" style="mask-type:luminance" maskUnits="userSpaceOnUse" x="319" y="23" width="20" height="27">
<path d="M338.485 49.1158H319.325L322 23.3783H335.81L338.485 49.1158Z" fill="white"/>
</mask>
<g mask="url(#mask14_140_4347)">
<path d="M340.021 47.4846H317.788V49.4174H340.021V47.4846Z" fill="#DD4528"/>
<path d="M340.021 22.8954H317.788V24.8283H340.021V22.8954Z" fill="#DD4528"/>
<path d="M333.678 36.2471C333.678 38.8832 331.541 41.0205 328.905 41.0205C326.269 41.0205 324.132 38.8832 324.132 36.2471C324.132 33.611 326.269 31.4737 328.905 31.4737C331.541 31.4737 333.678 33.611 333.678 36.2471Z" fill="#1A1208"/>
<path d="M338.784 34.0953H319.028V38.4003H338.784V34.0953Z" fill="#1A1208"/>
<path opacity="0.15" d="M348.48 20.358H328.905V51.7142H348.48V20.358Z" fill="black"/>
</g>
<mask id="mask15_140_4347" style="mask-type:luminance" maskUnits="userSpaceOnUse" x="319" y="16" width="20" height="26">
<path d="M338.485 41.8658H319.325L322 16.1283H335.81L338.485 41.8658Z" fill="white"/>
</mask>
<g mask="url(#mask15_140_4347)">
<path d="M338.485 41.8658H319.325L322 16.1283H335.81L338.485 41.8658Z" fill="#FDE2BE"/>
</g>
<mask id="mask16_140_4347" style="mask-type:luminance" maskUnits="userSpaceOnUse" x="319" y="16" width="20" height="26">
<path d="M338.485 41.8658H319.325L322 16.1283H335.81L338.485 41.8658Z" fill="white"/>
</mask>
<g mask="url(#mask16_140_4347)">
<path d="M340.021 40.2346H317.788V42.1674H340.021V40.2346Z" fill="#DD4528"/>
<path d="M340.021 15.6454H317.788V17.5783H340.021V15.6454Z" fill="#DD4528"/>
<path d="M333.678 28.9971C333.678 31.6332 331.541 33.7705 328.905 33.7705C326.269 33.7705 324.132 31.6332 324.132 28.9971C324.132 26.361 326.269 24.2237 328.905 24.2237C331.541 24.2237 333.678 26.361 333.678 28.9971Z" fill="#1A1208"/>
<path d="M338.784 26.8453H319.028V31.1503H338.784V26.8453Z" fill="#1A1208"/>
<path opacity="0.15" d="M348.48 13.108H328.905V44.4642H348.48V13.108Z" fill="black"/>
</g>
<mask id="mask17_140_4347" style="mask-type:luminance" maskUnits="userSpaceOnUse" x="342" y="30" width="20" height="27">
<path d="M361.685 56.3658H342.525L345.2 30.6283H359.01L361.685 56.3658Z" fill="white"/>
</mask>
<g mask="url(#mask17_140_4347)">
<path d="M361.685 56.3658H342.525L345.2 30.6283H359.01L361.685 56.3658Z" fill="#FDE2BE"/>
</g>
<mask id="mask18_140_4347" style="mask-type:luminance" maskUnits="userSpaceOnUse" x="342" y="30" width="20" height="27">
<path d="M361.685 56.3658H342.525L345.2 30.6283H359.01L361.685 56.3658Z" fill="white"/>
</mask>
<g mask="url(#mask18_140_4347)">
<path d="M363.221 54.7346H340.988V56.6674H363.221V54.7346Z" fill="#DD4528"/>
<path d="M363.221 30.1454H340.988V32.0783H363.221V30.1454Z" fill="#DD4528"/>
<path d="M356.878 43.4971C356.878 46.1332 354.741 48.2705 352.105 48.2705C349.469 48.2705 347.332 46.1332 347.332 43.4971C347.332 40.861 349.469 38.7237 352.105 38.7237C354.741 38.7251 356.878 40.861 356.878 43.4971Z" fill="#1A1208"/>
<path d="M361.984 41.3453H342.228V45.6503H361.984V41.3453Z" fill="#1A1208"/>
<path opacity="0.15" d="M371.68 27.608H352.105V58.9642H371.68V27.608Z" fill="black"/>
</g>
<mask id="mask19_140_4347" style="mask-type:luminance" maskUnits="userSpaceOnUse" x="424" y="2" width="42" height="55">
<path d="M465.579 56.4876H424.979L427.759 2.35327H462.801L465.579 56.4876Z" fill="white"/>
</mask>
<g mask="url(#mask19_140_4347)">
<path d="M465.579 56.4876H424.979L427.759 2.35327H462.801L465.579 56.4876Z" fill="#A88B60"/>
</g>
<mask id="mask20_140_4347" style="mask-type:luminance" maskUnits="userSpaceOnUse" x="424" y="2" width="42" height="55">
<path d="M465.579 56.4876H424.979L427.759 2.35327H462.801L465.579 56.4876Z" fill="white"/>
</mask>
<g mask="url(#mask20_140_4347)">
<path opacity="0.1" d="M463.331 4.16577H427.142V7.79077H463.331V4.16577Z" fill="black"/>
</g>
<mask id="mask21_140_4347" style="mask-type:luminance" maskUnits="userSpaceOnUse" x="424" y="2" width="42" height="55">
<path d="M465.579 56.4876H424.979L427.759 2.35327H462.801L465.579 56.4876Z" fill="white"/>
</mask>
<g mask="url(#mask21_140_4347)">
<path d="M445.28 40.1446C451.203 40.1446 456.005 35.3432 456.005 29.4204C456.005 23.4976 451.203 18.6962 445.28 18.6962C439.358 18.6962 434.556 23.4976 434.556 29.4204C434.556 35.3432 439.358 40.1446 445.28 40.1446Z" fill="#1A1208"/>
</g>
<mask id="mask22_140_4347" style="mask-type:luminance" maskUnits="userSpaceOnUse" x="424" y="2" width="42" height="55">
<path d="M465.579 56.4876H424.979L427.759 2.35327H462.801L465.579 56.4876Z" fill="white"/>
</mask>
<g mask="url(#mask22_140_4347)">
<path opacity="0.1" d="M475.174 1.14545H445.279V60.4751H475.174V1.14545Z" fill="black"/>
</g>
<path d="M464.371 6.58293H426.188L426.384 3.15949C426.41 2.70709 426.784 2.35327 427.238 2.35327H463.323C463.777 2.35327 464.151 2.70709 464.177 3.15949L464.371 6.58293Z" fill="#BA996A"/>
<path d="M447.062 4.83136H443.498C443.356 4.83136 443.242 4.71681 443.242 4.57471C443.242 4.43261 443.356 4.31805 443.498 4.31805H447.062C447.205 4.31805 447.319 4.43261 447.319 4.57471C447.319 4.71536 447.203 4.83136 447.062 4.83136Z" fill="#1A1208"/>
<path d="M217.871 81.6872L215.579 52.8757C215.502 51.9129 214.699 51.1719 213.734 51.1719H199.311V56.9719H209.58C210.112 56.9719 210.559 57.375 210.612 57.9057L212.889 80.2488C213.053 81.8525 214.403 83.0719 216.014 83.0719H216.592C217.342 83.0705 217.931 82.4325 217.871 81.6872Z" fill="#141414"/>
<path d="M171.309 55.4306H181.005V51.2908H175.295L171.309 54.1618V55.4306Z" fill="#141414"/>
<mask id="mask23_140_4347" style="mask-type:luminance" maskUnits="userSpaceOnUse" x="177" y="42" width="26" height="16">
<path d="M189.995 42.6517C183.148 42.6517 177.597 48.2023 177.597 55.0492V57.6955H202.392V55.0492C202.392 48.2023 196.842 42.6517 189.995 42.6517Z" fill="white"/>
</mask>
<g mask="url(#mask23_140_4347)">
<path d="M189.995 42.6517C183.148 42.6517 177.597 48.2023 177.597 55.0492V57.6955H202.392V55.0492C202.392 48.2023 196.842 42.6517 189.995 42.6517Z" fill="#141414"/>
</g>
<mask id="mask24_140_4347" style="mask-type:luminance" maskUnits="userSpaceOnUse" x="177" y="42" width="26" height="16">
<path d="M189.995 42.6517C183.148 42.6517 177.597 48.2023 177.597 55.0492V57.6955H202.392V55.0492C202.392 48.2023 196.842 42.6517 189.995 42.6517Z" fill="white"/>
</mask>
<g mask="url(#mask24_140_4347)">
<path opacity="0.25" d="M185.446 40.2056C185.446 40.2056 191.01 44.9181 189.995 62.0469L207.74 61.1407L207.015 43.5594L185.446 40.2056Z" fill="black"/>
</g>
<path d="M202.392 56.4877H177.597V56.8806H202.392V56.4877Z" fill="#F0F2EE"/>
<mask id="mask25_140_4347" style="mask-type:luminance" maskUnits="userSpaceOnUse" x="170" y="57" width="40" height="68">
<path d="M202.613 57.6955H177.597C175.994 57.6955 174.664 58.9381 174.557 60.5375L170.611 119.1C170.405 122.161 172.833 124.757 175.899 124.757H204.309C207.378 124.757 209.805 122.161 209.597 119.1L205.652 60.5375C205.545 58.9381 204.217 57.6955 202.613 57.6955Z" fill="white"/>
</mask>
<g mask="url(#mask25_140_4347)">
<path d="M202.613 57.6955H177.597C175.994 57.6955 174.664 58.9381 174.557 60.5375L170.611 119.1C170.405 122.161 172.833 124.757 175.899 124.757H204.309C207.378 124.757 209.805 122.161 209.597 119.1L205.652 60.5375C205.545 58.9381 204.217 57.6955 202.613 57.6955Z" fill="#F0F2EE"/>
</g>
<mask id="mask26_140_4347" style="mask-type:luminance" maskUnits="userSpaceOnUse" x="170" y="57" width="40" height="68">
<path d="M202.613 57.6955H177.597C175.994 57.6955 174.664 58.9381 174.557 60.5375L170.611 119.1C170.405 122.161 172.833 124.757 175.899 124.757H204.309C207.378 124.757 209.805 122.161 209.597 119.1L205.652 60.5375C205.545 58.9381 204.217 57.6955 202.613 57.6955Z" fill="white"/>
</mask>
<g mask="url(#mask26_140_4347)">
<path d="M216.892 116.42H164.692V130.014H216.892V116.42Z" fill="#141414"/>
<path d="M216.892 117.915H164.692V119.41H216.892V117.915Z" fill="#F0F2EE"/>
<path opacity="0.15" d="M236.467 40.4767H189.995V136.902H236.467V40.4767Z" fill="black"/>
</g>
<mask id="mask27_140_4347" style="mask-type:luminance" maskUnits="userSpaceOnUse" x="392" y="8" width="27" height="48">
<path d="M418.734 8.74347H392.63V55.8888H418.734V8.74347Z" fill="white"/>
</mask>
<g mask="url(#mask27_140_4347)">
<path d="M418.734 8.74347H392.63V55.8888H418.734V8.74347Z" fill="#F0F2EE"/>
</g>
<mask id="mask28_140_4347" style="mask-type:luminance" maskUnits="userSpaceOnUse" x="392" y="8" width="27" height="48">
<path d="M418.734 8.74347H392.63V55.8888H418.734V8.74347Z" fill="white"/>
</mask>
<g mask="url(#mask28_140_4347)">
<path d="M414.362 31.7622C414.362 36.5559 410.476 40.4419 405.682 40.4419C400.889 40.4419 397.003 36.5559 397.003 31.7622C397.003 26.9685 400.889 23.0825 405.682 23.0825C410.476 23.0825 414.362 26.9685 414.362 31.7622Z" fill="#1A1208"/>
<path d="M422.582 27.4543H388.784V36.0702H422.582V27.4543Z" fill="#1A1208"/>
</g>
<mask id="mask29_140_4347" style="mask-type:luminance" maskUnits="userSpaceOnUse" x="392" y="8" width="27" height="48">
<path d="M418.734 8.74347H392.63V55.8888H418.734V8.74347Z" fill="white"/>
</mask>
<g mask="url(#mask29_140_4347)">
<path opacity="0.1" d="M431.337 -4.37323H405.651V60.4389H431.337V-4.37323Z" fill="black"/>
</g>
<mask id="mask30_140_4347" style="mask-type:luminance" maskUnits="userSpaceOnUse" x="392" y="8" width="27" height="48">
<path d="M418.734 8.74347H392.63V55.8888H418.734V8.74347Z" fill="white"/>
</mask>
<g mask="url(#mask30_140_4347)">
<path opacity="0.1" d="M393.015 13.4705H422.611V23.1463C422.611 23.1463 418.414 14.9205 393.015 13.4705Z" fill="black"/>
</g>
<mask id="mask31_140_4347" style="mask-type:luminance" maskUnits="userSpaceOnUse" x="391" y="6" width="29" height="9">
<path d="M417.597 14.0302H393.769C392.502 14.0302 391.474 13.0021 391.474 11.7348V8.53179C391.474 7.26449 392.502 6.23645 393.769 6.23645H417.597C418.864 6.23645 419.892 7.26449 419.892 8.53179V11.7348C419.892 13.0021 418.864 14.0302 417.597 14.0302Z" fill="white"/>
</mask>
<g mask="url(#mask31_140_4347)">
<path d="M417.597 14.0302H393.769C392.502 14.0302 391.474 13.0021 391.474 11.7348V8.53179C391.474 7.26449 392.502 6.23645 393.769 6.23645H417.597C418.864 6.23645 419.892 7.26449 419.892 8.53179V11.7348C419.892 13.0021 418.864 14.0302 417.597 14.0302Z" fill="#F0F2EE"/>
</g>
<mask id="mask32_140_4347" style="mask-type:luminance" maskUnits="userSpaceOnUse" x="391" y="6" width="29" height="9">
<path d="M417.597 14.0302H393.769C392.502 14.0302 391.474 13.0021 391.474 11.7348V8.53179C391.474 7.26449 392.502 6.23645 393.769 6.23645H417.597C418.864 6.23645 419.892 7.26449 419.892 8.53179V11.7348C419.892 13.0021 418.864 14.0302 417.597 14.0302Z" fill="white"/>
</mask>
<g mask="url(#mask32_140_4347)">
<path d="M420.921 7.65021H390.572V8.74353H420.921V7.65021Z" fill="#1A1208"/>
</g>
<mask id="mask33_140_4347" style="mask-type:luminance" maskUnits="userSpaceOnUse" x="391" y="6" width="29" height="9">
<path d="M417.597 14.0302H393.769C392.502 14.0302 391.474 13.0021 391.474 11.7348V8.53179C391.474 7.26449 392.502 6.23645 393.769 6.23645H417.597C418.864 6.23645 419.892 7.26449 419.892 8.53179V11.7348C419.892 13.0021 418.864 14.0302 417.597 14.0302Z" fill="white"/>
</mask>
<g mask="url(#mask33_140_4347)">
<path d="M420.921 10.9301H390.572V12.0234H420.921V10.9301Z" fill="#1A1208"/>
</g>
<mask id="mask34_140_4347" style="mask-type:luminance" maskUnits="userSpaceOnUse" x="391" y="6" width="29" height="9">
<path d="M417.597 14.0302H393.769C392.502 14.0302 391.474 13.0021 391.474 11.7348V8.53179C391.474 7.26449 392.502 6.23645 393.769 6.23645H417.597C418.864 6.23645 419.892 7.26449 419.892 8.53179V11.7348C419.892 13.0021 418.864 14.0302 417.597 14.0302Z" fill="white"/>
</mask>
<g mask="url(#mask34_140_4347)">
<path opacity="0.1" d="M431.337 -4.37323H405.651V60.4389H431.337V-4.37323Z" fill="black"/>
</g>
<mask id="mask35_140_4347" style="mask-type:luminance" maskUnits="userSpaceOnUse" x="391" y="49" width="29" height="9">
<path d="M417.597 57.2388H393.769C392.502 57.2388 391.474 56.2107 391.474 54.9434V51.7418C391.474 50.4745 392.502 49.4465 393.769 49.4465H417.597C418.864 49.4465 419.892 50.4745 419.892 51.7418V54.9434C419.892 56.2107 418.864 57.2388 417.597 57.2388Z" fill="white"/>
</mask>
<g mask="url(#mask35_140_4347)">
<path d="M417.597 57.2388H393.769C392.502 57.2388 391.474 56.2107 391.474 54.9434V51.7418C391.474 50.4745 392.502 49.4465 393.769 49.4465H417.597C418.864 49.4465 419.892 50.4745 419.892 51.7418V54.9434C419.892 56.2107 418.864 57.2388 417.597 57.2388Z" fill="#F0F2EE"/>
</g>
<mask id="mask36_140_4347" style="mask-type:luminance" maskUnits="userSpaceOnUse" x="391" y="49" width="29" height="9">
<path d="M417.597 57.2388H393.769C392.502 57.2388 391.474 56.2107 391.474 54.9434V51.7418C391.474 50.4745 392.502 49.4465 393.769 49.4465H417.597C418.864 49.4465 419.892 50.4745 419.892 51.7418V54.9434C419.892 56.2107 418.864 57.2388 417.597 57.2388Z" fill="white"/>
</mask>
<g mask="url(#mask36_140_4347)">
<path d="M420.921 51.156H390.572V52.2493H420.921V51.156Z" fill="#1A1208"/>
</g>
<mask id="mask37_140_4347" style="mask-type:luminance" maskUnits="userSpaceOnUse" x="391" y="49" width="29" height="9">
<path d="M417.597 57.2388H393.769C392.502 57.2388 391.474 56.2107 391.474 54.9434V51.7418C391.474 50.4745 392.502 49.4465 393.769 49.4465H417.597C418.864 49.4465 419.892 50.4745 419.892 51.7418V54.9434C419.892 56.2107 418.864 57.2388 417.597 57.2388Z" fill="white"/>
</mask>
<g mask="url(#mask37_140_4347)">
<path d="M420.921 54.4344H390.572V55.5277H420.921V54.4344Z" fill="#1A1208"/>
</g>
<mask id="mask38_140_4347" style="mask-type:luminance" maskUnits="userSpaceOnUse" x="391" y="49" width="29" height="9">
<path d="M417.597 57.2388H393.769C392.502 57.2388 391.474 56.2107 391.474 54.9434V51.7418C391.474 50.4745 392.502 49.4465 393.769 49.4465H417.597C418.864 49.4465 419.892 50.4745 419.892 51.7418V54.9434C419.892 56.2107 418.864 57.2388 417.597 57.2388Z" fill="white"/>
</mask>
<g mask="url(#mask38_140_4347)">
<path opacity="0.1" d="M431.337 -4.37317H405.651V60.4389H431.337V-4.37317Z" fill="black"/>
</g>
<path opacity="0.1" d="M418.67 48.6083H392.63V49.4435H418.67V48.6083Z" fill="black"/>
<mask id="mask39_140_4347" style="mask-type:luminance" maskUnits="userSpaceOnUse" x="392" y="0" width="27" height="7">
<path d="M415.808 6.23644H395.559C393.942 6.23644 392.631 4.92565 392.631 3.3089V2.92755C392.631 1.3108 393.942 0 395.559 0H415.808C417.425 0 418.735 1.3108 418.735 2.92755V3.3089C418.735 4.92565 417.425 6.23644 415.808 6.23644Z" fill="white"/>
</mask>
<g mask="url(#mask39_140_4347)">
<path d="M415.808 6.23644H395.559C393.942 6.23644 392.631 4.92565 392.631 3.3089V2.92755C392.631 1.3108 393.942 0 395.559 0H415.808C417.425 0 418.735 1.3108 418.735 2.92755V3.3089C418.735 4.92565 417.425 6.23644 415.808 6.23644Z" fill="#141414"/>
</g>
<mask id="mask40_140_4347" style="mask-type:luminance" maskUnits="userSpaceOnUse" x="392" y="0" width="27" height="7">
<path d="M415.808 6.23644H395.559C393.942 6.23644 392.631 4.92565 392.631 3.3089V2.92755C392.631 1.3108 393.942 0 395.559 0H415.808C417.425 0 418.735 1.3108 418.735 2.92755V3.3089C418.735 4.92565 417.425 6.23644 415.808 6.23644Z" fill="white"/>
</mask>
<g mask="url(#mask40_140_4347)">
<path opacity="0.4" d="M431.337 3.11749H386.586V8.10114H431.337V3.11749Z" fill="black"/>
</g>
</svg>
