<svg width="298" height="143" viewBox="0 0 298 143" fill="none" xmlns="http://www.w3.org/2000/svg">
<path d="M177.398 124.241L150.857 79.3933L141.046 124.241H177.398Z" fill="#3A3837"/>
<path d="M159.945 41.085H50.814C47.1 41.085 43.6019 44.0954 42.9992 47.8093L31.7004 117.515C31.0992 121.229 33.6218 124.24 37.3358 124.24H146.467C150.181 124.24 153.679 121.229 154.282 117.515L165.579 47.8093C166.182 44.0968 163.659 41.085 159.945 41.085Z" fill="#C6C5C4"/>
<path d="M151.07 41.085H41.9369C38.2229 41.085 34.7248 44.0954 34.1221 47.8093L22.8247 117.515C22.222 121.229 24.7447 124.24 28.4601 124.24H137.592C141.306 124.24 144.804 121.229 145.406 117.515L156.704 47.8093C157.306 44.0968 154.784 41.085 151.07 41.085Z" fill="#E0E0E0"/>
<path d="M37.8207 117.232L49.027 48.0925H149.651L138.445 117.232H37.8207Z" fill="#3A3837"/>
<path d="M41.3061 80.2104C41.3061 78.146 39.6328 76.4727 37.5684 76.4727C35.504 76.4727 33.8306 78.146 33.8306 80.2104C33.8306 82.2748 35.504 83.9482 37.5684 83.9482C39.6328 83.9482 41.3061 82.2748 41.3061 80.2104Z" fill="#3A3837"/>
<path d="M57.9924 86.1753C59.2005 86.1753 60.1409 86.52 60.8122 87.211C61.4835 87.9005 61.8199 88.8633 61.8199 90.0995C61.8199 91.3356 61.5886 92.4666 61.1261 93.4911C60.6636 94.517 60.026 95.3018 59.2131 95.8484C58.4002 96.3935 57.457 96.6669 56.3821 96.6669C55.1319 96.6669 54.1663 96.3207 53.4852 95.6284C52.8054 94.9374 52.4635 93.9746 52.4635 92.7427C52.4635 91.5107 52.7032 90.3797 53.1825 89.3482C53.6604 88.3167 54.3135 87.5291 55.1375 86.9881C55.963 86.4458 56.9146 86.1753 57.9924 86.1753ZM59.0659 90.1289C59.0659 89.5991 58.9538 89.1843 58.731 88.8844C58.5081 88.5844 58.1844 88.4345 57.7625 88.4345C57.3028 88.4345 56.8796 88.6293 56.4942 89.0203C56.1088 89.4099 55.8004 89.9467 55.5706 90.6306C55.3394 91.3131 55.2258 92.0125 55.2258 92.7287C55.2258 93.8527 55.6897 94.4147 56.6203 94.4147C57.0618 94.4147 57.4724 94.2212 57.8508 93.8358C58.2292 93.4504 58.5264 92.9291 58.7422 92.2732C58.958 91.6201 59.0659 90.9039 59.0659 90.1289Z" fill="#FCFCFC"/>
<path d="M66.0022 92.8183L65.2145 96.5266H62.4886L64.6427 86.335H67.3406C68.5123 86.335 69.4092 86.5676 70.0315 87.0329C70.6551 87.4968 70.9649 88.1962 70.9649 89.1296C70.9649 89.8555 70.7995 90.4876 70.4701 91.0258C70.1408 91.5654 69.6503 91.976 69 92.2591L70.5612 95.8553L70.8401 96.5252H67.8704L66.5109 92.8169H66.0022V92.8183ZM66.4423 90.7483H66.7982C67.2397 90.7483 67.5901 90.6207 67.8507 90.3684C68.11 90.1148 68.2404 89.7602 68.2404 89.3048C68.2404 89.0174 68.1605 88.7974 68.0007 88.646C67.8395 88.4947 67.6069 88.4204 67.3 88.4204H66.93L66.4423 90.7483Z" fill="#FCFCFC"/>
<path d="M80.8579 90.1905C80.8579 91.4911 80.6281 92.6193 80.1684 93.5751C79.7087 94.5295 79.0402 95.2611 78.1643 95.767C77.2883 96.273 76.2512 96.5266 75.0515 96.5266H71.7678L73.9219 86.335H76.8216C78.104 86.335 79.0976 86.6713 79.8012 87.3426C80.5061 88.0153 80.8579 88.9642 80.8579 90.1905ZM75.4622 94.2674C75.9737 94.2674 76.4292 94.1049 76.8314 93.7811C77.2337 93.4546 77.5462 92.9921 77.769 92.3908C77.9933 91.7882 78.104 91.1029 78.104 90.3306C78.104 89.7504 77.9779 89.309 77.727 89.009C77.4761 88.7091 77.1257 88.5591 76.6745 88.5591H76.1797L74.9801 94.2674H75.4622Z" fill="#FCFCFC"/>
<path d="M87.5851 96.5266H81.5334L83.6875 86.335H89.7392L89.2851 88.5451H85.9608L85.6328 90.1484H88.7273L88.2256 92.3586H85.1311L84.7331 94.2828H88.0574L87.5851 96.5266Z" fill="#FCFCFC"/>
<path d="M93.0706 92.8183L92.2829 96.5266H89.557L91.7111 86.335H94.409C95.5806 86.335 96.4776 86.5676 97.0998 87.0329C97.7235 87.4968 98.0346 88.1962 98.0346 89.1296C98.0346 89.8555 97.8693 90.4876 97.5399 91.0258C97.2106 91.5654 96.72 91.976 96.0698 92.2591L97.631 95.8553L97.9099 96.5252H94.9401L93.5807 92.8169H93.0706V92.8183ZM93.5106 90.7483H93.8666C94.3081 90.7483 94.6584 90.6207 94.9191 90.3684C95.1784 90.1148 95.3087 89.7602 95.3087 89.3048C95.3087 89.0174 95.2288 88.7974 95.0691 88.646C94.9079 88.4947 94.6753 88.4204 94.3683 88.4204H93.9983L93.5106 90.7483Z" fill="#FCFCFC"/>
<path d="M110.422 96.5266H107.696L108.568 92.3726H106.155L105.27 96.5266H102.544L104.699 86.335H107.424L106.644 90.1134H109.07L109.85 86.335H112.583L110.422 96.5266Z" fill="#FCFCFC"/>
<path d="M118.788 96.5266H112.736L114.89 86.335H120.941L120.488 88.5451H117.162L116.836 90.1484H119.93L119.428 92.3586H116.334L115.936 94.2828H119.262L118.788 96.5266Z" fill="#FCFCFC"/>
<path d="M124.275 92.8183L123.487 96.5266H120.761L122.915 86.335H125.612C126.783 86.335 127.68 86.5676 128.304 87.0329C128.926 87.4968 129.237 88.1962 129.237 89.1296C129.237 89.8555 129.072 90.4876 128.743 91.0258C128.413 91.5654 127.921 91.976 127.271 92.2591L128.832 95.8553L129.111 96.5252H126.141L124.782 92.8169H124.275V92.8183ZM124.713 90.7483H125.068C125.509 90.7483 125.86 90.6207 126.12 90.3684C126.381 90.1148 126.511 89.7602 126.511 89.3048C126.511 89.0174 126.432 88.7974 126.27 88.646C126.111 88.4947 125.877 88.4204 125.57 88.4204H125.2L124.713 90.7483Z" fill="#FCFCFC"/>
<path d="M136.091 96.5266H130.039L132.193 86.335H138.243L137.791 88.5451H134.465L134.137 90.1484H137.232L136.73 92.3586H133.635L133.237 94.2828H136.563L136.091 96.5266Z" fill="#FCFCFC"/>
<path d="M85.8093 65.8592V67.9138C85.8093 67.9628 85.8107 68.0104 85.8107 68.0595C85.8892 72.1631 89.25 75.4776 93.3732 75.4776H96.7704C100.892 75.4776 104.254 72.1631 104.333 68.0595C104.334 68.0118 104.334 67.9628 104.334 67.9138V65.8592V64.0779H85.8093V65.8592Z" fill="#FF9210"/>
<path d="M108.746 63.8311H108.324V60.689H81.8192V67.6025C81.8192 73.8125 86.873 78.8677 93.0844 78.8677H97.0548C100.587 78.8677 103.74 77.2322 105.807 74.6843H108.745C111.486 74.6843 113.716 72.2499 113.716 69.2577C113.717 66.2655 111.487 63.8311 108.746 63.8311ZM97.0548 77.3415H93.0844C87.7153 77.3415 83.3468 72.973 83.3468 67.6039V62.2166H106.794V67.6039C106.794 72.973 102.425 77.3415 97.0548 77.3415ZM108.746 72.8567H107.017C107.849 71.287 108.324 69.5001 108.324 67.6039V65.6601H108.746C110.48 65.6601 111.89 67.2746 111.89 69.2591C111.89 71.2422 110.48 72.8567 108.746 72.8567Z" fill="#FCFCFC"/>
<path d="M204.944 43.8255L185.631 24.2523C184.564 23.1675 185.326 21.3315 186.852 21.3315H200.007L204.944 43.8255Z" fill="#444241"/>
<path d="M225.944 11.0698L200.008 21.333H264.31L238.374 11.0698H225.944Z" fill="#444241"/>
<path d="M235.846 0.48584H228.584C227.147 0.48584 225.98 1.65188 225.98 3.08982V11.7258H238.45V3.08982C238.45 1.65188 237.284 0.48584 235.846 0.48584Z" fill="#444241"/>
<path d="M273.596 21.3289L268.334 38.4551H260.552L264.307 21.3289H273.596Z" fill="#444241"/>
<path d="M200.008 21.333L211.412 73.2821H224.891L220.897 21.333H200.008Z" fill="#FCFCFC"/>
<path d="M264.31 21.333H243.42L239.426 73.2821H252.906L264.31 21.333Z" fill="#C6C5C4"/>
<path d="M220.897 21.333L224.891 73.2821H239.426L243.421 21.333H220.897Z" fill="#E0E0E0"/>
<path d="M198.762 124.431L211.412 73.2822H224.891L220.461 124.431H198.762Z" fill="#FCFCFC"/>
<path d="M265.556 124.431H243.856L239.426 73.2822H252.906L265.556 124.431Z" fill="#C6C5C4"/>
<path d="M220.461 124.431L224.891 73.2822H239.426L243.856 124.431H220.461Z" fill="#E0E0E0"/>
<path d="M262.662 111.715H242.843H221.475H201.656L198.762 124.431H220.461H243.856H265.556L262.662 111.715Z" fill="#444241"/>
<path d="M254.966 71.6479H209.259C208.463 71.6479 207.819 72.2926 207.819 73.0887V76.7676C207.819 77.5636 208.463 78.2083 209.259 78.2083H254.966C255.762 78.2083 256.407 77.5636 256.407 76.7676V73.0887C256.408 72.2926 255.762 71.6479 254.966 71.6479Z" fill="#444241"/>
<path d="M266.869 26.5691H282.8L289.021 38.252L277.516 62.8692C275.927 66.2706 272.51 68.4457 268.755 68.4457C267.462 68.4457 266.413 67.3974 266.413 66.1038V59.863C266.413 58.5694 267.462 57.5211 268.755 57.5211H271.724L280.979 38.7074L278.35 33.4981H265.504L266.869 26.5691Z" fill="#444241"/>
<mask id="mask0_222_53151" style="mask-type:luminance" maskUnits="userSpaceOnUse" x="-1" y="117" width="299" height="14">
<path d="M4.57986 130.188H298V117.628H4.57986C2.05072 117.628 -8.56426e-05 120.44 -8.56426e-05 123.907C-0.000944435 127.376 2.04986 130.188 4.57986 130.188Z" fill="white"/>
</mask>
<g mask="url(#mask0_222_53151)">
<path d="M4.57986 130.188H298V117.628H4.57986C2.05072 117.628 -8.56426e-05 120.44 -8.56426e-05 123.907C-0.000944435 127.376 2.04986 130.188 4.57986 130.188Z" fill="#523F37"/>
</g>
<mask id="mask1_222_53151" style="mask-type:luminance" maskUnits="userSpaceOnUse" x="-1" y="130" width="299" height="13">
<path d="M4.57986 142.747H298V130.188H4.57986C2.05072 130.188 -8.56426e-05 132.999 -8.56426e-05 136.466C-0.000944435 139.935 2.04986 142.747 4.57986 142.747Z" fill="white"/>
</mask>
<g mask="url(#mask1_222_53151)">
<path opacity="0.2" d="M-14.0001 130H312.484V171.994H-14.0001V130Z" fill="black"/>
</g>
</svg>
