<svg width="184" height="191" viewBox="0 0 184 191" fill="none" xmlns="http://www.w3.org/2000/svg">
<path d="M184 129.473H102L118.626 190.926H167.374L184 129.473Z" fill="#F4F4F4"/>
<path d="M165.841 129.473H102L103.275 134.184H164.566L149.214 190.926H167.374L184 129.473H165.841Z" fill="#E0E0E0"/>
<path d="M172.872 129.302C174.854 123.682 175.966 117.417 175.966 110.806C175.966 86.6128 161.146 67 142.863 67C124.581 67 109.76 86.6128 109.76 110.806C109.76 117.417 110.873 123.681 112.854 129.302H172.872Z" fill="#1DB295"/>
<path d="M142.864 67.001C140.052 67.001 137.323 67.4691 134.716 68.3421C149.058 73.1471 159.67 90.3354 159.67 110.807C159.67 117.418 158.557 123.683 156.576 129.303H172.873C174.855 123.683 175.967 117.418 175.967 110.807C175.967 86.6127 161.147 67.001 142.864 67.001Z" fill="#138C75"/>
<path d="M132.593 97.8967C132.593 99.022 131.681 99.9336 130.556 99.9336C129.431 99.9336 128.519 99.022 128.519 97.8967C128.519 96.7715 129.431 95.8599 130.556 95.8599C131.681 95.8599 132.593 96.7715 132.593 97.8967Z" fill="#138C75"/>
<path d="M150.928 105.028C150.928 106.341 149.864 107.405 148.551 107.405C147.239 107.405 146.175 106.341 146.175 105.028C146.175 103.715 147.239 102.651 148.551 102.651C149.864 102.65 150.928 103.714 150.928 105.028Z" fill="#138C75"/>
<path d="M132.933 119.796C132.933 121.203 131.793 122.342 130.387 122.342C128.982 122.342 127.841 121.202 127.841 119.796C127.841 118.391 128.981 117.25 130.387 117.25C131.794 117.25 132.933 118.39 132.933 119.796Z" fill="#138C75"/>
<path d="M136.668 77.356C136.668 78.7626 135.527 79.9018 134.122 79.9018C132.715 79.9018 131.575 78.7615 131.575 77.356C131.575 75.9494 132.715 74.8091 134.122 74.8091C135.527 74.8091 136.668 75.9494 136.668 77.356Z" fill="#138C75"/>
<path d="M115.617 107.064C116.742 107.064 117.654 106.152 117.654 105.027C117.654 103.902 116.742 102.99 115.617 102.99C114.492 102.99 113.58 103.902 113.58 105.027C113.58 106.152 114.492 107.064 115.617 107.064Z" fill="#138C75"/>
<path d="M160.434 119.286C160.434 120.974 159.066 122.342 157.378 122.342C155.69 122.342 154.322 120.974 154.322 119.286C154.322 117.598 155.69 116.23 157.378 116.23C159.066 116.23 160.434 117.599 160.434 119.286Z" fill="#138C75"/>
<path d="M157.038 92.4645C159.101 92.4645 160.773 90.7925 160.773 88.73C160.773 86.6676 159.101 84.9956 157.038 84.9956C154.976 84.9956 153.304 86.6676 153.304 88.73C153.304 90.7925 154.976 92.4645 157.038 92.4645Z" fill="#138C75"/>
<mask id="mask0_222_53152" style="mask-type:luminance" maskUnits="userSpaceOnUse" x="13" y="103" width="63" height="9">
<path d="M75.5769 103.024H13.4023V111.636H75.5769V103.024Z" fill="white"/>
</mask>
<g mask="url(#mask0_222_53152)">
<path d="M75.5769 103.024H13.4023V111.636H75.5769V103.024Z" fill="#3B2D29"/>
</g>
<mask id="mask1_222_53152" style="mask-type:luminance" maskUnits="userSpaceOnUse" x="13" y="103" width="63" height="9">
<path d="M75.5769 103.024H13.4023V111.636H75.5769V103.024Z" fill="white"/>
</mask>
<g mask="url(#mask1_222_53152)">
<path opacity="0.15" d="M84.2276 100.308L49.4175 106.814L49.5639 100.24L45.0225 100.181L39.1979 100.258V106.484L5.75942 100.308L4.80096 104.486L44.7775 117.479L84.928 104.486L84.2276 100.308Z" fill="black"/>
</g>
<mask id="mask2_222_53152" style="mask-type:luminance" maskUnits="userSpaceOnUse" x="63" y="15" width="26" height="176">
<path d="M83.446 190.674H88.9807L74.4241 15.376H63.1475L83.446 190.674Z" fill="white"/>
</mask>
<g mask="url(#mask2_222_53152)">
<path d="M83.446 190.674H88.9807L74.4241 15.376H63.1475L83.446 190.674Z" fill="#523F37"/>
</g>
<mask id="mask3_222_53152" style="mask-type:luminance" maskUnits="userSpaceOnUse" x="63" y="15" width="26" height="176">
<path d="M83.446 190.674H88.9807L74.4241 15.376H63.1475L83.446 190.674Z" fill="white"/>
</mask>
<g mask="url(#mask3_222_53152)">
<path opacity="0.15" d="M67.1712 7.6416L86.8289 194.302H77.9099L55.3566 9.53672L67.1712 7.6416Z" fill="black"/>
</g>
<path d="M44.3105 118.862L78.1419 112.34L77.2951 102.563L44.3105 109.124V118.862Z" fill="#523F37"/>
<mask id="mask4_222_53152" style="mask-type:luminance" maskUnits="userSpaceOnUse" x="0" y="15" width="26" height="176">
<path d="M5.56076 190.674H0.0246582L14.5812 15.376H25.8579L5.56076 190.674Z" fill="white"/>
</mask>
<g mask="url(#mask4_222_53152)">
<path d="M5.56076 190.674H0.0246582L14.5812 15.376H25.8579L5.56076 190.674Z" fill="#523F37"/>
</g>
<mask id="mask5_222_53152" style="mask-type:luminance" maskUnits="userSpaceOnUse" x="0" y="15" width="26" height="176">
<path d="M5.56076 190.674H0.0246582L14.5812 15.376H25.8579L5.56076 190.674Z" fill="white"/>
</mask>
<g mask="url(#mask5_222_53152)">
<path opacity="0.15" d="M21.8341 7.6416L2.17792 194.302H11.0969L33.6487 9.53672L21.8341 7.6416Z" fill="black"/>
</g>
<path d="M44.6948 118.862L10.8649 112.34L11.7117 102.563L44.6948 109.124V118.862Z" fill="#523F37"/>
<mask id="mask6_222_53152" style="mask-type:luminance" maskUnits="userSpaceOnUse" x="0" y="0" width="89" height="16">
<path d="M82.3745 15.3758H6.6062C2.958 15.3758 0 12.4178 0 8.76961V6.6062C0 2.958 2.958 0 6.6062 0H82.3745C86.0227 0 88.9807 2.958 88.9807 6.6062V8.76961C88.9807 12.4178 86.0227 15.3758 82.3745 15.3758Z" fill="white"/>
</mask>
<g mask="url(#mask6_222_53152)">
<path d="M82.3745 15.3758H6.6062C2.958 15.3758 0 12.4178 0 8.76961V6.6062C0 2.958 2.958 0 6.6062 0H82.3745C86.0227 0 88.9807 2.958 88.9807 6.6062V8.76961C88.9807 12.4178 86.0227 15.3758 82.3745 15.3758Z" fill="#DD4528"/>
</g>
<mask id="mask7_222_53152" style="mask-type:luminance" maskUnits="userSpaceOnUse" x="0" y="0" width="89" height="16">
<path d="M82.3745 15.3758H6.6062C2.958 15.3758 0 12.4178 0 8.76961V6.6062C0 2.958 2.958 0 6.6062 0H82.3745C86.0227 0 88.9807 2.958 88.9807 6.6062V8.76961C88.9807 12.4178 86.0227 15.3758 82.3745 15.3758Z" fill="white"/>
</mask>
<g mask="url(#mask7_222_53152)">
<path opacity="0.15" d="M88.9807 -4.61523H-2.51288V2.76526H88.9807V-4.61523Z" fill="black"/>
</g>
<mask id="mask8_222_53152" style="mask-type:luminance" maskUnits="userSpaceOnUse" x="11" y="15" width="67" height="7">
<path d="M73.1453 21.321H15.834C13.2313 21.321 11.1215 19.2112 11.1215 16.6085V15.376H77.8578V16.6085C77.8578 19.2112 75.748 21.321 73.1453 21.321Z" fill="white"/>
</mask>
<g mask="url(#mask8_222_53152)">
<path d="M73.1453 21.321H15.834C13.2313 21.321 11.1215 19.2112 11.1215 16.6085V15.376H77.8578V16.6085C77.8578 19.2112 75.748 21.321 73.1453 21.321Z" fill="#3B2D29"/>
</g>
<mask id="mask9_222_53152" style="mask-type:luminance" maskUnits="userSpaceOnUse" x="11" y="15" width="67" height="7">
<path d="M73.1453 21.321H15.834C13.2313 21.321 11.1215 19.2112 11.1215 16.6085V15.376H77.8578V16.6085C77.8578 19.2112 75.748 21.321 73.1453 21.321Z" fill="white"/>
</mask>
<g mask="url(#mask9_222_53152)">
<path opacity="0.15" d="M79.4469 13.0181H9.63525V16.7083H79.4469V13.0181Z" fill="black"/>
</g>
<path d="M47.0525 190.674H40.2868L38.8513 21.3208H50.128L47.0525 190.674Z" fill="#523F37"/>
</svg>
