<svg width="172" height="71" viewBox="0 0 172 71" fill="none" xmlns="http://www.w3.org/2000/svg">
<path d="M171.1 62.6602H0V70.393H171.1V62.6602Z" fill="#523F37"/>
<path opacity="0.5" d="M171.1 66.5273H0V70.3945H171.1V66.5273Z" fill="black"/>
<path opacity="0.5" d="M171.1 66.5273H0V70.3945H171.1V66.5273Z" fill="black"/>
<path d="M26.0493 45.6807C26.0493 45.6807 25.9913 16.8953 12.0626 0.563965C12.0626 0.563965 31.6884 6.53072 32.8165 45.6807H26.0493Z" fill="#01A200"/>
<path d="M29.3973 0L28.7767 45.6808H33.4008L29.3973 0Z" fill="#018700"/>
<mask id="mask0_140_5413" style="mask-type:luminance" maskUnits="userSpaceOnUse" x="12" y="0" width="21" height="46">
<path d="M26.0493 45.6807C26.0493 45.6807 25.9913 16.8953 12.0626 0.563965C12.0626 0.563965 31.6884 6.53072 32.8165 45.6807H26.0493Z" fill="white"/>
</mask>
<g mask="url(#mask0_140_5413)">
<path opacity="0.15" d="M12.3106 0.617676C12.3106 0.617676 27.5501 9.82374 29.0001 45.6503V49.706L12.2439 48.8606L12.3106 0.617676Z" fill="black"/>
</g>
<mask id="mask1_140_5413" style="mask-type:luminance" maskUnits="userSpaceOnUse" x="10" y="13" width="21" height="32">
<path d="M10.7112 13.5518C10.7112 13.5518 30.3369 18.1308 30.3369 44.2308H22.8926C22.8941 44.2308 24.0207 24.1542 10.7112 13.5518Z" fill="white"/>
</mask>
<g mask="url(#mask1_140_5413)">
<path d="M10.7112 13.5518C10.7112 13.5518 30.3369 18.1308 30.3369 44.2308H22.8926C22.8926 44.2308 24.0207 24.1542 10.7112 13.5518Z" fill="#01A200"/>
</g>
<mask id="mask2_140_5413" style="mask-type:luminance" maskUnits="userSpaceOnUse" x="10" y="13" width="21" height="32">
<path d="M10.7112 13.5518C10.7112 13.5518 30.3369 18.1308 30.3369 44.2308H22.8926C22.8941 44.2308 24.0207 24.1542 10.7112 13.5518Z" fill="white"/>
</mask>
<g mask="url(#mask2_140_5413)">
<path opacity="0.15" d="M6.03064 13.7098L10.7112 12.2671C10.7112 12.2671 26.8454 20.4132 26.9571 45.6505L20.0608 46.1014L6.03064 13.7098Z" fill="black"/>
</g>
<mask id="mask3_140_5413" style="mask-type:luminance" maskUnits="userSpaceOnUse" x="30" y="13" width="21" height="32">
<path d="M50.3933 13.5518C50.3933 13.5518 30.7676 18.1308 30.7676 44.2308H38.2119C38.2119 44.2308 37.0838 24.1542 50.3933 13.5518Z" fill="white"/>
</mask>
<g mask="url(#mask3_140_5413)">
<path d="M50.3933 13.5518C50.3933 13.5518 30.7676 18.1308 30.7676 44.2308H38.2119C38.2119 44.2308 37.0838 24.1542 50.3933 13.5518Z" fill="#01A200"/>
</g>
<mask id="mask4_140_5413" style="mask-type:luminance" maskUnits="userSpaceOnUse" x="30" y="13" width="21" height="32">
<path d="M50.3933 13.5518C50.3933 13.5518 30.7676 18.1308 30.7676 44.2308H38.2119C38.2119 44.2308 37.0838 24.1542 50.3933 13.5518Z" fill="white"/>
</mask>
<g mask="url(#mask4_140_5413)">
<path opacity="0.15" d="M55.0739 13.7098L50.3933 12.2671C50.3933 12.2671 34.2606 20.4132 34.1475 45.6505L41.0437 46.1014L55.0739 13.7098Z" fill="black"/>
</g>
<path d="M35.0552 45.6807C35.0552 45.6807 35.1132 16.8953 49.0419 0.563965C49.0419 0.563965 29.4162 6.53072 28.2881 45.6807H35.0552Z" fill="#01A200"/>
<mask id="mask5_140_5413" style="mask-type:luminance" maskUnits="userSpaceOnUse" x="28" y="0" width="22" height="46">
<path d="M35.0552 45.6807C35.0552 45.6807 35.1132 16.8953 49.0419 0.563965C49.0419 0.563965 29.4162 6.53072 28.2881 45.6807H35.0552Z" fill="white"/>
</mask>
<g mask="url(#mask5_140_5413)">
<path opacity="0.15" d="M48.6925 0.617676C48.6925 0.617676 34.8 9.82374 31.9 45.6503V49.706L48.7084 48.8606L48.6925 0.617676Z" fill="black"/>
</g>
<mask id="mask6_140_5413" style="mask-type:luminance" maskUnits="userSpaceOnUse" x="17" y="33" width="27" height="30">
<path d="M43.4827 33.147H17.1913L19.4127 61.5264C19.4591 62.1253 19.9593 62.5863 20.5596 62.5863H40.1144C40.7147 62.5863 41.2134 62.1238 41.2613 61.5264L43.4827 33.147Z" fill="white"/>
</mask>
<g mask="url(#mask6_140_5413)">
<path d="M43.4827 33.147H17.1913L19.4127 61.5264C19.4591 62.1253 19.9593 62.5863 20.5596 62.5863H40.1144C40.7147 62.5863 41.2134 62.1238 41.2613 61.5264L43.4827 33.147Z" fill="#141414"/>
</g>
<mask id="mask7_140_5413" style="mask-type:luminance" maskUnits="userSpaceOnUse" x="17" y="33" width="27" height="30">
<path d="M43.4827 33.147H17.1913L19.4127 61.5264C19.4591 62.1253 19.9593 62.5863 20.5596 62.5863H40.1144C40.7147 62.5863 41.2134 62.1238 41.2613 61.5264L43.4827 33.147Z" fill="white"/>
</mask>
<g mask="url(#mask7_140_5413)">
<path opacity="0.3" d="M39.9606 31.1809C39.9606 31.1809 39.3255 43.3392 32.5685 51.1764C25.813 59.0137 11.5986 56.0586 11.5986 56.0586V64.5309H43.1637L46.2116 31.1809H39.9606Z" fill="black"/>
</g>
<path d="M26.4815 62.5879H21.8328V63.2955H26.4815V62.5879Z" fill="#141414"/>
<path d="M38.8441 62.5879H34.1954V63.2955H38.8441V62.5879Z" fill="#141414"/>
<mask id="mask8_140_5413" style="mask-type:luminance" maskUnits="userSpaceOnUse" x="16" y="33" width="29" height="5">
<path d="M43.7741 37.961H16.9013L16.2937 33.147H44.3817L43.7741 37.961Z" fill="white"/>
</mask>
<g mask="url(#mask8_140_5413)">
<path d="M43.7741 37.961H16.9013L16.2937 33.147H44.3817L43.7741 37.961Z" fill="#141414"/>
</g>
<mask id="mask9_140_5413" style="mask-type:luminance" maskUnits="userSpaceOnUse" x="16" y="33" width="29" height="5">
<path d="M43.7741 37.961H16.9013L16.2937 33.147H44.3817L43.7741 37.961Z" fill="white"/>
</mask>
<g mask="url(#mask9_140_5413)">
<path opacity="0.3" d="M39.9606 31.1809C39.9606 31.1809 39.3255 43.3392 32.5685 51.1764C25.813 59.0137 11.5986 56.0586 11.5986 56.0586V64.5309H43.1637L46.2116 31.1809H39.9606Z" fill="black"/>
</g>
<path d="M77.9578 45.6807C77.9578 45.6807 77.8998 16.8953 63.9711 0.563965C63.9711 0.563965 83.5968 6.53072 84.7249 45.6807H77.9578Z" fill="#01A200"/>
<path d="M81.3043 0L80.6852 45.6808H85.3093L81.3043 0Z" fill="#018700"/>
<mask id="mask10_140_5413" style="mask-type:luminance" maskUnits="userSpaceOnUse" x="63" y="0" width="22" height="46">
<path d="M77.9578 45.6807C77.9578 45.6807 77.8998 16.8953 63.9711 0.563965C63.9711 0.563965 83.5968 6.53072 84.7249 45.6807H77.9578Z" fill="white"/>
</mask>
<g mask="url(#mask10_140_5413)">
<path opacity="0.15" d="M64.364 0.617676C64.364 0.617676 79.75 9.82374 81.2 45.6503V49.706L64.3698 48.8606L64.364 0.617676Z" fill="black"/>
</g>
<mask id="mask11_140_5413" style="mask-type:luminance" maskUnits="userSpaceOnUse" x="62" y="13" width="21" height="32">
<path d="M62.6196 13.5518C62.6196 13.5518 82.2454 18.1308 82.2454 44.2308H74.8011C74.8011 44.2308 75.9292 24.1542 62.6196 13.5518Z" fill="white"/>
</mask>
<g mask="url(#mask11_140_5413)">
<path d="M62.6196 13.5518C62.6196 13.5518 82.2454 18.1308 82.2454 44.2308H74.8011C74.8011 44.2308 75.9292 24.1542 62.6196 13.5518Z" fill="#01A200"/>
</g>
<mask id="mask12_140_5413" style="mask-type:luminance" maskUnits="userSpaceOnUse" x="62" y="13" width="21" height="32">
<path d="M62.6196 13.5518C62.6196 13.5518 82.2454 18.1308 82.2454 44.2308H74.8011C74.8011 44.2308 75.9292 24.1542 62.6196 13.5518Z" fill="white"/>
</mask>
<g mask="url(#mask12_140_5413)">
<path opacity="0.15" d="M57.9376 13.7098L62.6182 12.2671C62.6182 12.2671 78.7524 20.4132 78.864 45.6505L71.9678 46.1014L57.9376 13.7098Z" fill="black"/>
</g>
<mask id="mask13_140_5413" style="mask-type:luminance" maskUnits="userSpaceOnUse" x="82" y="13" width="21" height="32">
<path d="M102.3 13.5518C102.3 13.5518 82.6746 18.1308 82.6746 44.2308H90.1189C90.1189 44.2308 88.9908 24.1542 102.3 13.5518Z" fill="white"/>
</mask>
<g mask="url(#mask13_140_5413)">
<path d="M102.3 13.5518C102.3 13.5518 82.6746 18.1308 82.6746 44.2308H90.1189C90.1189 44.2308 88.9908 24.1542 102.3 13.5518Z" fill="#01A200"/>
</g>
<mask id="mask14_140_5413" style="mask-type:luminance" maskUnits="userSpaceOnUse" x="82" y="13" width="21" height="32">
<path d="M102.3 13.5518C102.3 13.5518 82.6746 18.1308 82.6746 44.2308H90.1189C90.1189 44.2308 88.9908 24.1542 102.3 13.5518Z" fill="white"/>
</mask>
<g mask="url(#mask14_140_5413)">
<path opacity="0.15" d="M106.981 13.7098L102.3 12.2671C102.3 12.2671 86.1661 20.4132 86.0544 45.6505L92.9507 46.1014L106.981 13.7098Z" fill="black"/>
</g>
<path d="M86.9622 45.6807C86.9622 45.6807 87.0202 16.8953 100.949 0.563965C100.949 0.563965 81.3232 6.53072 80.1951 45.6807H86.9622Z" fill="#01A200"/>
<mask id="mask15_140_5413" style="mask-type:luminance" maskUnits="userSpaceOnUse" x="80" y="0" width="21" height="46">
<path d="M86.9622 45.6807C86.9622 45.6807 87.0202 16.8953 100.949 0.563965C100.949 0.563965 81.3232 6.53072 80.1951 45.6807H86.9622Z" fill="white"/>
</mask>
<g mask="url(#mask15_140_5413)">
<path opacity="0.15" d="M101.471 0.617676C101.471 0.617676 85.5499 9.82374 85.5499 45.6503V49.706L101.922 48.8606L101.471 0.617676Z" fill="black"/>
</g>
<mask id="mask16_140_5413" style="mask-type:luminance" maskUnits="userSpaceOnUse" x="69" y="33" width="27" height="30">
<path d="M95.3911 33.147H69.0997L71.3212 61.5264C71.3676 62.1253 71.8678 62.5863 72.4681 62.5863H92.0228C92.6231 62.5863 93.1219 62.1238 93.1697 61.5264L95.3911 33.147Z" fill="white"/>
</mask>
<g mask="url(#mask16_140_5413)">
<path d="M95.3911 33.147H69.0997L71.3212 61.5264C71.3676 62.1253 71.8678 62.5863 72.4681 62.5863H92.0228C92.6231 62.5863 93.1219 62.1238 93.1697 61.5264L95.3911 33.147Z" fill="#141414"/>
</g>
<mask id="mask17_140_5413" style="mask-type:luminance" maskUnits="userSpaceOnUse" x="69" y="33" width="27" height="30">
<path d="M95.3911 33.147H69.0997L71.3212 61.5264C71.3676 62.1253 71.8678 62.5863 72.4681 62.5863H92.0228C92.6231 62.5863 93.1219 62.1238 93.1697 61.5264L95.3911 33.147Z" fill="white"/>
</mask>
<g mask="url(#mask17_140_5413)">
<path opacity="0.3" d="M91.8676 31.1809C91.8676 31.1809 92.104 43.3392 85.347 51.1764C78.5914 59.0137 65.2485 56.0586 65.2485 56.0586V64.5309H95.0707L98.1186 31.1809H91.8676Z" fill="black"/>
</g>
<path d="M78.3884 62.5879H73.7397V63.2955H78.3884V62.5879Z" fill="#141414"/>
<path d="M90.7511 62.5879H86.1024V63.2955H90.7511V62.5879Z" fill="#141414"/>
<mask id="mask18_140_5413" style="mask-type:luminance" maskUnits="userSpaceOnUse" x="68" y="33" width="29" height="5">
<path d="M95.6825 37.961H68.8082L68.2021 33.147H96.2886L95.6825 37.961Z" fill="white"/>
</mask>
<g mask="url(#mask18_140_5413)">
<path d="M95.6825 37.961H68.8082L68.2021 33.147H96.2886L95.6825 37.961Z" fill="#141414"/>
</g>
<mask id="mask19_140_5413" style="mask-type:luminance" maskUnits="userSpaceOnUse" x="68" y="33" width="29" height="5">
<path d="M95.6825 37.961H68.8082L68.2021 33.147H96.2886L95.6825 37.961Z" fill="white"/>
</mask>
<g mask="url(#mask19_140_5413)">
<path opacity="0.3" d="M91.8675 31.1809C91.8675 31.1809 92.1039 43.3392 85.3469 51.1764C78.5913 59.0137 65.2484 56.0586 65.2484 56.0586V64.5309H95.0706L98.1185 31.1809H91.8675Z" fill="black"/>
</g>
<path d="M130.916 45.6807C130.916 45.6807 130.858 16.8953 116.93 0.563965C116.93 0.563965 136.555 6.53072 137.683 45.6807H130.916Z" fill="#01A200"/>
<path d="M134.263 0L133.642 45.6808H138.268L134.263 0Z" fill="#018700"/>
<mask id="mask20_140_5413" style="mask-type:luminance" maskUnits="userSpaceOnUse" x="116" y="0" width="22" height="46">
<path d="M130.916 45.6807C130.916 45.6807 130.858 16.8953 116.93 0.563965C116.93 0.563965 136.555 6.53072 137.683 45.6807H130.916Z" fill="white"/>
</mask>
<g mask="url(#mask20_140_5413)">
<path opacity="0.15" d="M116.943 0.617676C116.943 0.617676 131.95 9.82374 133.4 45.6503V49.706L116.76 48.8606L116.943 0.617676Z" fill="black"/>
</g>
<mask id="mask21_140_5413" style="mask-type:luminance" maskUnits="userSpaceOnUse" x="115" y="13" width="21" height="32">
<path d="M115.578 13.5518C115.578 13.5518 135.204 18.1308 135.204 44.2308H127.76C127.76 44.2308 128.888 24.1542 115.578 13.5518Z" fill="white"/>
</mask>
<g mask="url(#mask21_140_5413)">
<path d="M115.578 13.5518C115.578 13.5518 135.204 18.1308 135.204 44.2308H127.76C127.76 44.2308 128.888 24.1542 115.578 13.5518Z" fill="#01A200"/>
</g>
<mask id="mask22_140_5413" style="mask-type:luminance" maskUnits="userSpaceOnUse" x="115" y="13" width="21" height="32">
<path d="M115.578 13.5518C115.578 13.5518 135.204 18.1308 135.204 44.2308H127.76C127.76 44.2308 128.888 24.1542 115.578 13.5518Z" fill="white"/>
</mask>
<g mask="url(#mask22_140_5413)">
<path opacity="0.15" d="M110.896 13.7098L115.577 12.2671C115.577 12.2671 131.709 20.4132 131.822 45.6505L124.926 46.1014L110.896 13.7098Z" fill="black"/>
</g>
<mask id="mask23_140_5413" style="mask-type:luminance" maskUnits="userSpaceOnUse" x="135" y="13" width="21" height="32">
<path d="M155.259 13.5518C155.259 13.5518 135.633 18.1308 135.633 44.2308H143.077C143.077 44.2308 141.949 24.1542 155.259 13.5518Z" fill="white"/>
</mask>
<g mask="url(#mask23_140_5413)">
<path d="M155.259 13.5518C155.259 13.5518 135.633 18.1308 135.633 44.2308H143.077C143.077 44.2308 141.949 24.1542 155.259 13.5518Z" fill="#01A200"/>
</g>
<mask id="mask24_140_5413" style="mask-type:luminance" maskUnits="userSpaceOnUse" x="135" y="13" width="21" height="32">
<path d="M155.259 13.5518C155.259 13.5518 135.633 18.1308 135.633 44.2308H143.077C143.077 44.2308 141.949 24.1542 155.259 13.5518Z" fill="white"/>
</mask>
<g mask="url(#mask24_140_5413)">
<path opacity="0.15" d="M159.939 13.7098L155.259 12.2671C155.259 12.2671 139.126 20.4132 139.013 45.6505L145.909 46.1014L159.939 13.7098Z" fill="black"/>
</g>
<path d="M139.921 45.6807C139.921 45.6807 139.979 16.8953 153.907 0.563965C153.907 0.563965 134.282 6.53072 133.154 45.6807H139.921Z" fill="#01A200"/>
<mask id="mask25_140_5413" style="mask-type:luminance" maskUnits="userSpaceOnUse" x="133" y="0" width="21" height="46">
<path d="M139.921 45.6807C139.921 45.6807 139.979 16.8953 153.907 0.563965C153.907 0.563965 134.282 6.53072 133.154 45.6807H139.921Z" fill="white"/>
</mask>
<g mask="url(#mask25_140_5413)">
<path opacity="0.15" d="M154.05 0.617676C154.05 0.617676 137.75 9.82374 137.75 45.6503V49.706L154.312 48.8606L154.05 0.617676Z" fill="black"/>
</g>
<mask id="mask26_140_5413" style="mask-type:luminance" maskUnits="userSpaceOnUse" x="122" y="33" width="27" height="30">
<path d="M148.35 33.147H122.058L124.28 61.5264C124.326 62.1253 124.826 62.5863 125.427 62.5863H144.981C145.582 62.5863 146.08 62.1238 146.128 61.5264L148.35 33.147Z" fill="white"/>
</mask>
<g mask="url(#mask26_140_5413)">
<path d="M148.35 33.147H122.058L124.28 61.5264C124.326 62.1253 124.826 62.5863 125.427 62.5863H144.981C145.582 62.5863 146.08 62.1238 146.128 61.5264L148.35 33.147Z" fill="#141414"/>
</g>
<mask id="mask27_140_5413" style="mask-type:luminance" maskUnits="userSpaceOnUse" x="122" y="33" width="27" height="30">
<path d="M148.35 33.147H122.058L124.28 61.5264C124.326 62.1253 124.826 62.5863 125.427 62.5863H144.981C145.582 62.5863 146.08 62.1238 146.128 61.5264L148.35 33.147Z" fill="white"/>
</mask>
<g mask="url(#mask27_140_5413)">
<path opacity="0.3" d="M144.826 31.1809C144.826 31.1809 144.683 43.3392 137.927 51.1764C131.171 59.0137 117.45 56.0586 117.45 56.0586V64.5309H148.031L151.078 31.1809H144.826Z" fill="black"/>
</g>
<path d="M131.347 62.5879H126.698V63.2955H131.347V62.5879Z" fill="#141414"/>
<path d="M143.71 62.5879H139.061V63.2955H143.71V62.5879Z" fill="#141414"/>
<mask id="mask28_140_5413" style="mask-type:luminance" maskUnits="userSpaceOnUse" x="121" y="33" width="29" height="5">
<path d="M148.641 37.961H121.767L121.161 33.147H149.247L148.641 37.961Z" fill="white"/>
</mask>
<g mask="url(#mask28_140_5413)">
<path d="M148.641 37.961H121.767L121.161 33.147H149.247L148.641 37.961Z" fill="#141414"/>
</g>
<mask id="mask29_140_5413" style="mask-type:luminance" maskUnits="userSpaceOnUse" x="121" y="33" width="29" height="5">
<path d="M148.641 37.961H121.767L121.161 33.147H149.247L148.641 37.961Z" fill="white"/>
</mask>
<g mask="url(#mask29_140_5413)">
<path opacity="0.3" d="M144.826 31.1809C144.826 31.1809 144.683 43.3392 137.927 51.1764C131.171 59.0137 117.45 56.0586 117.45 56.0586V64.5309H148.031L151.078 31.1809H144.826Z" fill="black"/>
</g>
</svg>
